<?xml version="1.0" standalone="no"?>
<!DOCTYPE svg PUBLIC "-//W3C//DTD SVG 1.1//EN" "http://www.w3.org/Graphics/SVG/1.1/DTD/svg11.dtd" >
<svg xmlns="http://www.w3.org/2000/svg">
<metadata>
This is a custom SVG webfont generated by Font Squirrel.
Copyright   : Copyright 1994 Bay Animation Inc All Rights Reserved
</metadata>
<defs>
<font id="AmazeNormal" horiz-adv-x="920" >
<font-face units-per-em="2048" ascent="1638" descent="-410" />
<missing-glyph horiz-adv-x="459" />
<glyph unicode=" "  horiz-adv-x="459" />
<glyph unicode="&#x09;" horiz-adv-x="459" />
<glyph unicode="&#xa0;" horiz-adv-x="459" />
<glyph unicode="!" horiz-adv-x="662" d="M203 29q0 51 8 78q6 26 23 26l30 -6l66 -12q8 0 20 -27q7 -14 11 -53q0 -27 -13.5 -35t-52.5 -8q-57 0 -72 8q-16 6 -20 29zM299 236l273 991q6 18 14 25l23 8l122 8q11 -2 13 -4l8 -12l-2 -9l-4 -12l-416 -1005l-8 -7l-21 2z" />
<glyph unicode="&#x22;" horiz-adv-x="652" d="M88 1338q0 47 23 71q20 25 57 25q35 0 58 -23q20 -24 20 -71l-2 -37l-61 -451h-29l-62 445zM406 1323v17q0 43 20 69q21 25 60 25q36 0 56.5 -25.5t20.5 -70.5l-4 -37l-59 -449h-31l-59 445z" />
<glyph unicode="#" horiz-adv-x="1528" d="M112 469l37 96h320l100 289h-348l35 99h348l164 473h113l-169 -473h288l166 473h110l-166 -473h303l-32 -98l-306 -1l-98 -289h330l-37 -96h-330l-166 -469h-109l165 469h-283l-168 -469h-109l166 469h-324zM577 565h287l101 289h-285z" />
<glyph unicode="$" d="M-19 109l2 14l23 35h19q51 -43 121 -76q57 -26 129 -39l166 557q-109 105 -152 176q-43 72 -43 138q0 110 100 188q99 76 253 76h18l33 106l61 13l-36 -125q73 -19 114 -39q24 -10 39 -19q14 -8 26 -20l2 -14l-20 -27h-10q-25 12 -48.5 26.5t-44.5 22.5l-73 29l-129 -434 q125 -127 174 -211q23 -39 35 -80t12 -82q0 -141 -121 -234q-123 -94 -313 -94l-31 -109l-66 -12l39 125q-96 17 -170 45q-73 29 -109 64zM329 37q134 0 218 76q82 74 82 188q0 60 -32 121q-34 60 -109 135zM364 942q0 -30 23 -80q15 -22 49 -63q25 -29 50 -57l120 397h-14 l-14 2q-94 0 -154 -53.5t-60 -145.5z" />
<glyph unicode="%" horiz-adv-x="1272" d="M84 918q0 98 29 182q27 84 80 158q43 61 100 96q33 16 60 25q24 8 59 8q88 0 148.5 -70t60.5 -172q0 -31 -10 -86l-27 -100l18 -8l21 -3q61 0 151 84q47 45 88 98.5t78 119.5l80 139l10 6h47l3 -10l-867 -1516l-12 -11h-76l-4 11q164 234 338 518q164 275 360 631 q-32 -31 -59 -51q-27 -23 -53 -39q-51 -29 -98 -29l-25 2l-23 7q-39 -107 -110 -173q-72 -61 -152 -61q-88 0 -153 72q-62 71 -62 172zM182 871q0 -76 31 -117q29 -42 88 -42q64 0 119 62q53 60 88 179l-10 30l-4 41q0 29 2 43q2 15 14 54q12 36 47 94q0 51 -32.5 88 t-83.5 37q-41 0 -80 -27q-41 -29 -76 -84q-37 -57 -74 -172q-29 -104 -29 -186zM676 217q0 99 29 185q26 86 80 155q43 62 102 97q59 32 119 32q92 0 147 -65.5t55 -171.5q0 -60 -16 -129q-17 -72 -45 -131q-51 -107 -115.5 -160.5t-142.5 -53.5q-86 0 -151 70 q-62 72 -62 172zM774 178q0 -73 33 -116q31 -45 90 -45q54 0 99 39q45 43 81 118q33 76 56 156q20 78 20 147q0 74 -32 117q-35 43 -91 43q-22 0 -39.5 -6t-38 -18.5t-36.5 -32.5q-19 -21 -37 -49q-6 -6 -17 -27q-10 -22 -18 -41l-33 -96l-28 -111z" />
<glyph unicode="&#x26;" horiz-adv-x="1508" d="M213 258q0 138 109 240q109 100 275 115q-33 59 -51 118q-9 31 -13 57.5t-4 61.5q0 156 111.5 259.5t283.5 103.5l72 -6l71 -19l-28 -65q-43 20 -80 30q-39 8 -66 8q-115 0 -176 -73.5t-61 -202.5q0 -61 16 -131q15 -72 49 -143q92 -23 180 -70q86 -49 172 -129 q4 12 13 37q6 24 12 53q4 27 6 41q2 12 2 45l-4 61v11l350 10q66 0 113 16q47 17 72 56l10 2l4 -9q-29 -104 -102 -143q-76 -41 -263 -41l-133 4l-20 -86l-27 -90q98 -123 154 -211q53 -90 78 -164l-7 -11q-63 0 -145 48q-82 43 -215 148q-111 -107 -219 -158 q-111 -52 -230 -52q-131 0 -219 83q-90 80 -90 196zM359 266q0 -102 61 -163q66 -60 170 -60q90 0 182 43q49 25 90 56q39 30 76 73q-100 84 -174 164q-76 80 -139 174q-55 0 -103 -22q-49 -25 -88 -68q-75 -86 -75 -197zM758 535q33 -74 88 -146q55 -71 129 -133 q14 15 31 31q10 18 16 27q4 6 17 26q6 13 16 31q-72 72 -143 108q-39 23 -72 35q-35 13 -82 21zM1008 228l110 -95q23 -14 54 -30q28 -19 53 -29q0 49 -39 121q-18 37 -43 70.5t-59 72.5l-39 -61z" />
<glyph unicode="'" horiz-adv-x="336" d="M88 1338q0 47 23 71q20 25 57 25t58 -23q18 -24 18 -71v-25v-16l-61 -447h-29l-62 445z" />
<glyph unicode="(" horiz-adv-x="690" d="M279 191q0 307 131 620q65 158 170 332q104 172 246 360l10 3l20 -11l-2 -6q-231 -405 -352 -803.5t-121 -753.5q0 -127 15 -223q12 -98 40 -178v-13l-20 -10l-10 8q-58 136 -92.5 314t-34.5 361z" />
<glyph unicode=")" horiz-adv-x="690" d="M-8 -482l2 11q232 405 352 803q121 395 121 748q0 129 -14 233q-17 102 -41 174l2 10l18 9l11 -7q59 -139 94 -311q32 -174 32 -364q0 -308 -131 -623q-131 -318 -415 -691l-10 -2z" />
<glyph unicode="*" horiz-adv-x="994" d="M137 1153l3 43l6 6q73 0 153 -22q56 -14 97 -27q38 -14 90 -37q-21 29 -41 56q-23 24 -54 55q-22 23 -57 53q-27 23 -68 58l-2 14l17 49l8 2q61 -51 122.5 -121.5t117.5 -160.5q67 296 137 296l53 -2l31 -6q-45 -47 -76 -86t-53 -76q-45 -79 -58 -149q43 27 91 49 q45 23 94 45q94 35 129 35l20 -4l17 -6l75 -41l2 -8q-126 -13 -157 -17t-90 -18q-62 -17 -97.5 -29t-66.5 -29q61 -20 119 -45q55 -24 98 -49q78 -41 82 -69l-6 -47l-15 -46q-16 27 -43 58q-26 31 -59 57q-80 60 -186 109q55 -88 90 -168t35 -109l-5 -14l-6 -19l-35 -73 l-8 -2q0 61 -8 104t-31 111q-24 96 -65 166q-19 -41 -27 -78q-10 -37 -22 -96q-19 -91 -19 -197l-6 -10h-41l-6 6v12q0 80 18 170q21 82 62 178q-70 -24 -129 -61q-62 -39 -150 -111h-14l-41 23l-2 10q41 31 74 53q30 23 78 47q86 47 190 86q-43 19 -96 35q-56 15 -86 23 q-31 6 -78 12q-49 6 -92 6z" />
<glyph unicode="+" horiz-adv-x="1655" d="M246 551v94h535v551h96v-551h532v-94h-532v-551h-96v551h-535z" />
<glyph unicode="," horiz-adv-x="459" d="M56 -205l14 47q35 21 66 43q29 23 51 45q45 49 45 80q0 17 -13 29q-14 10 -30 10q-9 -2 -19 -2q-10 -2 -24 -8l-9 -2l-7 6l24 88q6 23 24 35q25 10 56 10q41 0 67 -28q27 -29 27 -70q0 -70 -71 -142q-68 -73 -201 -141z" />
<glyph unicode="-" horiz-adv-x="856" d="M258 363l29 84l12 8h447l10 -12l-25 -90l-12 -7h-455z" />
<glyph unicode="." horiz-adv-x="459" d="M102 29q0 51 8.5 77.5t22.5 26.5l33 -6l64 -12q12 0 20 -21q6 -20 10 -59q0 -25 -12 -35q-16 -8 -53 -8q-55 0 -72 8q-16 6 -21 29z" />
<glyph unicode="/" horiz-adv-x="553" d="M27 -176l645 1561l12 8h51l9 -10l-615 -1559l-12 -11h-84z" />
<glyph unicode="0" d="M67 389q0 62 13 133q6 41 12 66q4 23 24 86q19 64 41.5 119t53.5 106q53 97 131 172q68 62 127 88q60 27 117 27q127 0 199 -109q69 -108 69 -307q0 -168 -51 -336q-53 -170 -149 -292q-64 -82 -134.5 -123t-146.5 -41q-133 0 -219.5 115.5t-86.5 295.5zM211 295 q0 -131 47 -203.5t129 -72.5q70 0 134.5 63.5t119.5 192.5q56 127 88 280q31 154 31 299q0 140 -43 216.5t-119 76.5q-41 0 -80 -24q-41 -27 -82 -76q-49 -62 -90 -152q-43 -92 -82 -233q-24 -82 -38.5 -180.5t-14.5 -186.5z" />
<glyph unicode="1" d="M266 13l5 16l301 971q-37 -43 -66 -72l-70 -70q-69 -63 -135 -110h-8l-12 16l2 12l141 132q64 63 98 106q11 10 31 43q12 16 25 35q43 65 76 67l61 7l12 -2l4 -11l-2 -8l-4 -12l-319 -1094l-13 -29l-22 -8l-82 -6l-18 4z" />
<glyph unicode="2" d="M19 0l4 13l131 200l10 8l14 2h19l12 -4q107 121 191 230q82 108 136 203q115 194 115 323q0 66 -30 105q-33 36 -94 36q-91 0 -164 -88q-76 -90 -94 -229l-7 -8h-24l-8 12q18 168 112 272q94 105 223 105q101 0 169.5 -66.5t68.5 -167.5q0 -159 -512 -700l-37 -39l53 -24 q103 -46 168 -68q64 -25 88 -25q50 0 93 35q43 33 96 111l6 4l16 -12l2 -9q-36 -63 -67 -104t-68 -76q-67 -64 -127 -64q-43 0 -166 50l-184 72l-115 -114z" />
<glyph unicode="3" d="M51 37l11 12l10 4q27 -12 68 -20q38 -10 81 -10q19 0 43 2q25 0 68 15.5t86 47.5q76 62 129 164q51 103 51 197q0 78 -51 127t-129 49q-25 0 -57 -8l-80 -21l-15 6l-6 19l4 10q185 82 279 176t94 201q0 51 -28 82q-29 28 -74 28q-56 0 -117 -47q-63 -47 -121 -135h-10 l-18 12l-3 11q60 104 146 166q86 59 172 59q84 0 139 -47q53 -49 53 -131q0 -101 -84 -180q-83 -80 -278 -156q149 0 240 -68q90 -67 90 -182q0 -80 -47.5 -164t-133.5 -162q-59 -51 -143 -86q-84 -31 -164 -31q-63 0 -110 13q-49 10 -93 37z" />
<glyph unicode="4" d="M82 389l4 15q140 190 236 340q108 172 178 299l16 34q27 58 58 68l129 27l16 -6l5 -15q0 -33 -162 -243q-146 -187 -410 -488l442 8l70 258q2 13 10 21l21 8l75 10l15 -6l4 -12v-8l-2 -7l-65 -258h49l12 -8l-4 -22l-10 -11l-60 -2l-88 -352l-10 -22l-15 -9l-102 -23h-8 l-11 2l-1 9l2 17q2 10 4 12l100 360l-481 -14l-13 2z" />
<glyph unicode="5" d="M70 13l8 14l8 4l60 -14l61 -4q59 0 123 24q63 25 119 74q80 67 125 164q45 94 45 190q0 90 -47 146q-50 52 -127 52q-76 0 -154 -57q-33 -24 -63 -43q-11 -6 -25 -14q-10 2 -12 4l-4 12l2 19l2 6l166 516q8 23 16 29q8 4 37 6l328 6q26 0 50.5 9.5t43.5 27.5l10 -4 q-12 -96 -76 -129q-61 -37 -268 -37h-74l-51 2l-127 -391q59 47 123 67q61 25 129 25q117 0 187.5 -70.5t70.5 -181.5q0 -90 -47 -182q-49 -94 -141 -170q-80 -66 -172 -100q-95 -38 -191 -38l-76 6q-32 4 -55 17z" />
<glyph unicode="6" d="M113 303q0 203 144 443q141 237 401 456l12 2l21 -22l-6 -16q-201 -195 -320 -445q-121 -250 -121 -467q0 -61 11 -96q7 -37 32 -72q43 -61 115 -61q102 0 182 133t80 311q0 76 -25 117q-24 40 -74 40q-73 0 -135 -91q-61 -94 -80 -234l-6 -10l-18 -2l-8 12q0 80 24 154 q25 72 66 125q84 110 190 110q84 0 142 -67q55 -70 55 -172q0 -76 -30 -160q-27 -82 -81 -154q-63 -77 -133 -118q-69 -41 -151 -41q-129 0 -207 88q-80 88 -80 237z" />
<glyph unicode="7" d="M84 4q0 35 213 324q201 274 537 686l-197 6l-115 2q-79 0 -114 -18q-37 -21 -66 -76l-4 -23q-10 -28 -39 -30l-8 4l-2 12l18 68q9 26 27 63q12 25 21 41q24 49 73 76q47 18 191 18q28 0 82 -2q53 -2 77 -2h50q22 -2 86 -10l24 18l13 3l10 -13v-14q-41 -66 -192 -281 q-62 -84 -103 -145q-59 -88 -137 -207l-125 -209q-21 -37 -66 -119q-59 -108 -72 -133q-12 -24 -22 -33l-23 -8l-118 -12l-15 6z" />
<glyph unicode="8" d="M94 238q0 94 70 194q39 60 90 117q49 55 137 135q-45 70 -61 123q-23 62 -23 117q0 106 80 182q78 76 191 76q106 0 172 -61q63 -62 63 -166q0 -70 -49 -162q-51 -92 -158 -211q25 -37 46 -76q18 -41 30 -76q12 -37 20 -77.5t8 -67.5q0 -125 -93 -215q-95 -92 -232 -92 q-123 0 -207 74.5t-84 185.5zM188 244q0 -98 51.5 -160.5t137.5 -62.5q92 0 152 67q59 68 59 168q0 62 -37 146q-16 39 -49 98t-88 145q-119 -106 -173 -206q-53 -101 -53 -195zM426 965q0 -51 35 -127q14 -35 47 -90q31 -56 74 -123q70 70 113 160t43 180q0 82 -41 129 q-37 47 -107 47q-68 0 -115 -49q-49 -49 -49 -127z" />
<glyph unicode="9" d="M137 662q0 94 39 190q37 96 111 185q29 34 59 64q29 26 62 47q65 34 135 34q119 0 198.5 -109.5t79.5 -269.5q0 -190 -143 -428q-72 -115 -168 -219q-96 -107 -217 -201h-12l-15 18l5 12q198 169 304.5 394t106.5 471q0 139 -41 215q-41 74 -123 74q-49 0 -98 -30 q-51 -32 -90 -85q-25 -35 -41 -63q-17 -31 -31 -70q-23 -74 -23 -145q0 -99 38 -148q34 -53 102 -53q78 0 133 74q53 71 78 211l6 6l23 -2l6 -10q-25 -175 -105 -285q-82 -113 -184 -113q-86 0 -139 68q-56 65 -56 168z" />
<glyph unicode=":" horiz-adv-x="506" d="M125 29q0 51 8 78q9 26 23 26l31 -6l65 -12q12 0 21 -21q6 -20 10 -59q0 -25 -10 -31q-11 -8 -21 -10t-35 -2q-55 0 -71 8q-17 4 -21 29zM281 563q0 52 8 78q6 27 20 27l52 -8l45 -8q14 -5 22 -25.5t8 -56.5q0 -27 -10 -35t-53 -8q-55 0 -74 8q-18 8 -18 28z" />
<glyph unicode=";" horiz-adv-x="506" d="M80 -205l10 47q37 21 64 41q26 18 57 47q43 47 43 80q0 17 -12 29q-14 10 -31 10l-35 -8l-14 -4l-8 6l22 88q7 25 28.5 35t51.5 10q41 0 67.5 -26.5t26.5 -71.5q0 -70 -67 -142q-70 -73 -203 -141zM307 563q0 52 9 78q8 27 22 27l49 -8l47 -8q13 -3 23 -27q8 -25 8 -55 q0 -25 -10 -33q-12 -10 -53 -10q-56 0 -74 8q-21 8 -21 28z" />
<glyph unicode="&#x3c;" horiz-adv-x="1655" d="M256 557v82l1143 473v-106l-991 -408l991 -405v-107z" />
<glyph unicode="=" horiz-adv-x="1655" d="M246 366v99h1163v-99h-1163zM246 733v97h1163v-97h-1163z" />
<glyph unicode="&#x3e;" horiz-adv-x="1655" d="M256 86v107l991 405l-991 408v106l1143 -473v-82z" />
<glyph unicode="?" horiz-adv-x="772" d="M201 959q31 180 119 284q88 105 215 105q104 0 176 -74t72 -190q0 -162 -250 -516l-66 -93q-53 -75 -86 -139q-14 -29 -28.5 -63.5t-24.5 -63.5l-10 -6l-23 8v12q19 80 115 271l31 61q110 223 157 350q39 117 39 207q0 88 -37 134.5t-102 46.5q-88 0 -156 -91 q-67 -90 -104 -247l-6 -7l-27 3zM221 29q0 51 8.5 77.5t22.5 26.5l33 -6l63 -12q15 0 23 -27q2 -4 6 -18q2 -14 2 -35q0 -25 -10 -35q-16 -8 -53 -8q-56 0 -72 8q-18 6 -23 29z" />
<glyph unicode="@" horiz-adv-x="1958" d="M144 527q0 200 82 370q79 170 243 307q129 107 285 163q154 55 328 55q333 0 536 -185q201 -184 201 -485q0 -150 -55.5 -287t-161.5 -233q-51 -49 -121 -82q-59 -27 -125 -27q-94 0 -143 51q-27 31 -41 70q-17 39 -17 90q-51 -98 -133 -160q-71 -51 -168 -51 q-114 0 -188 90t-74 240q0 55 10 104q11 47 37 105q45 100 133 190q66 66 142 99q34 18 71 26t74 8q82 0 137 -47q56 -49 78 -147l53 178h127l-166 -594l-12 -59l-4 -43q0 -50 24.5 -78.5t71.5 -28.5q49 0 107 29q55 26 110 78q91 86 142 215q49 129 49 272q0 281 -187 451 q-186 168 -497 168q-172 0 -320 -57q-147 -58 -262 -169q-129 -125 -194 -291q-68 -165 -68 -366q0 -170 56.5 -297t168.5 -226q113 -98 252 -150q140 -51 318 -51q92 0 161 12q70 10 150 40q78 26 148.5 63t138.5 88l28 -33q-65 -49 -143 -90q-80 -43 -158 -71 q-153 -54 -331 -54q-187 0 -330 45q-146 43 -266 135q-142 110 -219 269q-78 160 -78 351zM717 371q0 -53 10 -86q8 -33 33 -64q39 -53 111 -53q39 0 65 8q25 9 60 35q61 45 114 131q29 41 51 90q21 47 37 105q35 108 35 196t-49 154q-49 64 -123 64q-55 0 -98 -31 q-21 -15 -43 -39q-25 -27 -47 -62q-68 -102 -111 -227q-45 -125 -45 -221z" />
<glyph unicode="A" horiz-adv-x="2165" d="M248 223q0 78 64 125q63 45 170 45q63 0 98 -6q39 -10 57 -14q76 -23 146 -61l4 -15l-9 -16l-10 -4q-73 35 -112 45q-41 10 -64.5 14t-50.5 4q-78 0 -123.5 -35.5t-45.5 -99.5q0 -72 85 -123q82 -52 211 -52q115 0 258 82q141 83 276 230q-278 31 -438 130.5t-160 234.5 q0 96 88 155q86 60 230 60q139 0 293 -45q151 -47 297 -135q98 149 192 268q94 117 189 201q186 176 299 176q14 0 20 -6q6 -13 6 -17q0 -16 -123 -315q-129 -324 -221 -576q70 -86 105 -176q32 -92 32 -190v-77q-6 -24 -10 -45q-4 -23 -20 -26l-37 18l-58 46 q-67 55 -98 133q-35 80 -35 172l6 80l19 84l-84 67l-102 72l-103 -145l-84 -105h47l47 2l74 2l10 -8l2 -18l-8 -9q-16 -4 -31 -6q-14 -2 -38 -2l-91 -2h-51q-168 -172 -350 -260q-182 -90 -356 -90q-178 0 -295 69.5t-117 163.5zM694 684q0 -119 146 -200q82 -48 178 -74 q94 -27 219 -27q37 37 99 115l151 205q-135 82 -264 125q-131 43 -240 43q-133 0 -211 -50.5t-78 -136.5zM1618 670l94 -70l76 -55q86 281 160 463q37 90 74 164q34 73 67 123q-112 -33 -413 -529zM1837 250q0 -78 20.5 -125t63.5 -82l23 68l8 74q0 63 -25 118 q-18 56 -67 109l-17 -82z" />
<glyph unicode="B" horiz-adv-x="2097" d="M129 1022q0 158 160 262q160 105 414 105q231 0 379 -82q145 -84 184 -230q168 152 309 234t240 82q76 0 125 -41q47 -43 47 -109q0 -75 -86 -192t-279 -297q160 0 252 -82q90 -84 90 -229q0 -97 -45 -195q-45 -100 -125 -180q-30 -31 -67 -58t-76 -43q-78 -37 -160 -37 q-78 0 -127 45q-51 44 -51 117q0 101 90 191q90 88 234 127l14 -4l4 -19l-4 -10q-94 -41 -160 -129q-68 -88 -68 -174q0 -45 27 -72q27 -29 64 -29q43 0 88 27q49 33 88 80q31 35 55 80q25 45 47 100q35 101 35 205q0 109 -61.5 169.5t-190.5 74.5q-112 -109 -211 -191 q-49 -36 -82 -57q-35 -20 -69 -37l-9 4q39 129 129 213q89 82 216 105q71 71 127 137q53 63 94 123q75 112 75 182q0 49 -32 78q-33 27 -90 27q-86 0 -203 -72q-119 -74 -248 -205q0 -125 -53 -289q-53 -166 -158 -358q-78 -143 -158 -244q-79 -100 -153 -148l-10 2l-7 27 l-2 27q0 55 6.5 112.5t22.5 129.5q29 135 80 270q25 61 55 123q31 61 72 123q39 61 76 106q37 43 92 94q-14 162 -135 256q-121 95 -316 95q-194 0 -315 -88q-123 -90 -123 -234q0 -104 80 -168.5t213 -64.5q70 0 149 21q78 18 183 65l14 -6l8 -17l-6 -14q-41 -23 -92 -43 q-53 -23 -98 -33q-99 -25 -201 -25q-168 0 -266 78q-101 78 -101 209zM877 299l2 -57l12 -47q49 51 94 129q43 76 78 176q33 98 53 209q19 108 19 223q-129 -131 -193 -291q-65 -159 -65 -342z" />
<glyph unicode="C" horiz-adv-x="1602" d="M68 998q0 133 141 215q139 82 383 82h90q49 -2 129 -16q101 -15 213 -48q62 51 111 86t102 60q103 51 185 51q90 0 145 -51.5t55 -139.5q0 -98 -63 -188q-64 -92 -193 -182v-15q0 -141 -102 -246q-105 -106 -299 -170l-10 9l-4 18l6 8q180 62 270 156t90 211 q-63 -31 -113.5 -53.5t-115.5 -40.5q-109 -37 -264 -60q-7 -20 -13 -53q-8 -33 -12 -66q-6 -32 -8 -61t-2 -72q0 -186 102 -297q103 -110 283 -110q164 0 319 125q154 123 344 411l4 -14l2 -12q0 -29 -36 -90q-43 -66 -123 -162q-135 -162 -267 -233q-133 -74 -282 -74 q-221 0 -361 139q-139 137 -139 354l6 103q4 26 8 47q3 18 15 61q-139 0 -250 25q-111 22 -195 65q-151 84 -151 228zM185 981q0 -123 127 -188q63 -33 157 -49q92 -19 207 -19q27 72 53 129q27 56 72 123q39 55 88 113q47 57 100 108q-41 13 -79 23q-41 10 -89 16 q-90 13 -190 13q-205 0 -326 -74q-120 -74 -120 -195zM840 729q74 13 137 29q62 14 121 39q119 45 219 119q-18 82 -78 147q-61 66 -159 107q-70 -86 -134 -205q-26 -47 -53 -107q-26 -59 -53 -129zM1106 1204q98 -45 162 -108q57 -57 86 -141q84 75 129 157q45 80 45 142 q0 59 -35 94t-90 35q-63 0 -143 -47q-82 -50 -154 -132z" />
<glyph unicode="D" horiz-adv-x="1833" d="M129 924q0 178 151.5 297t381.5 119q119 0 252 -33q131 -33 276 -100q84 108 187 165q57 33 114 52q55 18 115 18l11 -8v-19l-11 -10q-108 -20 -192 -86q-74 -59 -128 -166q205 -147 316 -321q110 -176 110 -348q0 -101 -36 -191q-37 -92 -107 -164q-72 -71 -160 -106 q-47 -18 -92 -29q-47 -10 -100 -10q-76 0 -178 29q-105 27 -234 86q-67 -57 -160 -86q-92 -29 -206 -29q-82 0 -162 14q-82 15 -142 45v10q60 74 150 111t215 37q29 0 61 -2q33 -2 78 -8q45 -8 119 -28q18 18 39 57l59 116q-340 72 -532 229q-195 158 -195 359zM258 883 q0 -172 162 -305q160 -135 455 -203q63 129 168 479l16 54q-43 20 -80 32q-39 13 -92 27q-86 18 -168 18q-39 0 -59.5 -2t-63.5 -8q-59 -12 -119 -37l-14 4l-6 17l4 12q57 31 129 47q70 14 141 14q80 0 170 -22q86 -19 174 -62q9 31 23 66t20 53l46 99q-56 26 -115.5 50.5 t-118.5 39.5q-117 30 -227 30q-199 0 -322 -110.5t-123 -292.5zM283 45l61 -16l72 -6q94 0 170 26q76 27 131 78l-82 17l-88 8q-76 0 -147.5 -27.5t-116.5 -79.5zM840 131q82 -30 149 -48q37 -6 72 -11q33 -4 68 -4q215 0 346 129q129 127 129 340q0 164 -88 314.5 t-244 256.5l-43 -108l-39 -121q92 -66 141 -139q47 -76 47 -160q0 -121 -85 -191q-86 -69 -242 -69l-64 2l-10 2l-61 -94zM1000 367l10 -2l57 -2q123 0 195 57q71 62 71 160q0 67 -43 133q-38 65 -118 121q-23 -84 -39 -139q-19 -58 -49 -142q-21 -57 -39 -98 q-19 -43 -45 -88z" />
<glyph unicode="E" horiz-adv-x="1680" d="M88 1090q0 125 129 207q127 82 334 82q94 0 187 -14q43 -7 96 -17q53 -12 108 -29l6 -10l-4 -19l-12 -4q-45 13 -92 23q-49 10 -92 17q-45 6 -84 10q-41 4 -82 4q-168 0 -262 -68q-97 -70 -97 -192q0 -115 105 -179q102 -63 293 -63q57 0 85.5 2t92.5 13q45 3 90 14 q43 8 104 24q-33 31 -49 70q-17 37 -17 86q0 78 43.5 135t150.5 123q63 39 157 64q92 22 185 22q96 0 153 -35q55 -37 55 -106q0 -95 -131 -187q-65 -43 -161 -86q-99 -43 -230 -86q17 -14 49 -30q33 -19 41 -23q54 -22 131 -37l9 -10v-21l-11 -6q-297 -39 -481 -182 q-186 -146 -186 -322q0 -112 86 -184q88 -66 237 -66q168 0 291 82q121 82 121 191q0 65 -49 102q-47 41 -123 41q-74 0 -158 -41q-88 -37 -201 -123l-8 2l-10 15l2 12q131 105 242 154q53 23 109.5 37t101.5 14q94 0 157 -49q62 -51 62 -123q0 -58 -37 -113 q-32 -55 -111 -108q-90 -66 -209.5 -105t-232.5 -39q-190 0 -309 86t-119 224q0 180 192 321q191 139 521 193q-43 4 -64 8q-20 4 -61 18q-60 17 -107 49q-129 -30 -225 -46q-55 -6 -104 -10q-52 -5 -101 -5q-235 0 -371 80q-135 80 -135 213zM1071 1047q0 -41 13 -72 q4 -14 12 -24q8 -13 25 -29q229 67 335 145q111 74 111 166q0 51 -37 86q-37 31 -98 31q-148 0 -254 -90q-107 -92 -107 -213z" />
<glyph unicode="F" horiz-adv-x="1245" d="M154 1043q0 168 162 264q159 94 442 94l260 -6l207 -6q84 0 141 28l11 5l8 -5l4 -10l-15 -22l-63 -70q-21 -20 -45 -35q-29 -8 -68 -8h-14q-20 0 -147 8q-129 8 -179 8q-77 0 -149 7q-72 4 -154 10q-162 0 -260 -72q-100 -74 -100 -194q0 -101 69 -164q70 -64 181 -64 q65 0 141 24.5t166 76.5l12 -2l12 -21l-8 -16q-88 -54 -164 -74q-77 -27 -161 -27q-131 0 -209 76q-80 74 -80 195zM391 103q0 71 64 153q33 43 78 84t106 86l15 2l12 -12l-4 -12q-56 -47 -90.5 -80t-53.5 -55q-32 -50 -32 -86q0 -48 32 -74q33 -27 95 -27q127 0 213 125 q86 123 135 375l-189 12q-65 6 -106 19l6 22h154l151 6l68 291q49 227 88 246l84 37l16 4l8 -6l4 -15q0 -22 -81 -313l-64 -231l51 2l25 4l45 4l43 4l8 -4q0 -33 -43 -62q-43 -28 -104 -28l-41 4q-27 -70 -45 -113q-25 -59 -50 -104q-47 -97 -116 -174q-82 -93 -181 -150 q-100 -60 -165 -60q-64 0 -99 36q-37 34 -37 90z" />
<glyph unicode="G" horiz-adv-x="2151" d="M146 690q0 136 127 220q127 81 338 81q84 0 202 -16q49 -8 109 -20q59 -15 129 -33q176 213 397 340q221 125 416 125q115 0 176 -51q59 -54 59 -148q0 -106 -84 -215q-83 -108 -251 -225q-170 -119 -365 -199q-197 -80 -434 -127l-10 -49v-64q0 -120 66.5 -192 t187.5 -72q141 0 346 133q204 134 438 375l10 -2q-26 -231 -74 -440q-47 -212 -96 -322q-41 -98 -94 -166q-27 -35 -61 -72q-37 -37 -84 -76l-54 -34q-22 -13 -37 -13q-10 0 -22 23q-8 22 -8 63q0 88 35 187q26 59 46.5 94t63.5 88l8 2l15 -8l2 -10q-23 -39 -33 -60 q-10 -20 -27.5 -69.5t-17.5 -98.5l4 -55q6 -31 20 -55q93 51 146 211q51 159 110 613q-210 -187 -385 -275q-174 -91 -317 -91t-238 103q-94 103 -94 269v18l2 21l-98 -13l-94 -2q-213 0 -344 86q-131 84 -131 221zM264 672q0 -113 101 -178q100 -68 272 -68l82 2l98 13 q11 90 68 213q27 57 59 112q33 55 78 119q-96 27 -160 37q-65 8 -102 12q-39 4 -76 4q-184 0 -301 -73q-119 -76 -119 -193zM977 465q80 17 125 29q45 10 139 39q121 39 224 92q235 119 370 270q133 150 133 283q0 43 -8 67q-10 25 -35 48q-41 43 -112 43q-123 0 -293 -123 q-82 -60 -164 -144q-84 -84 -168 -192l78 -29l76 -31l8 -16l-12 -20h-11l-77 30l-93 31q-61 -82 -106 -178q-47 -96 -74 -199z" />
<glyph unicode="H" horiz-adv-x="1987" d="M62 985q0 166 161 273q82 53 187 80q102 26 235 26q283 0 443 -129q157 -129 157 -362l-6 -99q-2 -22 -8 -51q-6 -31 -14 -57q84 14 163.5 36.5t143.5 53.5q145 270 319 461q175 188 242 188q8 -4 12 -12t4 -14q0 -43 -12 -84q-4 -15 -31 -76q-40 -103 -108 -195 q-68 -94 -133 -151q-68 -60 -160 -109q-22 -67 -47 -153q-27 -89 -39 -150q-14 -61 -20 -98q-13 -74 -13 -135q0 -93 41 -150q43 -53 117 -53q90 0 217 123q64 61 139 159q76 97 174 242l9 -12l2 -12q0 -31 -35 -86q-37 -58 -121 -168q-57 -74 -113 -131q-57 -59 -104 -96 q-107 -74 -186 -74q-117 0 -191 94q-37 49 -55.5 107.5t-18.5 140.5q0 92 21 186q12 51 25.5 96t33.5 98l-155 -45l-134 -26q-34 -90 -73 -164q-41 -74 -92 -141q-97 -129 -230 -219q-33 -20 -78 -45q-47 -25 -90 -43q-18 -6 -61 -19.5t-70 -13.5q-8 0 -18 5l-6 11 q0 27 39 102q36 74 100 156q98 129 213 225q113 97 235 160l19 121l8 113q0 225 -109 338q-110 110 -333 110q-203 0 -336 -98q-135 -98 -135 -242q0 -156 145 -248q143 -94 397 -94l13 -10v-23l-9 -10q-315 0 -493 107q-178 104 -178 286zM654 72q118 16 223 145 q102 129 180 359q-145 -68 -248 -197q-102 -129 -155 -307zM1673 830q129 65 199 166q68 100 68 227v20q-86 -69 -148 -172q-65 -98 -119 -241z" />
<glyph unicode="I" horiz-adv-x="1487" d="M240 1051q0 141 170 238.5t430 97.5q276 0 430 -133t154 -367q0 -76 -16 -170q-8 -43 -21.5 -88t-32.5 -98q-22 -56 -45 -109q-25 -53 -53 -100q-31 -49 -58 -84q-26 -37 -65 -80q-111 -123 -254 -196q-144 -71 -266 -71q-97 0 -156 41q-55 43 -55 113q0 82 76.5 149.5 t193.5 86.5l10 -6l2 -15l-2 -10q-86 -29 -129 -72t-43 -96q0 -55 47 -97q47 -34 123 -34q94 0 195 55q98 56 176 160q106 139 164 328q57 186 57 383q0 33 -2 64.5t-6 56.5q-6 22 -8 43q-6 24 -21 65q-74 -155 -231.5 -248.5t-339.5 -93.5h-31l-22 2q-27 -33 -48 -63 q-30 -47 -45 -70l-82 -147l-10 -7l-18 9l-4 12q14 35 30 70q15 32 32.5 61t43.5 70q27 41 53 73q-145 17 -233 95q-90 75 -90 182zM357 1057q0 -84 63 -147q66 -58 178 -86q148 147 300.5 227t289.5 80l19 -2h18q-47 102 -156 159q-108 56 -258 56q-194 0 -323 -84 q-131 -84 -131 -203zM656 817h36q146 0 256 68q109 66 158 182q-55 0 -104 -18.5t-119 -57.5q-117 -65 -227 -174z" />
<glyph unicode="J" horiz-adv-x="1403" d="M160 1053q0 139 158 237q157 99 395 99q137 0 258 -37q119 -37 184 -102l82 26q27 8 49 8l19 -2l20 -4l6 -12q-12 -25 -30 -43l-68 -64q19 -28 33 -61q14 -35 20 -68q21 -77 21 -159q0 -84 -21 -179q-14 -90 -53 -198q-72 -201 -172 -369q-102 -170 -246 -334 q-135 -150 -266 -246q-133 -98 -235 -125l-7 10q0 140 113 295q111 154 313 288h13l8 -17l-2 -13q-146 -104 -227 -215q-82 -110 -82 -200v-19l2 -12q90 43 190 137q98 92 184 213q160 232 252 511q93 278 93 522l-7 80q0 16 -2 39q-4 20 -12 45q-129 -107 -264 -164 q-135 -60 -301 -82q-51 -74 -96 -164q-39 -88 -60 -172l-8 -10l-23 4l-6 14q8 45 21 82q10 35 28 78q31 74 86 164h-26q-158 0 -246 57t-88 162zM275 1071q0 -88 65 -141q68 -49 193 -49h20q41 58 94 109q54 49 119 94q66 43 144 80q75 34 163 61q-57 59 -153 92 q-96 31 -209 31q-195 0 -315.5 -78t-120.5 -199zM615 891q176 23 309 97.5t211 199.5q-88 -18 -160 -43q-72 -27 -141 -68q-129 -71 -219 -186z" />
<glyph unicode="K" horiz-adv-x="1987" d="M178 1123q0 122 136 202q135 78 356 78q248 0 377 -90q129 -92 129 -272q0 -74 -24 -170q-27 -97 -80 -228q-45 -106 -107 -213.5t-125 -183.5q-90 -117 -191 -188q-100 -75 -198 -101l-6 4q28 189 164 392q133 200 373 409l43 223q12 78 12 123q0 129 -91 193 q-90 61 -272 61q-178 0 -283 -65q-107 -66 -107 -172q0 -86 71 -136q69 -51 192 -51h53q29 6 48.5 8t46 6.5t63.5 12.5l12 -8l6 -19l-8 -10q-59 -16 -127 -27q-53 -4 -78.5 -6t-48.5 -2q-151 0 -243 62q-43 30 -68 73t-25 95zM602 80q127 66 219 219q93 154 146 393 q-152 -118 -246 -274t-119 -338zM1066 520q0 35 28 89q27 51 82 129q103 143 264 292q80 76 162 140q80 61 174 120q178 107 217 107l12 -4l4 -21q0 -26 -10 -69q-10 -45 -18.5 -58.5t-26.5 -23.5q-20 -10 -47 -19l-41 -12q-229 -84 -411 -231.5t-303 -341.5q32 18 65 26 l55 11q66 0 119 -50q47 -43 102 -155l72 -174q86 -226 164 -226q63 0 168 115q102 113 280 381l6 -14l5 -17q0 -24 -29 -71l-135 -183q-115 -148 -197 -211q-82 -66 -147 -66q-121 0 -246 279l-19 39l-26 64q-96 215 -170 215q-27 0 -60 -17q-34 -12 -88 -49z" />
<glyph unicode="L" horiz-adv-x="1970" d="M53 860q0 156 164 248q162 92 441 92h84q34 0 98 -6q61 -6 115 -12q51 -8 104 -18l8 -11l-2 -18l-10 -8q-70 10 -123 18q-53 6 -94 6q-84 8 -166 8q-233 0 -371 -82q-69 -40 -102 -92q-35 -53 -35 -125q0 -129 141 -202q142 -74 396 -74q84 0 188 13q105 12 217 39 q45 188 107 336q61 145 137 245q151 203 348 203q86 0 139 -48.5t53 -136.5q0 -158 -178 -323q-180 -168 -477 -285q-26 -76 -53 -143q-29 -68 -59 -129q-56 -115 -125 -199q166 -64 319 -94q152 -33 293 -33q98 0 145 24q47 25 47 80q0 56 -47 90q-49 33 -133 33 q-49 0 -86 -6q-37 -8 -49 -12q-14 -4 -39 -19l-8 2l-6 19l6 12q33 19 82 33q49 12 100 12q97 0 160 -47q59 -49 59 -125q0 -92 -75 -150q-76 -53 -201 -53q-105 0 -264 49q-80 25 -160 60q-82 33 -178 84q-29 -27 -66 -49.5t-80 -40.5q-79 -31 -170 -31q-41 0 -82 7 q-43 6 -88 20q-81 24 -155 73v11q84 55 180 86q47 14 92 22q45 6 101 6h51q20 0 59 -6q37 -8 70 -16q30 -8 59 -21q43 56 137 361l15 49q-43 -10 -90 -18q-50 -9 -115 -17q-98 -8 -143 -8q-46 -2 -72 -2q-297 0 -455 84q-158 82 -158 235zM512 60q13 -7 25 -11q10 -6 26 -10 l66 -6q90 0 162 27q69 24 117 77q-33 21 -76 33q-45 10 -86 10q-58 0 -117 -30q-61 -33 -117 -90zM1247 676q82 25 156 70q72 43 158 116q61 56 110 109q48 51 84 109q74 110 74 176q0 61 -31 92q-26 33 -86 33q-135 0 -249 -177q-117 -176 -216 -528z" />
<glyph unicode="M" horiz-adv-x="2194" d="M117 1010q0 57 29 117q26 59 80 108q67 60 147 88q80 33 166 33q149 0 247.5 -88t98.5 -217q0 -100 -72 -334l-2 -10l-90 -289q215 420 389 641q172 219 283 219q53 0 84 -37q29 -39 29 -104l-9 -51l-24 -105l-160 -602q104 207 200.5 364.5t192.5 280.5q187 238 293 238 q43 0 76 -33q31 -37 31 -86q0 -59 -111 -373l-18 -49q-91 -254 -125 -385q-17 -57 -23 -100t-6 -86q0 -66 27 -105q24 -41 69 -41q66 0 173.5 121t273.5 379l8 -16l2 -17q0 -32 -80 -147l-8 -10q-148 -209 -234 -285q-86 -78 -161 -78q-82 0 -134 64q-53 61 -53 161 q0 90 33 215q18 74 49 166q29 90 84 240l49 133q62 172 62 211q0 23 -11 35q-10 12 -24 12q-62 0 -209 -184q-76 -96 -152 -213q-75 -117 -155 -266q-90 -162 -189 -410l-10 -33l-12 -29q-19 -57 -51 -61l-70 -7h-10l-19 5l-4 12v11l6 20l263 909l38 148l9 69q0 23 -11 35 q-12 10 -32 10q-52 0 -170 -137q-56 -65 -119 -157q-66 -95 -133 -207q-43 -74 -78 -142q-37 -69 -78 -153q-63 -148 -117 -289l-14 -47q-18 -74 -59 -74l-70 -8h-8q-12 0 -19 8q-6 6 -6 10l8 31l265 885l20 88l6 74q0 108 -63 170q-62 63 -172 63q-142 0 -232 -80 q-90 -82 -90 -207q0 -88 53 -141q52 -55 132 -55l53 6l61 16l10 -4l7 -10l-7 -10q-18 -10 -36 -17q-19 -6 -54 -14q-37 -8 -75 -8q-113 0 -177 57q-61 62 -61 158z" />
<glyph unicode="N" horiz-adv-x="2104" d="M131 1028q0 156 158 253.5t414 97.5q239 0 374 -84q133 -86 133 -246q0 -51 -18 -146q-21 -94 -55 -221l-78 -268q272 491 447 700q172 207 299 207q73 0 120 -43q45 -43 45 -117q0 -57 -92 -325l-84 -242q-53 -164 -86 -287q-26 -122 -26 -174q0 -61 30 -104 q33 -39 82 -39q78 0 191 121q110 119 319 438l4 -24l2 -19q0 -18 -18 -49q-6 -10 -33 -49q-57 -82 -61 -88q-86 -123 -148 -197q-61 -74 -108 -109q-84 -70 -185 -70q-79 0 -137 62q-59 60 -59 156q0 127 110 457l37 108l25 72q108 330 108 395q0 29 -18 51q-23 19 -53 19 q-76 0 -205 -143q-121 -138 -299 -433q-45 -75 -94 -161q-39 -72 -76 -142q-62 -127 -98 -235l-17 -56q-24 -86 -65 -92l-74 -10l-12 8q-4 6 -4 21l223 862l20 98l8 78q0 135 -94 209q-94 72 -270 72q-213 0 -346 -86q-134 -88 -134 -230q0 -102 83 -166q80 -65 217 -65 q59 0 128.5 16.5t143.5 48.5l14 -4l7 -12l-7 -16q-26 -15 -67 -31q-43 -19 -84 -29q-76 -20 -166 -20q-164 0 -266 80q-105 77 -105 202z" />
<glyph unicode="O" horiz-adv-x="1737" d="M68 787q0 145 144.5 240.5t377.5 95.5l55 -2l64 -4q139 145 282 221q144 75 289 75q137 0 217 -69q78 -72 78 -189l-2 -37l-4 -36q37 -39 55 -105q21 -59 21 -141q0 -103 -37 -215q-37 -115 -107.5 -230.5t-167.5 -207.5q-88 -84 -194 -142q20 -12 53 -18l62 -6 q141 0 282 111q74 57 166 155q90 96 193 231l4 -8l2 -12q0 -25 -25 -66q-28 -41 -106 -131q-80 -92 -146.5 -151t-130.5 -98q-114 -70 -246 -70q-32 0 -53 4q-20 4 -37 8l-32 8q-17 5 -41 17q-15 -6 -52 -17q-36 -12 -63 -16q-29 -6 -47 -6q-21 -2 -33 -2q-194 0 -328 127 q-67 66 -102 147q-36 80 -36 175v5q-174 62 -265 154q-45 47 -67.5 96t-22.5 109zM166 768q0 -98 63.5 -168.5t192.5 -120.5q19 156 84 312q66 153 168 280l-84 4q-194 0 -309 -84q-115 -83 -115 -223zM551 369q0 -164 96 -260q97 -96 254 -96l68 6q16 4 31 8q12 2 37 14 q-103 60 -154 152q-53 92 -53 215l-70 -10l-98 -2l-62 2l-47 6l-2 -19v-16zM557 447l66 -13l57 -4l72 4q14 0 34.5 4.5t45.5 10.5q16 119 61 227q43 107 111 197q94 135 196 209q101 71 197 71q37 0 68 -9q18 -5 36 -15q19 -12 31 -18l2 14l2 30q0 92 -71 154 q-72 59 -185 59q-116 0 -223 -65q-106 -66 -209 -199l72 -18l41 -15l8 -10l-6 -14l-10 -2l-15 2l-114 16q-103 -141 -168 -293q-68 -153 -99 -323zM940 332q0 -92 39 -162q37 -69 109 -110q73 32 149 102q76 68 135 154q105 151 158 311q53 158 53 305l-6 57q-6 27 -20 50 q-74 -213 -226 -363q-153 -149 -380 -233l-9 -60zM957 490q209 73 358 229q150 156 207 352q-19 23 -41.5 30.5t-60.5 11.5q-109 0 -246 -179q-137 -178 -217 -444z" />
<glyph unicode="P" horiz-adv-x="1637" d="M152 936q0 55 25 113q24 55 76 110q97 109 267 166q168 58 390 58q135 0 243 -15q109 -16 213 -51l29 16l39 19l16 -4l15 -8l-2 -13l-21 -16l-16 -16q141 -66 215 -164q71 -101 71 -223q0 -222 -176 -367q-92 -76 -203 -113q-112 -39 -258 -39q-88 -217 -217 -323 q-131 -109 -303 -109q-116 0 -202 58q-86 55 -86 127q0 65 71 104q72 39 189 39h32l23 -2l6 -8v-15l-8 -8q-49 0 -84 -8q-37 -10 -70 -29q-51 -32 -51 -88q0 -55 55 -94q54 -41 138 -41q122 0 206 90t166 316l-71 12l-72 16l-6 8l6 19l10 6l80 -14l72 -4l26 71l23 72 l-131 -16l-121 -5q-272 0 -438 102.5t-166 270.5zM283 938q0 -151 135 -239q133 -88 360 -88l119 6l125 18q21 68 41 135q33 105 53 158q13 33 29 76q16 41 27 59l-78 12l-76 5q-110 0 -211 -21q-47 -10 -100 -27q-53 -16 -103 -38l-16 4l-4 18l8 12q92 41 209 70 q113 23 227 23l72 -5l94 -10q10 19 25 39q12 19 28 41l74 88q-78 33 -153.5 44.5t-126.5 15.5q-54 4 -123 4q-275 0 -455 -115t-180 -285zM1096 434q225 0 369 129q143 127 143 328q0 115 -57 207q-58 90 -166 152q-35 -41 -58 -84l-39 -95q82 -34 125 -88q41 -55 41 -118 q0 -84 -73 -148q-76 -65 -226 -102l-32 -101zM1170 670q90 20 149 82q58 59 58 133q0 51 -25 86q-27 33 -78 57l-37 -129z" />
<glyph unicode="Q" horiz-adv-x="1839" d="M154 897q0 127 135 199q133 72 381 72h51q25 0 62 -4l133 -14q145 129 278 196q133 65 246 65q109 0 166 -51q59 -47 59 -139l-4 -49l-20 -60q80 -35 127 -116q44 -84 44 -191q0 -172 -98 -348q-100 -178 -282 -330q67 -123 123 -262q22 -56 45 -113q16 -43 22 -49 q33 -64 62 -103q28 -41 55 -65q49 -43 115 -43q30 0 65 14q33 12 90 47h13l8 -14l-2 -10q-23 -21 -49 -35q-29 -16 -54 -27q-26 -10 -53 -16t-57 -6q-103 0 -180.5 72.5t-157.5 256.5l-27 64q-26 65 -55 129q-29 62 -47 95q-70 -39 -139 -61q-76 -21 -136 -21 q-198 0 -323 139q-127 139 -127 367l2 67l6 64q-111 0 -197 21.5t-155 62.5q-125 73 -125 196zM256 901q0 -104 109 -172q106 -67 276 -67q33 121 94 235q29 54 66 107t84 106l-117 13l-92 4q-188 0 -303 -64q-117 -65 -117 -162zM756 422q0 -182 90 -293q90 -110 238 -110 q63 0 118 20q27 10 57.5 26.5t57.5 39.5q-27 39 -59 61q-33 19 -66 19q-35 0 -76 -23q-36 -27 -65 -70l-8 -8l-19 -4l-12 4q-25 29 -43 96q-6 31 -10 74q-4 41 -4 90q0 76 18 160q12 55 23 86q8 31 30 82l-137 -31l-108 -14l-19 -109zM795 668l129 18q70 13 125 33 q100 193 231 301.5t264 108.5l54 -4l20 53q4 16 4 43q0 65 -43 106t-125 41q-194 0 -364 -182q-172 -182 -295 -518zM1016 236l4 -60l12 -51q45 68 93 98q45 31 102 31q45 0 88 -24q41 -19 84 -64q143 150 225 341.5t82 354.5q0 91 -22.5 140t-65.5 69q-92 -135 -207 -221 q-114 -86 -276 -149q-31 -68 -49 -125q-21 -58 -39 -127q-31 -121 -31 -213zM1159 756q119 39 227.5 127t184.5 201l-10 2h-21q-94 0 -194 -84q-92 -84 -187 -246z" />
<glyph unicode="R" horiz-adv-x="2079" d="M97 1030q0 164 159 269q160 104 422 104t434 -98t197 -258q82 71 158 127q73 55 135 90q61 33 119 51q55 18 102 18q84 0 131 -47q49 -43 49 -122q0 -125 -123 -269q-125 -143 -360 -299q49 -47 90 -121q39 -73 78 -202l14 -52q51 -180 123 -180q57 0 176 131 q117 129 277 367l2 -23l2 -16q0 -23 -17 -47q-12 -25 -73 -109q-164 -215 -250 -289q-88 -74 -160 -74q-123 0 -207 253l-12 37q-33 96 -37 104q-16 43 -33 82q-35 74 -53 94l-57 -20l-146 -47l-4 8l27 65q12 31 57 54q43 20 92 20l33 -4l39 -6q184 108 291 239 q106 129 106 238q0 59 -43 100q-45 41 -112 41q-72 0 -172 -59q-103 -59 -238 -186q0 -54 -14.5 -123.5t-44.5 -153.5q-64 -178 -170 -373q-58 -112 -133 -213q-78 -102 -148 -164h-10q-10 10 -17 37q-6 25 -6 84q0 209 111 437q110 225 311 430q-24 188 -162 297 q-137 106 -362 106q-197 0 -322 -88q-127 -90 -127 -223q0 -117 84 -187q84 -69 224 -69q51 0 110 11q60 10 125 28q115 32 277 118l14 -2l6 -12l-4 -16q-76 -45 -143.5 -76t-153.5 -57q-147 -43 -289 -43q-172 0 -272 78.5t-100 209.5zM889 254l2 -63l10 -51 q125 151 199 339q39 101 64 205q24 105 24 207q-143 -133 -221 -299t-78 -338z" />
<glyph unicode="S" horiz-adv-x="1342" d="M223 213q0 127 143.5 196.5t414.5 69.5h45l10 -8l2 -18l-10 -12q-226 0 -340 -62q-115 -61 -115 -184q0 -82 74 -129q71 -49 190 -49q193 0 324 102t131 248q0 33 -6 61q-6 29 -24 62q-27 59 -90 123l-170 172q-68 67 -107 141t-39 139q0 144 145 248t356 104 q125 0 195 -43q70 -45 70 -124q0 -84 -95 -142q-96 -57 -245 -57h-31l-39 2l-10 8v16l8 11q133 0 207 43q76 39 76 119q0 55 -48 88q-49 30 -131 30q-137 0 -233 -75q-98 -78 -98 -183q0 -55 33 -112q31 -60 102 -136l176 -180q62 -59 97 -131q32 -76 32 -141 q0 -70 -36 -141q-40 -72 -103 -129q-93 -80 -211 -123q-121 -43 -260 -43q-177 0 -283.5 64.5t-106.5 174.5z" />
<glyph unicode="T" horiz-adv-x="1710" d="M185 1110q0 135 94 219q92 84 246 84q49 0 71 -2q23 -4 68 -14q33 -4 96 -20q61 -17 160 -44q201 -55 323 -81q52 -11 103 -17q49 -6 86 -6q82 0 172 25q92 28 182 83h12l15 -14l-2 -16q-117 -82 -248 -123q-133 -43 -297 -43q-152 0 -397 63l-43 13l-131 33 q-220 58 -275 58q-82 0 -135 -54q-53 -56 -53 -144q0 -131 131 -207.5t352 -76.5l74 2l92 8l22 35q76 123 131 151l177 92l2 -8l-78 -102l-105 -146q78 11 150 27q37 8 80 19.5t73 21.5l9 -4l8 -23l-8 -12q-60 -25 -150 -43q-92 -23 -194 -37q-84 -143 -127 -278 q-45 -138 -45 -250q0 -137 72.5 -223.5t195.5 -86.5q82 0 160 41q75 41 143 123q27 31 46 64q18 31 34 74q29 75 29 147q0 64 -29 100q-29 37 -78 37q-88 0 -184 -86q-86 -78 -144 -219l-10 -6l-16 2l-8 12q47 146 149 240q102 92 209 92q82 0 135 -53q51 -55 51 -152 q0 -90 -55 -188q-25 -45 -61 -88q-39 -43 -88 -82q-52 -40 -132 -71q-79 -26 -149 -26q-168 0 -277 119q-108 119 -108 301q0 107 39 224q37 115 104 217l-76 -4l-65 -2q-244 0 -385 90q-143 88 -143 235z" />
<glyph unicode="U" horiz-adv-x="2132" d="M166 1121q0 139 125 225q123 84 334 84q65 0 127 -6q59 -8 131 -27q123 -31 227 -92q90 -55 137 -127q48 -72 48 -154q0 -37 -11 -86q-10 -49 -24 -96q-21 -53 -29 -82l-156 -469l-22 -78l-6 -69q0 -43 39 -74t92 -31q104 0 235 111q129 108 287 336q88 340 191 563 q102 221 204 315l13 -2l4 -20l2 -19q0 -129 -74 -327.5t-203 -395.5l-57 -254q-18 -98 -18 -163q0 -74 23.5 -115t66.5 -41q59 0 170 117q108 114 299 376l6 -12l2 -12q0 -41 -113 -184l-6 -9q-65 -84 -127.5 -151.5t-105.5 -106.5q-95 -78 -164 -78q-78 0 -119 60 q-41 57 -41 162l6 84q2 24 6 51q4 24 13 59q-154 -205 -293 -305q-142 -103 -283 -103q-80 0 -137 48q-51 47 -51 121q0 24 10 75q8 52 31 117l168 524l28 107q2 20 6 41q2 18 2 43q0 143 -122.5 231t-333.5 88q-197 0 -305 -73q-112 -74 -112 -203q0 -127 120 -203 q63 -39 143 -59q78 -21 178 -21l51 2l58 4l8 -6l2 -14l-6 -14l-64 -9l-81 -2q-236 0 -381 99q-148 96 -148 250z" />
<glyph unicode="V" horiz-adv-x="1729" d="M148 1069q0 150 141 240q141 88 387 88q309 0 457 -111q147 -110 147 -344l-2 -100l-6 -86l-35 -352l-14 -123l-23 -184q287 290 424 571q138 278 138 582v40v27l135 113l14 -4l4 -21l2 -22q0 -35 -8 -84l-23 -113q-14 -59 -30 -115q-27 -94 -62 -176q-47 -125 -127 -260 q-112 -199 -264 -381q-67 -82 -151 -166q-86 -86 -170 -160l-17 14l82 953l4 68l2 55q0 166 -112 252q-115 84 -336 84q-201 0 -320 -80q-121 -80 -121 -219q0 -123 113 -195q111 -73 301 -73l62 4l81 8l11 -4l4 -23l-6 -12l-86 -12l-95 -4q-235 0 -368 88t-133 237z" />
<glyph unicode="W" horiz-adv-x="2116" d="M183 1088q0 141 113.5 221t312.5 80q237 0 352 -84q112 -84 112 -252q0 -86 -43 -393q-22 -172 -36 -303q-15 -134 -15 -226q74 80 147.5 180.5t143.5 221.5q139 239 250 532l2 49q0 131 29 144l90 26l12 2l12 -6l2 -22q0 -8 -2 -37t-8 -70q-49 -368 -49 -702l6 -199 q2 -29 6 -63.5t17 -79.5q112 127 194 256q80 127 141 274q115 279 115 549l-2 53l-2 39q0 25 25 39l10 6l80 56l8 4l8 2q4 -2 10 -6q7 -7 13 -17q4 -10 4 -41q0 -108 -49.5 -282t-137.5 -355q-61 -127 -112 -219q-53 -92 -125 -196q-64 -93 -123 -166q-61 -74 -133 -146 l-17 2q-12 37 -22 86t-19 113q-14 108 -14 264q0 43 2 129t2 127q0 57 6 146q4 88 4 100q-139 -334 -299 -576q-83 -127 -165 -217q-82 -92 -179 -170l-8 8l-10 39l-2 31q0 92 12 232q13 137 35 307q47 352 47 483q0 143 -69 213q-72 70 -218 70q-151 0 -251 -80 q-103 -82 -103 -199q0 -104 80 -166q80 -61 213 -61h41l47 6l10 -6l2 -21l-8 -10l-51 -8l-55 -4q-183 0 -285 80q-104 78 -104 213z" />
<glyph unicode="X" horiz-adv-x="2120" d="M156 1047q0 149 148.5 245.5t390.5 96.5q319 0 503 -162q182 -164 182 -442q0 -125 -43 -252t-124 -246q-111 -158 -248 -240q-70 -39 -139 -60q-72 -20 -152 -20q-78 0 -156 20q-24 7 -51.5 18.5t-68.5 37.5l-2 17l8 14l12 2q61 -29 125 -49q31 -6 61 -10q31 -4 60 -4 q96 0 182 39q86 37 156 108q104 104 174 283q67 178 67 346q0 254 -149 405q-152 152 -397 152q-183 0 -299 -84q-119 -84 -119 -209q0 -102 80 -166q77 -63 206 -63q80 0 179 27q47 11 104 31.5t115 47.5l16 -6l4 -14l-2 -17q-123 -61 -235 -92q-115 -33 -228 -33 q-166 0 -262 78q-98 76 -98 201zM1376 424q0 160 49 330q47 170 144 332q94 159 221 261.5t232 102.5q79 0 133 -57q50 -57 50 -146q0 -118 -104 -262q-106 -145 -305 -299h-12l-12 13l2 14q149 145 239 309q88 162 88 277q0 45 -22 73q-23 29 -59 29q-66 0 -134 -47 q-67 -47 -131 -135q-24 -33 -49 -78q-16 -29 -45 -90q-31 -64 -45 -100q-16 -39 -37.5 -103.5t-38.5 -130.5q-16 -68 -26 -127q-21 -111 -21 -215q0 -164 72 -256q70 -92 192 -92q119 0 240 109q119 106 350 440l6 -13l2 -14q0 -37 -75 -139l-27 -39q-84 -113 -158 -195 q-73 -82 -129 -123q-114 -86 -233 -86q-162 0 -258 125q-99 123 -99 332z" />
<glyph unicode="Y" horiz-adv-x="2130" d="M185 1063q0 148 139 232q139 82 377 82q252 0 411 -107q158 -106 158 -266v-25q-6 -31 -8 -47q-12 -57 -15 -70q-4 -12 -20 -61l-117 -375q-12 -35 -22 -76q-13 -41 -17 -59l-10 -94q0 -55 25 -90q28 -31 73 -31q93 0 228 152q67 77 141 186q72 108 152 248l180 334 q33 59 45 86q22 45 51 108l10 23q25 55 52 61l94 21h8q10 -2 12 -5l6 -16l-2 -8l-159 -715q-134 -607 -293.5 -852.5t-419.5 -282.5l-10 6l-11 33l-4 41q0 84 51 170q52 84 150 154h14l13 -13l-2 -12q-62 -49 -93 -109q-30 -53 -30 -118l2 -43l10 -39q147 37 242 196 q92 158 166 523l176 844q-320 -606 -496 -822q-176 -215 -326 -215q-88 0 -141 56q-53 53 -53 153q0 33 8 74q6 39 25 92l154 490l16 78l8 71q0 138 -115 221q-117 84 -301 84q-172 0 -291 -79q-121 -80 -121 -193q0 -98 93 -164q92 -65 235 -65l88 6q19 2 45 10q27 6 41 10 l17 -2l2 -18l-2 -15q-56 -20 -117 -32q-64 -13 -129 -13q-176 0 -285 78q-108 78 -108 209z" />
<glyph unicode="Z" horiz-adv-x="1899" d="M215 -2q49 238 183 377q131 139 307 139q22 0 47 -2q22 -2 53 -8q31 -8 92 -35q142 158 307 387q95 134 168 247q86 133 172 276l-178 -121h-71q-93 0 -144 2q-252 11 -270 11l-270 12q-158 0 -234 -56q-78 -57 -78 -176q0 -105 70 -170q67 -68 174 -68q70 0 143 33 q72 27 160 92l16 4l11 -16l-2 -14q-84 -66 -170 -101q-88 -37 -166 -37q-129 0 -209 80q-80 78 -80 207q0 162 125 256t350 94l242 -12l293 -10q147 0 237 24q90 29 133 84l13 2l20 -8l2 -12q-74 -131 -155 -262q-84 -131 -181 -266q-182 -261 -389 -506q84 -56 234 -189 l26 -26q275 -246 387 -246q68 0 111 43t43 115q0 120 -107.5 210.5t-302.5 122.5l-8 15l4 14l13 8q233 -30 356 -116.5t123 -217.5q0 -108 -82 -180q-82 -74 -203 -74q-160 0 -536 304l-158 125q-170 -148 -320 -238q-65 -43 -141 -79q-78 -38 -133 -56h-10l-15 5zM338 72 q66 27 119 55q53 29 115 72q106 72 223 182q-37 25 -72 37q-37 10 -92 10q-137 0 -217 -92q-76 -98 -76 -264z" />
<glyph unicode="[" horiz-adv-x="690" d="M16 -475l650 1919l10 6h299l4 -10l-12 -33l-12 -6h-179l-625 -1837h181l6 -13l-14 -31l-12 -8h-296v13z" />
<glyph unicode="\" horiz-adv-x="553" d="M324 1385l12 8h53l7 -10l47 -1559l-13 -11h-88l-2 11z" />
<glyph unicode="]" horiz-adv-x="690" d="M-133 -475l10 30l10 9h181l627 1835h-182l-6 12l13 31l13 8h293l2 -10l-650 -1920l-8 -10h-299z" />
<glyph unicode="^" horiz-adv-x="1987" d="M399 879l513 555h161l510 -555h-86l-506 442l-507 -442h-85z" />
<glyph unicode="_" horiz-adv-x="994" d="M0 -375h994v-98h-994v98z" />
<glyph unicode="`" horiz-adv-x="994" d="M463 991q0 15 14 33q19 15 37 15q15 0 27 -9q12 -8 33 -45l116 -221h-55l-143 170q-13 10 -23 31z" />
<glyph unicode="a" horiz-adv-x="815" d="M-13 197q0 88 54 186q51 99 146 187q61 57 139 90q76 30 153 30q50 0 77.5 -6t52 -14t45.5 -16l10 -15q0 -28 -25 -102l-18 -64l-90 -307l-2 -6l-11 -66q0 -12 13 -26q10 -15 24 -15q47 0 142 109q41 47 116 145q74 99 166 232l2 -14l2 -13q0 -33 -61 -119l-10 -14 l-13 -14q-280 -382 -395 -382q-45 0 -72 25t-27 74q0 29 15 80q12 55 20 82q16 41 23 63q-50 -88 -91 -147q-42 -61 -79 -100q-76 -77 -141 -77q-76 0 -119 58q-46 53 -46 156zM114 137q0 -36 19 -61q17 -27 43 -27q70 0 174 152q105 152 209 414q-4 6 -14 12q-10 4 -29 12 q-18 6 -47 6q-49 0 -96 -39q-53 -38 -109 -116q-74 -103 -111 -195q-39 -92 -39 -158z" />
<glyph unicode="b" horiz-adv-x="838" d="M111 254q0 148 72 361q69 213 200 450q60 109 129 201q35 43 64 72q26 28 55 51l12 -2q11 -15 17 -39l4 -62q0 -249 -92 -471q-94 -223 -328 -516l-2 -28l-2 -33q0 -96 30.5 -144.5t84.5 -48.5q38 0 90 41q51 39 88 103q-14 26 -20 57l-8 74q0 94 36 192q37 97 92 152h8 q15 -19 23 -49l6 -58q0 -108 -20 -196q-23 -90 -68 -170l24 -37q17 -12 37 -12q52 0 129 88q76 86 228 315l6 -16l2 -15q0 -14 -14 -43q-14 -28 -43 -73l-6 -11q-111 -161 -177.5 -227t-124.5 -66q-24 0 -47.5 12.5t-42.5 33.5q-55 -76 -117.5 -117.5t-126.5 -41.5 q-92 0 -145 75q-53 73 -53 198zM251 387q155 187 229 355q35 79 55 168q21 88 21 172l-7 69l-12 66q-84 -109 -160.5 -330t-125.5 -500z" />
<glyph unicode="c" horiz-adv-x="707" d="M17 226q0 69 33 155q35 80 94 148q69 80 149 125q78 43 154 43q73 0 116 -37q46 -33 46 -97q0 -49 -37 -84q-39 -34 -88 -34l-37 6q-15 8 -23 20q33 21 53 51q21 29 21 56q0 33 -16 53q-17 21 -50 23q-34 0 -71 -25t-70 -68q-57 -69 -94 -170.5t-37 -181.5q0 -84 39 -129 t117 -45q123 0 272 135q150 133 297 375v-10l2 -17q0 -26 -12 -53q-15 -29 -54 -90q-131 -190 -276 -295t-283 -105q-102 0 -176 70q-69 74 -69 181z" />
<glyph unicode="d" horiz-adv-x="807" d="M-10 187q0 88 41 180q39 90 121 176q65 66 141 106q33 19 74 29q39 10 69 10l50 -6l57 -20l143 563q11 41 35 43l76 12l16 -6q6 -10 6 -14l-2 -13l-2 -8l-282 -1061l-15 -51l-2 -26q0 -29 11 -41q8 -15 24 -15q37 0 121 97q82 96 295 393l2 -13l2 -12q0 -45 -102 -184 l-17 -25q-137 -188 -213 -254q-78 -66 -141 -66q-41 0 -68 27q-28 25 -28 66q0 14 2 36.5t12 63.5q8 39 10 49q13 35 19 52q-82 -152 -152 -222q-72 -72 -135 -72q-76 0 -121 58q-47 55 -47 148zM116 140q0 -46 19 -70q17 -25 52 -25q69 0 168 156q47 72 90 174 q43 100 82 221q-17 23 -33 35q-19 10 -43 10q-37 0 -74 -28q-16 -11 -31 -25q-16 -16 -55 -61q-76 -91 -125 -199q-50 -111 -50 -188z" />
<glyph unicode="e" horiz-adv-x="703" d="M23 226q0 81 35 163q34 80 98 158q55 68 133 111q78 39 141 39q72 0 119 -39q45 -41 45 -101q0 -98 -121 -194q-120 -99 -317 -160q0 -80 39 -125t108 -45q125 0 277 135q149 133 295 381l4 -10l2 -14q0 -27 -23 -72q-8 -19 -24 -45q-6 -12 -39 -60q-66 -90 -131 -157 q-68 -70 -139 -118q-140 -98 -271 -98q-104 0 -170 68q-61 68 -61 183zM156 250q139 31 231 125q90 92 90 197q0 34 -16 57q-20 20 -49 20q-78 0 -154 -116q-78 -117 -102 -283z" />
<glyph unicode="f" horiz-adv-x="578" d="M-37 238l4 8l6 12l29 39l8 8l7 4l12 -2l10 -6l55 -32q56 247 103 415q45 168 100 320q56 151 107 252q49 98 96 147q25 -18 35 -82q12 -55 12 -139q0 -201 -76 -389q-78 -189 -227 -346q-4 -39 -8 -62.5t-10 -56.5q-9 -33 -13 -57q-6 -25 -22 -66q39 -29 72.5 -39 t76.5 -10t82 16q37 17 80 56q76 69 254 340l2 -17l2 -10q0 -43 -65 -137l-19 -25q-139 -188 -215 -239q-76 -54 -166 -54q-43 0 -76 11q-32 10 -61 30q35 -110 47 -174q12 -66 12 -125q0 -137 -51 -242q-51 -104 -143 -166l-10 2q-11 13 -21 68q-7 53 -7 145q0 43 6.5 102.5 t16.5 122.5q11 64 27 144q16 78 39 158q-61 31 -87 49q-24 12 -24 27zM33 -430v-27l2 -12q31 22 59 59q27 35 46 72q34 80 34 176l-6 90l-24 95q-25 -64 -47 -132q-15 -43 -37 -121q-27 -129 -27 -200zM269 541q94 100 147 227q53 125 53 256v27q0 39 -6 76l-27 100 q-36 -90 -83 -319q-17 -80 -33 -160q-25 -109 -51 -207z" />
<glyph unicode="g" horiz-adv-x="819" d="M-15 199q0 88 43 178q42 88 122 164t161.5 112.5t174.5 36.5q88 0 133 -14q45 -16 45 -43l-12 -59l-56 -197l-115 -398q92 66 221 212q144 159 281 354l2 -6l2 -23q0 -16 -12 -45l-57 -84q-74 -96 -131 -164q-49 -59 -117 -131q-105 -109 -203 -174q-43 -193 -133 -314 q-90 -120 -242 -184l-10 2l-10 27l-5 37q0 125 68 227q65 100 223 203q0 43 12 94q13 50 17 70q14 49 33 109q18 57 45 127q-47 -86 -86 -142.5t-82 -99.5q-82 -78 -153 -78q-66 0 -111 55q-48 54 -48 148zM112 154q0 -43 19 -66q17 -22 45 -22q72 0 172 145q50 70 101 170 q51 98 106 232q-12 14 -30 24q-21 8 -52 8q-41 0 -86 -28q-45 -31 -104 -103q-80 -96 -126 -190q-45 -96 -45 -170zM159 -432l5 -41l4 -17q74 39 125 127q23 43 39 97q14 53 26 129q-106 -66 -151 -134q-48 -69 -48 -161z" />
<glyph unicode="h" horiz-adv-x="905" d="M16 13l2 12l6 18l113 422q47 180 103 332q53 149 117 280q125 248 239 316l8 -2q21 -27 33 -64q6 -22 8 -37.5t2 -46.5q0 -141 -94 -323t-264 -365l-84 -307q81 123 145 205q62 80 111 131q96 98 170 98q47 0 80 -33q16 -16 24 -34q9 -19 9 -47q0 -19 -13 -60 q-4 -22 -12 -47q-8 -27 -22 -63l-66 -199l-16 -53l-4 -43q0 -15 12 -27q16 -8 26 -8q50 0 160 121q111 120 262 346l2 -15l2 -16q0 -25 -32.5 -80t-112.5 -153q-137 -168 -205 -228q-76 -60 -129 -60q-47 0 -82 36q-29 34 -29 90q0 47 53 200l17 46l10 30q54 164 54 183 q0 16 -10 28q-11 13 -25 13q-43 0 -115 -78q-78 -86 -172 -226q-28 -41 -55 -90q-29 -49 -55 -100q-47 -98 -70 -105l-74 -16l-8 -2l-14 6zM311 645q117 123 172 246q29 64 43 123t14 127l-5 68q-2 26 -17 51q-53 -62 -100 -199q-50 -139 -107 -416z" />
<glyph unicode="i" horiz-adv-x="492" d="M37 111l6 53l21 76l127 395l16 25l23 10l71 14h8l11 -4l4 -10v-8l-137 -426l-23 -84l-8 -47q0 -25 12 -41q12 -19 37 -19q59 0 172 123q111 123 285 383l2 -16l2 -10q0 -46 -88 -166l-20 -29q-134 -182 -230 -262.5t-176 -80.5q-53 0 -84 34q-31 32 -31 90zM248 916 q0 12 23 57q10 18 20 31l10 10q8 0 33 -14l29 -19l15 -8q24 -10 28 -29q0 -51 -8 -69q-11 -21 -33 -21q-19 0 -39.5 5.5t-38.5 15.5q-39 20 -39 41z" />
<glyph unicode="j" horiz-adv-x="484" d="M-73 -432q0 141 28 262q33 114 85 176l12 117l32 131l103 385q6 25 14 29q4 6 18 10l80 14l21 -4l4 -12l-2 -12l-215 -738q92 59 234 216q138 153 323 399l4 -25q0 -28 -20 -61q-21 -35 -90 -119q-154 -194 -262 -303q-56 -54 -107 -97q-54 -43 -99 -71l-18 -68 q-99 -340 -115 -367l-6 2q-13 21 -19 56q-5 35 -5 80zM263 916q0 18 22 57q10 18 20 31q4 4 11 10q8 0 30 -14l34 -21l12 -6q24 -10 29 -29q0 -47 -9 -67q-10 -23 -33 -23q-20 0 -39 6q-18 5 -39 15q-38 20 -38 41z" />
<glyph unicode="k" horiz-adv-x="910" d="M10 4v9l5 12l176 637q82 291 187.5 481t213.5 254l10 -2q23 -18 31 -53q11 -27 11 -88q0 -140 -90 -322q-93 -184 -265 -375l-84 -313q137 221 250 330q121 114 215 114q55 0 92 -32q35 -35 35 -84q0 -66 -73 -136q-77 -69 -232 -143q14 -53 33 -94q16 -41 36 -72 q41 -53 84 -53q54 0 156 109q100 108 274 364l2 -10l3 -19q0 -12 -14 -49q-13 -24 -68 -102q-146 -207 -238 -291q-92 -86 -162 -86q-37 0 -71 23q-21 16 -35 32q-15 17 -35 49q-31 50 -51 97q-21 45 -25 73q0 21 49 43l17 9q125 57 176 106q49 47 49 103q0 32 -23 51 q-18 20 -55 20q-59 0 -145 -88t-195 -260q-12 -18 -28.5 -49t-24.5 -47q-10 -19 -27 -55q-16 -37 -22 -54.5t-15 -23.5q-8 -9 -34 -15l-66 -17l-10 -2l-12 7zM312 654q114 120 174 239q57 119 57 225q0 48 -8 82q0 17 -2 29t-17 45q-82 -76 -190 -563z" />
<glyph unicode="l" horiz-adv-x="627" d="M108 223q0 54 4 78q2 23 13 84l51 250q14 64 33 121q17 55 39 115q35 102 102 243q56 113 103 183q47 67 90 98l12 2q17 -14 27 -49q8 -35 8 -98q0 -207 -84 -426q-86 -220 -250 -428l-15 -95l-4 -75q0 -89 23 -129q23 -44 74 -44q70 0 174 113q53 55 127 154 q72 98 160 231l4 -18l2 -19q0 -20 -29 -65q-8 -17 -43 -66q-22 -35 -34 -53q-64 -88 -119 -154q-58 -67 -109 -112q-98 -87 -178 -87q-84 0 -131 66q-50 66 -50 180zM266 475q106 144 162 285t56 277l-7 84l-12 100q-76 -148 -125 -336q-51 -190 -74 -410z" />
<glyph unicode="m" horiz-adv-x="1295" d="M0 4v15l4 12l181 602l10 21l18 10l82 16q19 -2 21 -4l4 -12l-2 -10l-123 -408q65 117 125 205q57 88 100 137q88 100 170 100q49 0 78 -26q27 -21 27 -68q0 -31 -19 -117q-20 -88 -70 -237q138 229 240 338q102 106 178 106q45 0 74 -30q27 -31 27 -84q0 -56 -47 -179 l-45 -133l-27 -92l-8 -55q0 -25 12 -35t31 -10q45 0 133 96q45 49 114 143q70 93 172 238l3 -16l2 -13q0 -45 -92 -168l-8 -12q-177 -233 -247 -291q-69 -60 -141 -60q-45 0 -78 34q-28 32 -28 77q0 64 55 230l11 33l37 104q32 94 32 111q0 16 -12.5 27.5t-28.5 11.5 q-39 0 -125 -99q-43 -53 -84 -114q-43 -64 -102 -160q-11 -17 -37 -68q-29 -53 -41 -82q-39 -82 -64 -88l-69 -13l-19 5l-4 6v15l4 14l131 481l2 8q11 41 11 62q0 18 -7 26q-6 7 -26 11q-43 0 -117 -93q-76 -92 -172 -262q-20 -34 -43 -77q-23 -46 -41 -86q-43 -89 -55 -93 l-88 -17l-17 5z" />
<glyph unicode="n" horiz-adv-x="899" d="M0 8v15l4 12l176 580q9 30 21 39q8 12 25 14l69 16l12 2l13 -4l4 -12v-8l-137 -441q151 238 259.5 352.5t184.5 114.5q43 0 76 -32.5t33 -79.5q0 -25 -13 -68q-10 -49 -16 -72q-16 -38 -23 -59l-16 -43q-66 -190 -66 -229q0 -15 11 -23q10 -10 26 -10q47 0 145.5 110.5 t274.5 356.5l4 -12l2 -13q0 -39 -110 -186l-35 -45q-115 -156 -195 -225q-82 -73 -139 -73q-49 0 -84 38q-35 35 -35 88q0 35 58 203l32 98l37 117l11 47q0 12 -9 22q-10 8 -24 8q-35 0 -111 -79q-78 -82 -168 -209l-84 -127q-20 -37 -30 -58q-13 -22 -25 -53l-12 -29 q-17 -41 -47 -47l-72 -14h-10l-13 6q-4 8 -4 12z" />
<glyph unicode="o" horiz-adv-x="832" d="M13 228q0 88 35 159q32 78 102 154q67 74 147 117q82 39 156 39q96 0 159.5 -74t63.5 -182q0 -58 -18 -119q-11 -35 -23 -62q-12 -26 -37 -65q6 -21 20.5 -31t30.5 -10q43 0 113 78q68 77 244 325l4 -10l2 -12q0 -21 -18 -58l-68 -100q-125 -172 -199 -242 q-65 -61 -114 -61q-17 0 -35 8q-19 6 -41 29q-66 -70 -137 -105q-37 -16 -68 -25q-33 -8 -70 -8q-112 0 -180 70q-69 68 -69 185zM156 193q0 -84 32.5 -129t94.5 -45q49 0 102 41q31 24 56 53q22 27 53 74l-12 32l-3 41q0 58 23 125q12 33 31 64q16 30 41 65q-13 70 -45 107 q-35 35 -86 35q-21 0 -58 -15q-32 -18 -57 -43q-74 -67 -122 -184q-50 -119 -50 -221z" />
<glyph unicode="p" horiz-adv-x="869" d="M-62 -348q0 145 39 276q17 64 48 136q31 69 69 141l33 180q49 281 92 291l82 16l17 -6l4 -14v-8l-58 -234q107 148 185 207q76 60 149 60q74 0 117 -48q41 -49 41 -124q0 -107 -82 -213q-41 -52 -98 -97q-58 -47 -140 -90q19 -26 47.5 -41.5t67.5 -15.5q94 0 213 117 q117 116 285 380l4 -14l2 -12q0 -33 -23 -70q-8 -18 -30.5 -51t-61.5 -84q-147 -194 -245 -266q-99 -74 -195 -74q-78 0 -150 37q-65 37 -65 72q0 16 53 41l58 30q102 66 159.5 148t57.5 168q0 43 -25 73q-27 31 -68 31q-55 0 -129 -76q-36 -36 -73 -88q-39 -51 -78 -116 q-47 -209 -82 -349q-41 -166 -70 -262q-63 -219 -113 -291h-8q-14 41 -20 109zM-17 -328l2 -53l11 -45q25 45 45 170q19 123 37 332q-47 -76 -70 -181q-25 -104 -25 -223z" />
<glyph unicode="q" horiz-adv-x="801" d="M-19 201q0 80 33 154q31 77 99 153q80 88 168 137q88 45 182 45q51 0 75.5 -2t63.5 -14t39 -39q0 -16 -20 -86l-58 -199l-69 -231l24 -14l29 -4q59 0 150 94q88 92 266 354l6 -14l2 -19q0 -41 -94 -161l-6 -11q-74 -94 -123 -151q-51 -60 -82 -86q-62 -51 -115 -51l-29 2 l-16 4l-2 -23q0 -158 -76 -316q-75 -159 -223 -303l-8 2l-4 29l-3 35q0 100 47 266q39 147 187 523q-88 -152 -153 -215q-68 -66 -134 -66q-71 0 -112 57q-44 56 -44 150zM96 152q0 -41 21 -66q18 -24 51 -26q68 0 158 135q90 133 211 422q-21 16 -35 22q-16 4 -43 4t-43 -4 q-18 -4 -43 -18q-27 -17 -43 -31q-18 -14 -43 -41q-90 -102 -140.5 -211.5t-50.5 -185.5zM221 -488q108 90 174 235.5t66 295.5v10q-39 -76 -80 -156q-57 -114 -97 -198q-51 -123 -63 -187z" />
<glyph unicode="r" horiz-adv-x="641" d="M135 555q0 60 37 107q35 47 84 53l4 -6l-18 -41l-4 -25q0 -24 14 -37q14 -12 43 -12q25 0 37 4q12 2 45 13q45 10 154 53l8 -4q-31 -66 -92 -205q-64 -139 -90 -205q-39 -104 -39 -135q0 -21 16 -41q10 -14 37 -18q45 0 131 92q45 51 119 149q92 121 190 262l2 -14l2 -10 q0 -43 -88 -162l-20 -29q-168 -233 -244 -301q-76 -64 -143 -64q-58 0 -92 36q-37 32 -37 92q0 63 53 188q31 64 68 127q34 62 88 139q-31 -16 -60 -32q-28 -17 -49 -23q-51 -22 -80 -22q-35 0 -55.5 18t-20.5 53z" />
<glyph unicode="s" horiz-adv-x="715" d="M2 92q0 37 35 64q33 24 78 24l29 -4l26 -6q-14 -20 -26.5 -37.5t-12.5 -38.5q0 -28 29 -51q29 -18 78 -18q71 0 121 37q47 37 47 92q0 37 -19 65q-20 29 -102 93q-92 69 -119 104q-26 35 -26 76q0 80 88 141q86 62 208 62q72 0 107 -23t35 -68q0 -34 -41 -67 q-19 -15 -41 -21q-25 -8 -57 -12l-7 10q19 13 29 33q8 18 8 43q0 27 -22.5 43t-59.5 16q-59 0 -94 -28q-37 -29 -37 -70q0 -57 107 -133l57 -43q51 -39 75.5 -80t24.5 -82q0 -33 -12 -57q-12 -27 -45 -64q78 13 186 136q107 120 238 335l6 -8l2 -14q0 -16 -6 -35.5 t-22 -46.5q-23 -49 -80 -125q-107 -151 -201 -223q-96 -72 -203 -84q-24 -12 -45.5 -19.5t-58.5 -17.5q-39 -11 -82 -11q-88 0 -141 34q-54 30 -54 79z" />
<glyph unicode="t" horiz-adv-x="502" d="M45 107l11 73l32 125l82 289h-108l-4 12l8 29l10 8h113l82 260q4 15 6 21t8 14l22 13l72 14h8l11 -4l4 -8v-11l-2 -6l-82 -293h104l3 -8l-6 -33l-9 -8h-106l-117 -409l-13 -50l-4 -38q0 -21 13 -33q12 -15 34 -19q62 0 172 123q111 123 275 381l2 -12l2 -19 q0 -45 -90 -172l-4 -4q-68 -98 -123 -166q-58 -67 -107 -112q-94 -85 -168 -85q-57 0 -96 34q-35 34 -35 94z" />
<glyph unicode="u" horiz-adv-x="895" d="M18 90l6 50l21 71l138 420q10 33 34 37l82 16h8l13 -2l3 -12l-2 -12l-157 -469l-15 -49l-4 -39q0 -21 11 -29q6 -8 27 -12q43 0 151 118q107 119 231 314l54 106q28 66 57 72l76 16l16 -4l4 -12l-4 -16l-153 -461l-15 -49l-4 -39q0 -19 10 -29q11 -12 29 -16 q51 0 152 118q53 62 118 154q54 74 156 229l6 -14l2 -12q0 -41 -104 -193l-12 -18q-125 -172 -218 -256q-92 -87 -155 -87q-45 0 -76 34q-31 30 -31 86q0 34 24 114q23 84 75 219q-78 -118 -144 -202q-65 -86 -123 -146q-108 -105 -184 -105q-47 0 -74 29q-29 27 -29 80z " />
<glyph unicode="v" horiz-adv-x="836" d="M133 236l7 145l22 193l2 24q6 58 35 64l76 18l6 2l10 -6l6 -16l-22 -168q-23 -152 -23 -260q0 -95 21 -133q18 -41 63 -41q35 0 86 45t92 120l-8 54l-4 43q0 86 59 188q54 92 158 168l10 -4l7 -14l2 -17q0 -92 -45.5 -202.5t-124.5 -219.5q10 -36 29.5 -55.5t49.5 -23.5 q80 0 353 395l6 -13l2 -12q0 -24 -20 -57q-14 -33 -86 -127q-99 -135 -154 -180q-56 -49 -109 -49q-30 0 -53 16q-25 16 -51 61q-66 -96 -131 -145q-68 -52 -129 -52q-70 0 -105 66q-37 66 -37 193z" />
<glyph unicode="w" horiz-adv-x="1286" d="M55 119l6 55l17 74l105 393q4 17 10 21l18 6l82 12l6 2l13 -2l1 -8l-2 -10l-2 -8l-113 -408l-16 -70l-6 -51q0 -33 16.5 -49t41.5 -18q47 0 129 94q39 45 82 109.5t88 146.5q12 22 32 67q37 82 39 86q41 99 76 105l76 14l14 -2l2 -8v-12l-2 -15l-103 -354l-20 -86l-6 -74 q0 -37 17 -57q16 -23 49 -27q41 0 110 52q72 61 144 151v12l-6 76q0 105 38 197q43 92 111 145l8 -2q8 -8 17 -33q6 -24 6 -63q0 -76 -29 -156q-31 -80 -98 -182q0 -21 8 -39q6 -20 18 -35q23 -28 58 -28q26 0 61 22q33 23 72 64q80 86 225 313l2 -10l2 -17q0 -28 -18 -65 q-21 -37 -86 -129q-88 -123 -148 -172q-59 -49 -112 -49q-43 0 -72 26q-27 21 -47 74q-102 -113 -180 -166.5t-142 -53.5q-59 0 -92 42q-35 39 -35 110q0 27 12 86q4 21 19 84q14 64 24 107q-124 -217 -222 -320q-99 -105 -183 -105q-53 0 -84 38q-31 34 -31 100z" />
<glyph unicode="x" horiz-adv-x="865" d="M-86 -25q0 21 4 41.5t16 36.5q23 41 60 64l6 -4l-4 -23l-2 -16q0 -23 12 -35q13 -14 35 -14q23 0 41 16q25 17 53 56l140 176l-162 368l-2 11l2 10l12 6l74 12l6 2l14 -4l13 -16l118 -271l156 193q23 27 41 45q18 16 37 29q37 24 72 24q36 0 61 -28q23 -31 23 -70 q0 -37 -13 -72q-12 -37 -41 -76q-53 -73 -131 -116l-6 8q49 55 78 108q27 58 27 99q0 20 -17 37q-12 16 -39 16q-20 0 -55 -29q-35 -28 -96 -108l-74 -98l72 -158q18 -35 32 -60q15 -24 29 -41q33 -28 70 -28q63 0 159 98q43 45 119 143q76 99 170 234l4 -10v-17 q0 -45 -96 -172l-10 -12q-146 -193 -234 -270q-88 -79 -153 -79q-70 0 -123 58q-53 55 -115 195l-160 -201q-24 -33 -49 -58q-24 -26 -45 -43q-39 -29 -68 -29q-20 0 -45 21q-16 18 -16 51z" />
<glyph unicode="y" horiz-adv-x="895" d="M33 117l6 47q4 14 6 31q2 14 13 41l129 403q2 13 14 21l25 8l75 10l15 -2l4 -8l-2 -6l-2 -8l-142 -459l-10 -43l-2 -41q0 -12 10 -25q11 -12 29 -12q55 0 137 88q80 86 184 252q46 68 91 164q18 41 39 65q18 25 26 27l82 10l12 -2l4 -8l-24 -78q-57 -149 -105 -301 q-47 -154 -90 -328q49 41 107 101q57 57 121 127q120 141 272 346l4 -12l2 -13q0 -26 -18.5 -57t-98.5 -131q-79 -103 -133 -164q-53 -61 -104 -117q-92 -92 -168 -148q-49 -190 -141 -311q-95 -123 -230 -172l-10 2l-12 39l-2 45q0 111 72.5 218.5t222.5 213.5q2 25 10 62 q6 35 18 82q21 82 43 166q33 98 49 156q-118 -195 -227 -295q-108 -101 -201 -101q-43 0 -73 33q-27 33 -27 84zM234 -430l2 -35l10 -39q76 39 125 137q47 96 65 240q-108 -76 -155 -150q-47 -73 -47 -153z" />
<glyph unicode="z" horiz-adv-x="707" d="M0 0l4 8l64 125q6 15 14 21q6 6 19 6l10 -2h8l341 371l-126 28l-57 6q-47 0 -70 -49q-27 -45 -41 -47l-24 4q-9 13 -9 17q0 14 13 43l16 43l6 24q25 90 82 90l123 -20l188 -29l4 6q39 52 66 52l16 -2l7 -9l-6 -18l-29 -33l-451 -491l29 -7q217 -53 250 -53q61 0 143 84 q80 82 275 371l6 -23l2 -16q0 -29 -135 -213l-8 -10q-68 -86 -117 -146q-52 -59 -88 -92q-80 -64 -144 -64q-24 0 -123 25l-172 33q-18 -31 -35 -41q-16 -11 -34 -11l-13 2l-4 7v10z" />
<glyph unicode="{" horiz-adv-x="994" d="M170 596v56q166 16 219 71q58 55 58 211v213q0 197 80 268q77 72 284 72h10v-50q-141 0 -194 -52q-53 -54 -53 -207v-141q0 -224 -62 -304q-61 -79 -225 -110q162 -31 225 -109q62 -80 62 -305v-141q0 -152 53 -205.5t194 -53.5v-49h-10q-205 0 -284.5 71.5t-79.5 269.5 v213q0 153 -58 211q-32 32 -86 53q-53 18 -133 18z" />
<glyph unicode="|" horiz-adv-x="994" d="M445 -473v2007h106v-2007h-106z" />
<glyph unicode="}" horiz-adv-x="994" d="M172 -191q144 0 197 53t53 205v142q0 223 60 303q63 80 225 111q-164 29 -223 108q-62 80 -62 305v141q0 152 -51 207q-53 53 -199 53v50h11q208 0 288 -72q78 -73 78 -268v-213q0 -80 12 -129q13 -51 43 -82q54 -55 220 -71v-56q-78 0 -132 -18q-55 -21 -88 -53 q-55 -60 -55 -211v-213q0 -195 -78 -268q-80 -73 -288 -73h-11v49z" />
<glyph unicode="~" horiz-adv-x="1655" d="M172 463v109q113 75 203 110q88 33 174 33q96 0 262 -59l19 -8l28 -10q166 -60 252 -60q80 0 170 37q94 43 205 120v-110q-98 -70 -192 -104q-95 -37 -183 -37q-92 0 -254 57l-28 10l-15 4q-170 63 -264 63q-80 0 -170 -37q-76 -30 -207 -118z" />
<glyph unicode="&#xa0;" />
<glyph unicode="&#xa1;" horiz-adv-x="662" d="M203 10l4 15l416 1007l8 9l21 -2l2 -13l-275 -995q-2 -14 -8 -21q-8 -8 -29 -12l-121 -6l-14 6zM593 1225q0 25 11 35q11 8 54 8q55 0 72.5 -8t19.5 -29q0 -49 -6 -76q-9 -28 -21 -28l-20 2l-80 16q-10 0 -23 25q-7 32 -7 55z" />
<glyph unicode="&#xa2;" d="M166 525q0 104 47 202q47 99 129 170q31 25 60 43q26 17 48.5 25t59.5 18q37 11 76 11l53 223l62 26l-60 -252q60 -10 97 -24q36 -16 63 -43v-14l-29 -37h-10q-31 35 -65 51q-35 20 -66 20l-156 -661q66 0 129 45q64 41 125 127h13l41 -47v-10q-50 -68 -138 -113 q-80 -39 -182 -49l-57 -240l-64 -21l64 261q-117 18 -178.5 94t-61.5 195zM289 482q0 -78 33 -127q31 -52 96 -70l156 661q-41 0 -76 -20q-37 -23 -70 -64q-65 -84 -102 -184q-37 -102 -37 -196z" />
<glyph unicode="&#xa3;" d="M-159 82v8q43 45 103 72q23 8 52 16q29 9 72 9q26 0 53 -7q25 -6 47 -10q21 -6 47 -16q21 26 35 59q12 31 33 95q31 100 64 266h-197l10 41h201q63 266 180 415q115 149 258 149q74 0 115 -38q41 -41 41 -107q0 -55 -29 -108q-16 -31 -31.5 -49.5t-42.5 -36.5h-10l-16 12 v8q37 43 62 95q20 51 20 94q0 41 -23 67q-27 27 -70 27q-94 0 -176 -131t-153 -397h248l-7 -41h-254q-39 -143 -91 -252q-45 -101 -115 -189q55 -18 98 -28q41 -13 117 -24q73 -15 153 -15q92 0 137 24q46 23 46 76q0 35 -35 60q-37 24 -91 24q-32 0 -69 -12q-17 -4 -29 -10 q-14 -7 -41 -23l-8 2l-6 16l7 13q26 20 65 35q38 12 84 12q77 0 123.5 -37t46.5 -98q0 -74 -56 -119q-55 -45 -143 -45q-76 0 -189 27q-51 14 -104 34q-55 21 -131 54q-51 -48 -107 -72q-55 -26 -116 -26q-54 0 -95 20q-43 20 -83 61zM-43 68q20 -17 43 -23l45 -5 q45 0 82 20q38 20 68 57q-12 6 -28 12q-19 6 -32 8l-53 7q-37 0 -65 -17q-32 -18 -60 -59z" />
<glyph unicode="&#xa4;" horiz-adv-x="1204" d="M86 412l203 203q-41 53 -68 120q-20 68 -20 132q0 53 6 84q10 34 14 49q27 71 68 123l-203 200l66 64l196 -203q60 47 121 68q31 10 63.5 16t69.5 6q76 0 136 -22q63 -21 118 -68l199 203l63 -64l-200 -200q28 -39 40.5 -60.5t24.5 -56.5q11 -37 17 -70t6 -69 q0 -64 -23 -132q-10 -30 -24 -59q-17 -31 -41 -61l200 -203l-63 -66l-199 205q-49 -41 -118 -67q-62 -21 -136 -21q-71 0 -133 21q-28 10 -59 26q-33 17 -62 41l-196 -205zM293 869q0 -131 90 -224q90 -92 221 -92t224 92q90 93 90 224q0 133 -90 225q-93 90 -224 90 q-129 0 -219 -92q-92 -94 -92 -223z" />
<glyph unicode="&#xa5;" d="M49 410l4 24l11 7h315l-61 180h-199l-6 12l2 23l10 6h180l-157 473v10l4 10l14 6h80q12 0 20 -8q9 -10 11 -18l221 -690l471 708l12 8h47l4 -8l-335 -491h202l9 -4l-9 -29l-8 -8h-221l-125 -180h291l8 -11l-6 -22l-12 -10h-308l-102 -358q-6 -23 -12 -30q-8 -8 -25 -8 l-80 -6l-18 4l-4 13l2 12l2 6l110 367h-335z" />
<glyph unicode="&#xa6;" horiz-adv-x="994" d="M445 -342v742h106v-742h-106zM445 662v741h106v-741h-106z" />
<glyph unicode="&#xa7;" horiz-adv-x="1034" d="M4 -164q0 82 93 131q90 50 249 50l54 -4h8l6 -5l2 -21l-6 -7h-12q-148 0 -224 -40q-76 -39 -76 -112q0 -66 66 -103q66 -41 172 -41q143 0 231.5 65.5t88.5 168.5q0 125 -217 322l-68 61q-67 62 -96 121q-31 60 -31 121q0 113 90 188q88 76 250 101q-70 63 -109 139 q-15 37 -26 74q-10 37 -10 73q0 127 111.5 213t285.5 86q123 0 196 -47q74 -49 74 -129q0 -88 -84 -135q-86 -49 -248 -49l-49 2l-41 2l-5 8v19l5 8h11l47 -4q118 0 186 43q70 39 70 115q0 55 -47.5 89.5t-133.5 34.5q-116 0 -192 -65q-78 -68 -78 -166q0 -31 6 -59.5 t22.5 -58t37.5 -56.5q20 -29 49 -57l59 -56q230 -211 230 -342q0 -116 -93.5 -194t-251.5 -97q80 -73 119 -139q37 -67 37 -137q0 -140 -113 -222q-112 -84 -305 -84q-147 0 -243 58q-97 55 -97 137zM342 563q0 -65 49 -137q27 -35 68 -73.5t106 -90.5q117 0 197 68t80 164 q0 71 -53.5 143t-169.5 158q-127 -12 -201 -74q-76 -63 -76 -158z" />
<glyph unicode="&#xa8;" horiz-adv-x="994" d="M383 842q0 53 10 82q9 27 21 27l35 -9l65 -12q15 -4 23 -22q6 -21 10 -60q0 -27 -14 -37q-21 -8 -60 -8q-41 0 -69 8q-17 8 -21 31zM699 842q0 43 10 74q8 30 22 35l35 -9l68 -12l6 -6q10 -10 14 -21l8 -55q0 -27 -14 -35q-16 -10 -55 -10q-47 0 -70 10q-24 8 -24 29z " />
<glyph unicode="&#xa9;" horiz-adv-x="1633" d="M142 664q0 139 51 264q49 123 145 219q94 96 219 150q123 51 262 51q134 0 256 -51q66 -29 117 -62q51 -35 101 -84q96 -96 149 -223q51 -129 51 -264q0 -129 -51 -256q-53 -129 -147 -223q-95 -97 -220 -151q-57 -23 -124 -38q-70 -14 -134 -14q-129 0 -254 54 q-127 50 -223 149q-98 96 -147 219q-51 123 -51 260zM219 664q0 -117 46.5 -228.5t132.5 -199.5q86 -90 195.5 -135t223.5 -45q119 0 227.5 45t192.5 135q84 88 131 198q45 111 45 230q0 121 -45 235q-45 115 -129 199q-84 82 -194 129q-113 47 -226 47q-116 0 -225 -45 q-108 -45 -198 -135q-41 -45 -74 -92q-33 -49 -56 -105q-22 -55 -34.5 -114.5t-12.5 -118.5zM415 652q0 180 112 303q110 122 274 122q72 0 143 -32l80 -33q27 0 43 14q15 15 19 45h30v-303h-34q-31 131 -103 201q-71 70 -172 70q-123 0 -184.5 -93.5t-61.5 -275.5t68 -279 q66 -96 197 -96q82 0 153 45q70 43 123 125l31 -20q-56 -107 -139 -154q-84 -50 -193 -50q-160 0 -272 120q-114 118 -114 291z" />
<glyph unicode="&#xaa;" horiz-adv-x="613" d="M-10 1065q0 66 41 133q37 68 111 129q47 37 104 64q61 20 115 20l65 -6q35 -6 66 -20l8 -11l-18 -65l-16 -51l-68 -217l-6 -29l-2 -18q0 -13 8 -21l20 -8q35 0 104 76q78 86 211 264l2 -6l3 -13q0 -24 -45 -84l-10 -10l-15 -18q-203 -258 -289 -258q-33 0 -51 16 q-21 14 -25 53l11 52l32 106q-71 -123 -127 -174q-57 -53 -106 -53q-53 0 -90 39q-33 45 -33 110zM86 1024q0 -26 13 -43q10 -16 34 -18q52 0 131 108q79 109 159 285q-11 10 -34 16l-34 7q-37 0 -78 -27q-19 -14 -37 -35q-21 -20 -41 -47q-53 -68 -82 -131 q-31 -66 -31 -115z" />
<glyph unicode="&#xab;" horiz-adv-x="924" d="M223 367l332 246l21 12l16 4l17 -6l6 -14q0 -11 -18 -29l-8 -8l-241 -224l62 -249l4 -21l2 -8l-6 -21l-12 -6q-15 2 -19 6l-16 29zM520 367l334 246l19 12l16 4l14 -6l7 -14q0 -11 -18 -29l-7 -8l-239 -224l61 -249l4 -21l2 -8l-6 -21l-12 -6q-13 0 -19 6l-18 29z" />
<glyph unicode="&#xac;" horiz-adv-x="1655" d="M246 744v98h1163v-494h-94v396h-1069z" />
<glyph unicode="&#xad;" horiz-adv-x="856" d="M258 363l29 84l12 8h447l10 -12l-25 -90l-12 -7h-455z" />
<glyph unicode="&#xae;" horiz-adv-x="1633" d="M142 664q0 139 51 264q49 123 145 219q94 96 219 150q123 51 262 51q134 0 258 -51q123 -54 218 -146q92 -94 145 -223q53 -131 53 -264q0 -131 -53 -260q-25 -62 -59 -115q-37 -53 -91 -109q-94 -94 -219 -146q-57 -23 -125 -38q-69 -14 -133 -14q-127 0 -256 52 q-125 54 -219 151q-96 96 -145 219q-51 123 -51 260zM219 664q0 -117 46.5 -228.5t132.5 -199.5q86 -90 195.5 -135t223.5 -45q119 0 227.5 45t192.5 135q84 88 131 198q45 111 45 230q0 123 -45 235q-47 113 -129 197q-84 84 -194 131q-113 47 -226 47q-116 0 -225 -45 q-108 -45 -198 -135q-82 -84 -132 -197q-20 -55 -32.5 -114.5t-12.5 -118.5zM455 285v39q70 0 98 24q29 23 29 78v504q0 53 -29 76q-28 22 -98 22v39h381q143 0 225 -51q82 -53 82 -143q0 -72 -63 -117q-66 -47 -218 -78q91 -29 138 -75q47 -49 67 -133l13 -62 q12 -84 57 -84q35 0 52.5 31t17.5 98h38v-12q0 -84 -36 -129q-39 -46 -115 -46q-41 0 -74 19q-33 17 -49 54t-16 106q0 74 -9 98q-22 66 -71 97q-49 28 -137 28h-19l-18 -2v-240q0 -53 30 -78q29 -24 97 -24v-39h-373zM701 703h32h35q117 0 178 45q62 45 62 127 q0 69 -53 114q-56 45 -148 45q-49 0 -80 -18q-26 -20 -26 -55v-258z" />
<glyph unicode="&#xaf;" horiz-adv-x="994" d="M377 826l21 100h475l-19 -100h-477z" />
<glyph unicode="&#xb0;" horiz-adv-x="654" d="M58 1151q0 111 79 193q78 80 191 80q111 0 189.5 -80t78.5 -193q0 -110 -80 -192.5t-190 -82.5q-113 0 -191 83q-77 80 -77 192zM125 1151q0 -82 60 -141q57 -62 143 -62t143 60q58 57 58 143q0 84 -60 144q-59 59 -141 59q-84 0 -143.5 -59.5t-59.5 -143.5z" />
<glyph unicode="&#xb1;" horiz-adv-x="1655" d="M246 49v99h1163v-99h-1163zM246 708v97h535v342h96v-342h532v-97h-532v-341h-96v341h-535z" />
<glyph unicode="&#xb2;" horiz-adv-x="609" d="M15 465l86 127l8 4l8 2h13h8q139 137 215 256t76 197q0 41 -21 59q-23 25 -62 25q-57 0 -106 -55q-51 -56 -64 -136l-4 -6h-14l-6 8q8 97 71 162q64 64 150 64q68 0 113 -39q45 -41 45 -101q0 -100 -340 -421l-22 -21l24 -12q71 -29 116 -45q46 -17 64 -17q31 0 59 23 q17 10 29 23.5t35 41.5l15 -4q-39 -73 -85 -110q-47 -39 -86 -39q-31 0 -127 33l-104 36l-74 -65z" />
<glyph unicode="&#xb3;" horiz-adv-x="609" d="M35 486l6 8l6 2l50 -14l51 -5q41 0 67 11q31 8 62 26q53 41 86 100.5t33 118.5q0 50 -33 78q-35 29 -86 29l-39 -6l-53 -13l-11 5l-4 10l4 6q127 53 189 109q59 55 59 116q0 29 -18 47q-21 19 -49 21q-39 0 -80 -29q-43 -24 -80 -80l-19 6l-2 9q47 63 100.5 98t110.5 35 q56 0 92 -29q35 -31 35 -78q0 -59 -57 -110q-59 -47 -182 -92q100 0 159 -39q60 -41 60 -111q0 -45 -31 -96q-33 -54 -88 -101q-27 -16 -47 -26q-23 -13 -51 -23q-54 -18 -105 -18l-78 6q-14 4 -24 8q-12 4 -31 14z" />
<glyph unicode="&#xb4;" horiz-adv-x="994" d="M469 764l273 242l32 22q21 11 29 11q14 0 33 -15q12 -16 12 -37q0 -16 -12 -32l-39 -31l-272 -160h-56z" />
<glyph unicode="&#xb5;" horiz-adv-x="1047" d="M-57 -336q0 43 58 274q12 49 43 179q30 127 53 244l108 506h125l-106 -498l-8 -49l-2 -45q0 -86 42 -142q47 -51 117 -51q94 0 163.5 78t100.5 223l109 484h125l-110 -517l-19 -90l-4 -61q0 -53 20 -76q18 -29 57 -29t70 23q31 18 55 66l29 73q22 70 47 70q12 -6 14 -10 l7 -25q0 -22 -2 -33q-2 -10 -10 -39q-10 -28 -21 -51q-10 -24 -23 -47q-37 -68 -88 -101q-51 -35 -108 -35q-74 0 -111 46q-37 43 -37 133v25q-43 -105 -108 -156q-68 -54 -156 -54q-90 0 -150 54q-53 53 -65 154q-23 -131 -43 -322q-31 -273 -102 -273q-34 0 -50 19 q-16 16 -20 53z" />
<glyph unicode="&#xb6;" horiz-adv-x="994" d="M82 1108q0 154 103 248q110 94 278 94h449v-70h-123v-1380h-80v1380h-180v-1380h-82v766q-80 0 -147 27q-68 24 -121 74q-97 92 -97 241z" />
<glyph unicode="&#xb7;" horiz-adv-x="459" d="M149 582q0 37 23 59q21 21 58 21q34 0 57 -25q22 -24 22 -55q0 -29 -22.5 -53.5t-56.5 -28.5q-31 0 -58 22q-23 27 -23 60z" />
<glyph unicode="&#xb8;" horiz-adv-x="994" d="M71 -307l15 34q31 -16 56 -24q24 -10 69 -23q43 -14 80 -14q55 0 86 22q31 23 31 66q0 39 -31 63q-31 21 -84 21l-37 -2l-39 -6l60 170h51l-33 -109l31 4h18q78 0 121 -37q43 -41 43 -106q0 -61 -47 -98q-49 -39 -133 -39q-72 0 -139.5 21.5t-117.5 56.5z" />
<glyph unicode="&#xb9;" horiz-adv-x="609" d="M176 471l2 11l200 581l-87 -80q-20 -18 -43 -37q-4 -4 -47 -34h-8l-8 12l2 6l98 82q22 22 33 31q18 16 26 28l37 45q29 39 53 43l37 5l8 -3l5 -6l-2 -6l-2 -6l-211 -657q-3 -7 -5 -11t-6 -6l-14 -4l-53 -2l-11 2z" />
<glyph unicode="&#xba;" horiz-adv-x="625" d="M10 1088q0 26 7 55q6 27 20 55q12 29 31 54q16 24 42.5 52.5t53.5 47.5q25 18 57 35q64 28 119 28q74 0 121 -51q45 -51 45 -129q0 -35 -12 -82l-43 -90l12 -20q8 -9 25 -9q28 0 82 54q51 53 186 231l2 -12l2 -6q0 -17 -14 -39q-15 -25 -51 -68q-39 -53 -86 -106 q-39 -45 -62 -66q-53 -43 -88 -43l-31 6q-14 6 -24 21q-49 -47 -101 -72q-51 -24 -106 -24q-84 0 -137 47q-50 49 -50 131zM117 1061q0 -57 26.5 -90t69.5 -33q33 0 76 31q18 16 41 39q20 22 41 49l-8 23l-2 30q0 37 16 86q12 29 22.5 46.5t30.5 43.5q-6 45 -32.5 72 t-65.5 27q-23 0 -43 -11l-43 -26q-55 -53 -92 -131q-37 -80 -37 -156z" />
<glyph unicode="&#xbb;" horiz-adv-x="924" d="M125 66q0 10 25 33l241 225l-61 250l-4 18l-2 10q0 9 6 19l12 8q15 -4 23 -8q6 -6 14 -27l135 -287l-329 -247l-23 -15l-14 -2q-15 2 -19 6t-4 17zM422 66q0 12 23 33l243 225l-61 250l-6 20v8q0 13 4 19l12 8q12 0 21 -8l18 -25l135 -289l-332 -247l-20 -15l-16 -2 l-17 4z" />
<glyph unicode="&#xbc;" horiz-adv-x="1491" d="M168 522l2 7l191 542l-80 -71l-90 -70l-15 8v10l88 70l66 62l35 43q26 36 47 38l39 3l8 -3v-8l-2 -6l-201 -614l-8 -17l-14 -2l-54 -4l-10 2zM254 -19l926 1197l14 6h43l2 -6l-893 -1197l-8 -6h-80zM963 219l2 7q84 102 149 192q50 68 60 84q26 39 51 82l12 22 q15 29 37 35l82 17l8 -4l2 -11q0 -18 -100 -133q-47 -55 -117 -129q-72 -76 -141 -145l276 6l45 143l9 11l14 4l45 6l10 -2l2 -8l-2 -9l-41 -141h31l8 -6l-2 -14l-6 -7h-37l-57 -196q-6 -17 -17 -19l-63 -12l-10 2v12v9l65 202l-301 -8h-10z" />
<glyph unicode="&#xbd;" horiz-adv-x="1491" d="M168 522l2 7l191 542l-80 -71l-90 -70l-15 8v10l88 70l66 62l35 43q26 36 47 38l39 3l8 -3v-8l-2 -6l-201 -614l-8 -17l-14 -2l-54 -4l-10 2zM254 -19l926 1197l14 6h43l2 -6l-893 -1197l-8 -6h-80zM924 0l2 6l84 113l6 6l8 2l13 -2q141 129 215 240q71 110 71 182 q0 37 -22 57q-23 21 -58 21q-53 0 -100 -51q-49 -52 -61 -125l-5 -4h-16l-6 6q12 90 74 149q59 62 139 62q61 0 106 -37q43 -37 43 -94q0 -95 -335 -406l-9 -8l50 -20q53 -23 90 -33q34 -13 53 -15q31 0 57 21q29 16 62 61l16 -2q-41 -71 -86 -106q-41 -38 -78 -38 q-24 0 -104 30l-117 38l-72 -61z" />
<glyph unicode="&#xbe;" horiz-adv-x="1491" d="M33 533l8 8l49 -12l52 -4q34 0 65 8q29 8 55 28q54 37 82 93q33 53 33 108q0 45 -33 72q-26 26 -82 26l-32 -4q-17 0 -54 -10l-8 4l-2 8l2 7q117 49 175.5 100t58.5 110q0 27 -17.5 45.5t-48.5 18.5q-35 0 -76 -29q-18 -12 -34 -28q-19 -19 -39 -45l-17 6l-2 8 q37 53 92 92q56 31 109 31t88 -27q33 -29 33 -72q0 -26 -15 -51q-14 -26 -41 -51q-55 -47 -174 -86q97 0 154 -39q55 -39 55 -100q0 -45 -28 -90q-29 -47 -86 -95q-39 -28 -91 -47q-55 -16 -102 -16q-43 0 -78 8q-37 8 -49 19zM254 -19l926 1197l14 6h43l2 -6l-893 -1197 l-8 -6h-80zM963 219l2 7q84 102 149 192q50 68 60 84q26 39 51 82l12 22q15 29 37 35l82 17l8 -4l2 -11q0 -18 -100 -133q-47 -55 -117 -129q-72 -76 -141 -145l276 6l45 143l9 11l14 4l45 6l10 -2l2 -8l-2 -9l-41 -141h31l8 -6l-2 -14l-6 -7h-37l-57 -196q-6 -17 -17 -19 l-63 -12l-10 2v12v9l65 202l-301 -8h-10z" />
<glyph unicode="&#xbf;" horiz-adv-x="905" d="M233 246q0 162 246 512l70 96q49 72 88 144q37 71 53 125l7 6l24 -11v-12q-12 -43 -41 -108q-28 -68 -78 -166l-28 -58q-58 -118 -97 -209q-41 -90 -59 -145q-41 -117 -41 -201t37 -131q35 -49 104 -49q88 0 156 86t104 248l7 10l26 -2l4 -10q-34 -186 -120 -287 t-213 -101q-107 0 -177 75q-72 71 -72 188zM635 1295q0 24 14 34q13 11 50 11q53 0 73 -11q21 -6 21 -28q0 -47 -8 -76q-11 -29 -21 -29l-61 11l-37 8q-10 0 -23 24q-4 13 -6 25q-2 10 -2 31z" />
<glyph unicode="&#xc0;" horiz-adv-x="2165" d="M248 223q0 78 64 125q63 45 170 45q63 0 98 -6q39 -10 57 -14q76 -23 146 -61l4 -15l-9 -16l-10 -4q-73 35 -112 45q-41 10 -64.5 14t-50.5 4q-78 0 -123.5 -35.5t-45.5 -99.5q0 -72 85 -123q82 -52 211 -52q115 0 258 82q141 83 276 230q-278 31 -438 130.5t-160 234.5 q0 96 88 155q86 60 230 60q139 0 293 -45q151 -47 297 -135q98 149 192 268q94 117 189 201q186 176 299 176q14 0 20 -6q6 -13 6 -17q0 -16 -123 -315q-129 -324 -221 -576q70 -86 105 -176q32 -92 32 -190v-77q-6 -24 -10 -45q-4 -23 -20 -26l-37 18l-58 46 q-67 55 -98 133q-35 80 -35 172l6 80l19 84l-84 67l-102 72l-103 -145l-84 -105h47l47 2l74 2l10 -8l2 -18l-8 -9q-16 -4 -31 -6q-14 -2 -38 -2l-91 -2h-51q-168 -172 -350 -260q-182 -90 -356 -90q-178 0 -295 69.5t-117 163.5zM694 684q0 -119 146 -200q82 -48 178 -74 q94 -27 219 -27q37 37 99 115l151 205q-135 82 -264 125q-131 43 -240 43q-133 0 -211 -50.5t-78 -136.5zM1618 670l94 -70l76 -55q86 281 160 463q37 90 74 164q34 73 67 123q-112 -33 -413 -529zM1837 250q0 -78 20.5 -125t63.5 -82l23 68l8 74q0 63 -25 118 q-18 56 -67 109l-17 -82zM1923 1952q0 14 15 33q18 14 37 14q14 0 26 -8t33 -45l117 -221h-56l-143 170q-12 10 -23 30z" />
<glyph unicode="&#xc1;" horiz-adv-x="2165" d="M248 223q0 78 64 125q63 45 170 45q63 0 98 -6q39 -10 57 -14q76 -23 146 -61l4 -15l-9 -16l-10 -4q-73 35 -112 45q-41 10 -64.5 14t-50.5 4q-78 0 -123.5 -35.5t-45.5 -99.5q0 -72 85 -123q82 -52 211 -52q115 0 258 82q141 83 276 230q-278 31 -438 130.5t-160 234.5 q0 96 88 155q86 60 230 60q139 0 293 -45q151 -47 297 -135q98 149 192 268q94 117 189 201q186 176 299 176q14 0 20 -6q6 -13 6 -17q0 -16 -123 -315q-129 -324 -221 -576q70 -86 105 -176q32 -92 32 -190v-77q-6 -24 -10 -45q-4 -23 -20 -26l-37 18l-58 46 q-67 55 -98 133q-35 80 -35 172l6 80l19 84l-84 67l-102 72l-103 -145l-84 -105h47l47 2l74 2l10 -8l2 -18l-8 -9q-16 -4 -31 -6q-14 -2 -38 -2l-91 -2h-51q-168 -172 -350 -260q-182 -90 -356 -90q-178 0 -295 69.5t-117 163.5zM694 684q0 -119 146 -200q82 -48 178 -74 q94 -27 219 -27q37 37 99 115l151 205q-135 82 -264 125q-131 43 -240 43q-133 0 -211 -50.5t-78 -136.5zM1618 670l94 -70l76 -55q86 281 160 463q37 90 74 164q34 73 67 123q-112 -33 -413 -529zM1729 1639l272 241l33 23q20 10 29 10q14 0 32 -14q13 -17 13 -37 q0 -17 -13 -33l-39 -31l-272 -159h-55zM1837 250q0 -78 20.5 -125t63.5 -82l23 68l8 74q0 63 -25 118q-18 56 -67 109l-17 -82z" />
<glyph unicode="&#xc2;" horiz-adv-x="2165" d="M248 223q0 78 64 125q63 45 170 45q63 0 98 -6q39 -10 57 -14q76 -23 146 -61l4 -15l-9 -16l-10 -4q-73 35 -112 45q-41 10 -64.5 14t-50.5 4q-78 0 -123.5 -35.5t-45.5 -99.5q0 -72 85 -123q82 -52 211 -52q115 0 258 82q141 83 276 230q-278 31 -438 130.5t-160 234.5 q0 96 88 155q86 60 230 60q139 0 293 -45q151 -47 297 -135q98 149 192 268q94 117 189 201q186 176 299 176q14 0 20 -6q6 -13 6 -17q0 -16 -123 -315q-129 -324 -221 -576q70 -86 105 -176q32 -92 32 -190v-77q-6 -24 -10 -45q-4 -23 -20 -26l-37 18l-58 46 q-67 55 -98 133q-35 80 -35 172l6 80l19 84l-84 67l-102 72l-103 -145l-84 -105h47l47 2l74 2l10 -8l2 -18l-8 -9q-16 -4 -31 -6q-14 -2 -38 -2l-91 -2h-51q-168 -172 -350 -260q-182 -90 -356 -90q-178 0 -295 69.5t-117 163.5zM694 684q0 -119 146 -200q82 -48 178 -74 q94 -27 219 -27q37 37 99 115l151 205q-135 82 -264 125q-131 43 -240 43q-133 0 -211 -50.5t-78 -136.5zM1479 1710l307 267h96l158 -267h-51l-160 179l-287 -179h-63zM1618 670l94 -70l76 -55q86 281 160 463q37 90 74 164q34 73 67 123q-112 -33 -413 -529zM1837 250 q0 -78 20.5 -125t63.5 -82l23 68l8 74q0 63 -25 118q-18 56 -67 109l-17 -82z" />
<glyph unicode="&#xc3;" horiz-adv-x="2165" d="M248 223q0 78 64 125q63 45 170 45q63 0 98 -6q39 -10 57 -14q76 -23 146 -61l4 -15l-9 -16l-10 -4q-73 35 -112 45q-41 10 -64.5 14t-50.5 4q-78 0 -123.5 -35.5t-45.5 -99.5q0 -72 85 -123q82 -52 211 -52q115 0 258 82q141 83 276 230q-278 31 -438 130.5t-160 234.5 q0 96 88 155q86 60 230 60q139 0 293 -45q151 -47 297 -135q98 149 192 268q94 117 189 201q186 176 299 176q14 0 20 -6q6 -13 6 -17q0 -16 -123 -315q-129 -324 -221 -576q70 -86 105 -176q32 -92 32 -190v-77q-6 -24 -10 -45q-4 -23 -20 -26l-37 18l-58 46 q-67 55 -98 133q-35 80 -35 172l6 80l19 84l-84 67l-102 72l-103 -145l-84 -105h47l47 2l74 2l10 -8l2 -18l-8 -9q-16 -4 -31 -6q-14 -2 -38 -2l-91 -2h-51q-168 -172 -350 -260q-182 -90 -356 -90q-178 0 -295 69.5t-117 163.5zM694 684q0 -119 146 -200q82 -48 178 -74 q94 -27 219 -27q37 37 99 115l151 205q-135 82 -264 125q-131 43 -240 43q-133 0 -211 -50.5t-78 -136.5zM1618 670l94 -70l76 -55q86 281 160 463q37 90 74 164q34 73 67 123q-112 -33 -413 -529zM1667 1665q25 90 66 131q39 41 98 41l35 -2l35 -6l139 -39l25 -6h20 q37 0 62 21q22 20 30 61h43q-18 -86 -61 -135q-45 -45 -103 -45l-26 2l-27 8l-139 37l-33 8l-24 2q-37 0 -60 -18q-22 -19 -33 -60h-47zM1837 250q0 -78 20.5 -125t63.5 -82l23 68l8 74q0 63 -25 118q-18 56 -67 109l-17 -82z" />
<glyph unicode="&#xc4;" horiz-adv-x="2165" d="M248 223q0 78 64 125q63 45 170 45q63 0 98 -6q39 -10 57 -14q76 -23 146 -61l4 -15l-9 -16l-10 -4q-73 35 -112 45q-41 10 -64.5 14t-50.5 4q-78 0 -123.5 -35.5t-45.5 -99.5q0 -72 85 -123q82 -52 211 -52q115 0 258 82q141 83 276 230q-278 31 -438 130.5t-160 234.5 q0 96 88 155q86 60 230 60q139 0 293 -45q151 -47 297 -135q98 149 192 268q94 117 189 201q186 176 299 176q14 0 20 -6q6 -13 6 -17q0 -16 -123 -315q-129 -324 -221 -576q70 -86 105 -176q32 -92 32 -190v-77q-6 -24 -10 -45q-4 -23 -20 -26l-37 18l-58 46 q-67 55 -98 133q-35 80 -35 172l6 80l19 84l-84 67l-102 72l-103 -145l-84 -105h47l47 2l74 2l10 -8l2 -18l-8 -9q-16 -4 -31 -6q-14 -2 -38 -2l-91 -2h-51q-168 -172 -350 -260q-182 -90 -356 -90q-178 0 -295 69.5t-117 163.5zM694 684q0 -119 146 -200q82 -48 178 -74 q94 -27 219 -27q37 37 99 115l151 205q-135 82 -264 125q-131 43 -240 43q-133 0 -211 -50.5t-78 -136.5zM1618 670l94 -70l76 -55q86 281 160 463q37 90 74 164q34 73 67 123q-112 -33 -413 -529zM1772 1688q0 53 10 82q8 26 20 26l35 -8l66 -12q14 -4 21.5 -23.5 t11.5 -58.5q0 -27 -15 -37q-20 -8 -59 -8q-41 0 -70 8q-16 8 -20 31zM1837 250q0 -78 20.5 -125t63.5 -82l23 68l8 74q0 63 -25 118q-18 56 -67 109l-17 -82zM2087 1688q0 43 9.5 73.5t23.5 34.5l35 -8l67 -12l6 -6q11 -11 15 -21l8 -55q0 -27 -14 -35q-17 -10 -56 -10 q-47 0 -69 10q-25 8 -25 29z" />
<glyph unicode="&#xc5;" horiz-adv-x="2165" d="M248 223q0 78 64 125q63 45 170 45q63 0 98 -6q39 -10 57 -14q76 -23 146 -61l4 -15l-9 -16l-10 -4q-73 35 -112 45q-41 10 -64.5 14t-50.5 4q-78 0 -123.5 -35.5t-45.5 -99.5q0 -72 85 -123q82 -52 211 -52q115 0 258 82q141 83 276 230q-278 31 -438 130.5t-160 234.5 q0 96 88 155q86 60 230 60q139 0 293 -45q151 -47 297 -135q98 149 192 268q94 117 189 201q186 176 299 176q14 0 20 -6q7 -13 7 -17q0 -16 -123 -315q-130 -324 -222 -576q70 -86 105 -176q32 -92 32 -190v-77q-6 -24 -10 -45q-4 -23 -20 -26l-37 18l-58 46 q-67 55 -98 133q-35 80 -35 172l6 80l19 84l-84 67l-102 72l-103 -145l-84 -105h47l47 2l74 2l10 -8l2 -18l-8 -9q-16 -4 -31 -6q-14 -2 -38 -2l-91 -2h-51q-168 -172 -350 -260q-182 -90 -356 -90q-178 0 -295 69.5t-117 163.5zM694 684q0 -119 146 -200q82 -48 178 -74 q94 -27 219 -27q37 37 99 115l151 205q-135 82 -264 125q-131 43 -240 43q-133 0 -211 -50.5t-78 -136.5zM1618 670l94 -70l76 -55q86 281 160 463q37 90 74 164q34 73 67 123q-112 -33 -413 -529zM1837 250q0 -78 20.5 -125t63.5 -82l23 68l8 74q0 63 -25 118 q-18 56 -67 109l-17 -82zM2009 1616q0 78 52 131q51 51 129 51q75 0 129 -53q51 -53 51 -129t-51 -129q-54 -54 -129 -54q-78 0 -129 54q-52 51 -52 129zM2075 1616q0 -49 35 -82q32 -35 80 -35q49 0 81 35q34 31 34 82q0 47 -34 82t-81 35q-48 0 -80 -33q-35 -35 -35 -84z " />
<glyph unicode="&#xc6;" horiz-adv-x="2898" d="M248 223q0 78 66 125q63 45 168 45q75 0 157 -20q80 -20 144 -64l6 -10l-11 -18l-14 -2q-33 14 -63 26q-33 13 -62 21q-28 6 -49.5 10t-48.5 4q-78 0 -123.5 -35.5t-45.5 -99.5q0 -72 85 -123q82 -52 211 -52q115 0 258 82q141 83 276 230q-278 31 -438 130.5t-160 234.5 q0 96 88 155q86 60 230 60q139 0 293 -45q151 -47 297 -135q200 305 385 477q182 170 295 170l20 -6q2 -2 7 -19q0 -12 -68 -170l-69 -160q-107 -251 -148 -374q-48 -138 -62 -226q37 68 93.5 124.5t135.5 103.5q158 88 373 121q-147 19 -231 88q-84 67 -84 176q0 61 35 121 q37 55 108 108q72 51 176 83q105 30 211 30q94 0 150 -37q55 -39 55 -100q0 -91 -90 -148q-92 -59 -244 -59h-39l-26 4l-11 4l3 24l12 7l31 -4l43 -3q98 0 157 44q60 40 60 108q0 49 -39 84q-39 33 -101 33q-145 0 -252 -88q-108 -90 -108 -209q0 -94 75.5 -156.5 t225.5 -91.5l10 -10l-2 -21l-10 -6q-305 -47 -492.5 -186t-187.5 -318q0 -112 84 -184q88 -66 233 -66q183 0 305.5 80t122.5 193q0 67 -47 102q-45 41 -123 41q-38 0 -73 -8t-82 -33q-88 -37 -201 -123l-12 2l-10 17l2 12q139 107 249 156q109 47 205 47q92 0 155.5 -49 t63.5 -123q0 -58 -36 -113q-31 -53 -109 -108q-94 -70 -211 -107q-57 -17 -119 -27q-61 -10 -121 -10q-196 0 -309 101q-114 98 -114 270l2 76l14 86l-84 67l-102 72l-103 -145l-84 -105h39l37 -2l37 2l55 2l12 -8v-16l-8 -13l-61 -4l-94 -2h-56q-168 -172 -350 -260 q-182 -90 -356 -90q-178 0 -295 69.5t-117 163.5zM694 684q0 -119 146 -200q82 -48 178 -74q94 -27 219 -27q37 37 99 115l151 205q-135 82 -264 125q-131 43 -240 43q-133 0 -211 -50.5t-78 -136.5zM1618 670l94 -70l76 -55q47 180 125 371q76 188 176 379 q-112 -33 -413 -529z" />
<glyph unicode="&#xc7;" horiz-adv-x="1602" d="M68 998q0 133 141 215q139 82 383 82h90q49 -2 129 -16q101 -15 213 -48q62 51 111 86t102 60q103 51 185 51q90 0 145 -51.5t55 -139.5q0 -98 -63 -188q-64 -92 -193 -182v-15q0 -141 -102 -246q-105 -106 -299 -170l-10 9l-4 18l6 8q180 62 270 156t90 211 q-63 -31 -113.5 -53.5t-115.5 -40.5q-109 -37 -264 -60q-7 -20 -13 -53q-8 -33 -12 -66q-6 -32 -8 -61t-2 -72q0 -186 102 -297q103 -110 283 -110q164 0 319 125q154 123 344 411l4 -14l2 -12q0 -29 -36 -90q-43 -66 -123 -162q-135 -162 -267 -233q-133 -74 -282 -74 q-221 0 -361 139q-139 137 -139 354l6 103q4 26 8 47q3 18 15 61q-139 0 -250 25q-111 22 -195 65q-151 84 -151 228zM185 981q0 -123 127 -188q63 -33 157 -49q92 -19 207 -19q27 72 53 129q27 56 72 123q39 55 88 113q47 57 100 108q-41 13 -79 23q-41 10 -89 16 q-90 13 -190 13q-205 0 -326 -74q-120 -74 -120 -195zM840 729q74 13 137 29q62 14 121 39q119 45 219 119q-18 82 -78 147q-61 66 -159 107q-70 -86 -134 -205q-26 -47 -53 -107q-26 -59 -53 -129zM955 -322l14 35q31 -16 55 -25q25 -10 70 -22q43 -14 80 -14q55 0 86 22 q30 23 30 66q0 39 -30 63q-31 21 -84 21l-37 -2l-39 -7l59 171h52l-33 -109l31 4h18q78 0 121 -37q43 -41 43 -106q0 -62 -47 -99q-49 -39 -133 -39q-72 0 -140 23q-67 20 -116 55zM1106 1204q98 -45 162 -108q57 -57 86 -141q84 75 129 157q45 80 45 142q0 59 -35 94 t-90 35q-63 0 -143 -47q-82 -50 -154 -132z" />
<glyph unicode="&#xc8;" horiz-adv-x="1680" d="M88 1090q0 125 129 207q127 82 334 82q94 0 187 -14q43 -7 96 -17q53 -12 108 -29l6 -10l-4 -19l-12 -4q-45 13 -92 23q-49 10 -92 17q-45 6 -84 10q-41 4 -82 4q-168 0 -262 -68q-97 -70 -97 -192q0 -115 105 -179q102 -63 293 -63q57 0 85.5 2t92.5 13q45 3 90 14 q43 8 104 24q-33 31 -49 70q-17 37 -17 86q0 78 43.5 135t150.5 123q63 39 157 64q92 22 185 22q96 0 153 -35q55 -37 55 -106q0 -95 -131 -187q-65 -43 -161 -86q-99 -43 -230 -86q17 -14 49 -30q33 -19 41 -23q54 -22 131 -37l9 -10v-21l-11 -6q-297 -39 -481 -182 q-186 -146 -186 -322q0 -112 86 -184q88 -66 237 -66q168 0 291 82q121 82 121 191q0 65 -49 102q-47 41 -123 41q-74 0 -158 -41q-88 -37 -201 -123l-8 2l-10 15l2 12q131 105 242 154q53 23 109.5 37t101.5 14q94 0 157 -49q62 -51 62 -123q0 -58 -37 -113 q-32 -55 -111 -108q-90 -66 -209.5 -105t-232.5 -39q-190 0 -309 86t-119 224q0 180 192 321q191 139 521 193q-43 4 -64 8q-20 4 -61 18q-60 17 -107 49q-129 -30 -225 -46q-55 -6 -104 -10q-52 -5 -101 -5q-235 0 -371 80q-135 80 -135 213zM1071 1047q0 -41 13 -72 q4 -14 12 -24q8 -13 25 -29q229 67 335 145q111 74 111 166q0 51 -37 86q-37 31 -98 31q-148 0 -254 -90q-107 -92 -107 -213zM1194 1837q0 15 15 33q18 14 36 14q15 0 27 -8t33 -45l117 -221h-56l-143 170q-12 10 -23 31z" />
<glyph unicode="&#xc9;" horiz-adv-x="1680" d="M88 1090q0 125 129 207q127 82 334 82q94 0 187 -14q43 -7 96 -17q53 -12 108 -29l6 -10l-4 -19l-12 -4q-45 13 -92 23q-49 10 -92 17q-45 6 -84 10q-41 4 -82 4q-168 0 -262 -68q-97 -70 -97 -192q0 -115 105 -179q102 -63 293 -63q57 0 85.5 2t92.5 13q45 3 90 14 q43 8 104 24q-33 31 -49 70q-17 37 -17 86q0 78 43.5 135t150.5 123q63 39 157 64q92 22 185 22q96 0 153 -35q55 -37 55 -106q0 -95 -131 -187q-65 -43 -161 -86q-99 -43 -230 -86q17 -14 49 -30q33 -19 41 -23q54 -22 131 -37l9 -10v-21l-11 -6q-297 -39 -481 -182 q-186 -146 -186 -322q0 -112 86 -184q88 -66 237 -66q168 0 291 82q121 82 121 191q0 65 -49 102q-47 41 -123 41q-74 0 -158 -41q-88 -37 -201 -123l-8 2l-10 15l2 12q131 105 242 154q53 23 109.5 37t101.5 14q94 0 157 -49q62 -51 62 -123q0 -58 -37 -113 q-32 -55 -111 -108q-90 -66 -209.5 -105t-232.5 -39q-190 0 -309 86t-119 224q0 180 192 321q191 139 521 193q-43 4 -64 8q-20 4 -61 18q-60 17 -107 49q-129 -30 -225 -46q-55 -6 -104 -10q-52 -5 -101 -5q-235 0 -371 80q-135 80 -135 213zM1071 1047q0 -41 13 -72 q4 -14 12 -24q8 -13 25 -29q229 67 335 145q111 74 111 166q0 51 -37 86q-37 31 -98 31q-148 0 -254 -90q-107 -92 -107 -213zM1215 1610l272 242l33 22q20 10 29 10q14 0 32 -14q13 -16 13 -37q0 -16 -12 -33l-39 -30l-273 -160h-55z" />
<glyph unicode="&#xca;" horiz-adv-x="1680" d="M88 1090q0 125 129 207q127 82 334 82q94 0 187 -14q43 -7 96 -17q53 -12 108 -29l6 -10l-4 -19l-12 -4q-45 13 -92 23q-49 10 -92 17q-45 6 -84 10q-41 4 -82 4q-168 0 -262 -68q-97 -70 -97 -192q0 -115 105 -179q102 -63 293 -63q57 0 85.5 2t92.5 13q45 3 90 14 q43 8 104 24q-33 31 -49 70q-17 37 -17 86q0 78 43.5 135t150.5 123q63 39 157 64q92 22 185 22q96 0 153 -35q55 -37 55 -106q0 -95 -131 -187q-65 -43 -161 -86q-99 -43 -230 -86q17 -14 49 -30q33 -19 41 -23q54 -22 131 -37l9 -10v-21l-11 -6q-297 -39 -481 -182 q-186 -146 -186 -322q0 -112 86 -184q88 -66 237 -66q168 0 291 82q121 82 121 191q0 65 -49 102q-47 41 -123 41q-74 0 -158 -41q-88 -37 -201 -123l-8 2l-10 15l2 12q131 105 242 154q53 23 109.5 37t101.5 14q94 0 157 -49q62 -51 62 -123q0 -58 -37 -113 q-32 -55 -111 -108q-90 -66 -209.5 -105t-232.5 -39q-190 0 -309 86t-119 224q0 180 192 321q191 139 521 193q-43 4 -64 8q-20 4 -61 18q-60 17 -107 49q-129 -30 -225 -46q-55 -6 -104 -10q-52 -5 -101 -5q-235 0 -371 80q-135 80 -135 213zM979 1696l307 266h97l158 -266 h-51l-161 178l-286 -178h-64zM1071 1047q0 -41 13 -72q4 -14 12 -24q8 -13 25 -29q229 67 335 145q111 74 111 166q0 51 -37 86q-37 31 -98 31q-148 0 -254 -90q-107 -92 -107 -213z" />
<glyph unicode="&#xcb;" horiz-adv-x="1680" d="M88 1090q0 125 129 207q127 82 334 82q94 0 187 -14q43 -7 96 -17q53 -12 108 -29l6 -10l-4 -19l-12 -4q-45 13 -92 23q-49 10 -92 17q-45 6 -84 10q-41 4 -82 4q-168 0 -262 -68q-97 -70 -97 -192q0 -115 105 -179q102 -63 293 -63q57 0 85.5 2t92.5 13q45 3 90 14 q43 8 104 24q-33 31 -49 70q-17 37 -17 86q0 78 43.5 135t150.5 123q63 39 157 64q92 22 185 22q96 0 153 -35q55 -37 55 -106q0 -95 -131 -187q-65 -43 -161 -86q-99 -43 -230 -86q17 -14 49 -30q33 -19 41 -23q54 -22 131 -37l9 -10v-21l-11 -6q-297 -39 -481 -182 q-186 -146 -186 -322q0 -112 86 -184q88 -66 237 -66q168 0 291 82q121 82 121 191q0 65 -49 102q-47 41 -123 41q-74 0 -158 -41q-88 -37 -201 -123l-8 2l-10 15l2 12q131 105 242 154q53 23 109.5 37t101.5 14q94 0 157 -49q62 -51 62 -123q0 -58 -37 -113 q-32 -55 -111 -108q-90 -66 -209.5 -105t-232.5 -39q-190 0 -309 86t-119 224q0 180 192 321q191 139 521 193q-43 4 -64 8q-20 4 -61 18q-60 17 -107 49q-129 -30 -225 -46q-55 -6 -104 -10q-52 -5 -101 -5q-235 0 -371 80q-135 80 -135 213zM1071 1047q0 -41 13 -72 q4 -14 12 -24q8 -13 25 -29q229 67 335 145q111 74 111 166q0 51 -37 86q-37 31 -98 31q-148 0 -254 -90q-107 -92 -107 -213zM1143 1688q0 53 10 82q8 26 21 26l35 -8l65 -12q14 -4 23 -23q6 -20 10 -59q0 -27 -14 -37q-21 -8 -60 -8q-41 0 -69 8q-17 8 -21 31zM1459 1688 q0 43 10 74q8 30 22 34l35 -8l68 -12l6 -6q10 -11 14 -21l8 -55q0 -27 -14 -35q-16 -10 -55 -10q-47 0 -70 10q-24 8 -24 29z" />
<glyph unicode="&#xcc;" horiz-adv-x="1487" d="M240 1051q0 141 170 238.5t430 97.5q276 0 430 -133t154 -367q0 -76 -16 -170q-8 -43 -21.5 -88t-32.5 -98q-22 -56 -45 -109q-25 -53 -53 -100q-31 -49 -58 -84q-26 -37 -65 -80q-111 -123 -254 -196q-144 -71 -266 -71q-97 0 -156 41q-55 43 -55 113q0 82 76.5 149.5 t193.5 86.5l10 -6l2 -15l-2 -10q-86 -29 -129 -72t-43 -96q0 -55 47 -97q47 -34 123 -34q94 0 195 55q98 56 176 160q106 139 164 328q57 186 57 383q0 33 -2 64.5t-6 56.5q-6 22 -8 43q-6 24 -21 65q-74 -155 -231.5 -248.5t-339.5 -93.5h-31l-22 2q-27 -33 -48 -63 q-30 -47 -45 -70l-82 -147l-10 -7l-18 9l-4 12q14 35 30 70q15 32 32.5 61t43.5 70q27 41 53 73q-145 17 -233 95q-90 75 -90 182zM357 1057q0 -84 63 -147q66 -58 178 -86q148 147 300.5 227t289.5 80l19 -2h18q-47 102 -156 159q-108 56 -258 56q-194 0 -323 -84 q-131 -84 -131 -203zM656 817h36q146 0 256 68q109 66 158 182q-55 0 -104 -18.5t-119 -57.5q-117 -65 -227 -174zM895 1866q0 14 15 33q18 14 36 14q15 0 27 -8t33 -45l117 -221h-56l-143 170q-12 10 -23 30z" />
<glyph unicode="&#xcd;" horiz-adv-x="1487" d="M240 1051q0 141 170 238.5t430 97.5q276 0 430 -133t154 -367q0 -76 -16 -170q-8 -43 -21.5 -88t-32.5 -98q-22 -56 -45 -109q-25 -53 -53 -100q-31 -49 -58 -84q-26 -37 -65 -80q-111 -123 -254 -196q-144 -71 -266 -71q-97 0 -156 41q-55 43 -55 113q0 82 76.5 149.5 t193.5 86.5l10 -6l2 -15l-2 -10q-86 -29 -129 -72t-43 -96q0 -55 47 -97q47 -34 123 -34q94 0 195 55q98 56 176 160q106 139 164 328q57 186 57 383q0 33 -2 64.5t-6 56.5q-6 22 -8 43q-6 24 -21 65q-74 -155 -231.5 -248.5t-339.5 -93.5h-31l-22 2q-27 -33 -48 -63 q-30 -47 -45 -70l-82 -147l-10 -7l-18 9l-4 12q14 35 30 70q15 32 32.5 61t43.5 70q27 41 53 73q-145 17 -233 95q-90 75 -90 182zM357 1057q0 -84 63 -147q66 -58 178 -86q148 147 300.5 227t289.5 80l19 -2h18q-47 102 -156 159q-108 56 -258 56q-194 0 -323 -84 q-131 -84 -131 -203zM656 817h36q146 0 256 68q109 66 158 182q-55 0 -104 -18.5t-119 -57.5q-117 -65 -227 -174zM887 1567l272 242l33 22q21 10 29 10q14 0 33 -14q12 -16 12 -37q0 -16 -12 -33l-39 -30l-273 -160h-55z" />
<glyph unicode="&#xce;" horiz-adv-x="1487" d="M240 1051q0 141 170 238.5t430 97.5q276 0 430 -133t154 -367q0 -76 -16 -170q-8 -43 -21.5 -88t-32.5 -98q-22 -56 -45 -109q-25 -53 -53 -100q-31 -49 -58 -84q-26 -37 -65 -80q-111 -123 -254 -196q-144 -71 -266 -71q-97 0 -156 41q-55 43 -55 113q0 82 76.5 149.5 t193.5 86.5l10 -6l2 -15l-2 -10q-86 -29 -129 -72t-43 -96q0 -55 47 -97q47 -34 123 -34q94 0 195 55q98 56 176 160q106 139 164 328q57 186 57 383q0 33 -2 64.5t-6 56.5q-6 22 -8 43q-6 24 -21 65q-74 -155 -231.5 -248.5t-339.5 -93.5h-31l-22 2q-27 -33 -48 -63 q-30 -47 -45 -70l-82 -147l-10 -7l-18 9l-4 12q14 35 30 70q15 32 32.5 61t43.5 70q27 41 53 73q-145 17 -233 95q-90 75 -90 182zM357 1057q0 -84 63 -147q66 -58 178 -86q148 147 300.5 227t289.5 80l19 -2h18q-47 102 -156 159q-108 56 -258 56q-194 0 -323 -84 q-131 -84 -131 -203zM656 817h36q146 0 256 68q109 66 158 182q-55 0 -104 -18.5t-119 -57.5q-117 -65 -227 -174zM695 1639l307 266h96l158 -266h-52l-159 178l-287 -178h-63z" />
<glyph unicode="&#xcf;" horiz-adv-x="1487" d="M240 1051q0 141 170 238.5t430 97.5q276 0 430 -133t154 -367q0 -76 -16 -170q-8 -43 -21.5 -88t-32.5 -98q-22 -56 -45 -109q-25 -53 -53 -100q-31 -49 -58 -84q-26 -37 -65 -80q-111 -123 -254 -196q-144 -71 -266 -71q-97 0 -156 41q-55 43 -55 113q0 82 76.5 149.5 t193.5 86.5l10 -6l2 -15l-2 -10q-86 -29 -129 -72t-43 -96q0 -55 47 -97q47 -34 123 -34q94 0 195 55q98 56 176 160q106 139 164 328q57 186 57 383q0 33 -2 64.5t-6 56.5q-6 22 -8 43q-6 24 -21 65q-74 -155 -231.5 -248.5t-339.5 -93.5h-31l-22 2q-27 -33 -48 -63 q-30 -47 -45 -70l-82 -147l-10 -7l-18 9l-4 12q14 35 30 70q15 32 32.5 61t43.5 70q27 41 53 73q-145 17 -233 95q-90 75 -90 182zM357 1057q0 -84 63 -147q66 -58 178 -86q148 147 300.5 227t289.5 80l19 -2h18q-47 102 -156 159q-108 56 -258 56q-194 0 -323 -84 q-131 -84 -131 -203zM656 817h36q146 0 256 68q109 66 158 182q-55 0 -104 -18.5t-119 -57.5q-117 -65 -227 -174zM672 1616q0 53 10 82q8 27 21 27l35 -9l65 -12q14 -4 23 -22q6 -21 10 -60q0 -26 -15 -37q-20 -8 -59 -8q-41 0 -70 8q-16 9 -20 31zM987 1616q0 43 11 74 q8 31 22 35l35 -9l68 -12l6 -6q10 -10 14 -20l8 -56q0 -26 -14 -35q-16 -10 -55 -10q-48 0 -70 10q-25 9 -25 29z" />
<glyph unicode="&#xd0;" horiz-adv-x="1833" d="M129 922q0 180 151.5 299t381.5 119q119 0 252 -33q131 -33 276 -100q84 108 187 165q57 33 114 52q55 18 115 18l11 -8v-19l-11 -10q-108 -20 -192 -86q-74 -59 -128 -166q205 -147 316 -321q110 -176 110 -348q0 -101 -36 -191q-37 -92 -107 -164q-72 -71 -160 -106 q-47 -18 -92 -29q-47 -10 -100 -10q-76 0 -178 29q-105 27 -234 86q-67 -57 -160 -86q-92 -29 -206 -29q-82 0 -162 14q-82 15 -142 45v10q60 74 150 111t215 37q29 0 61 -2q33 -2 78 -8q45 -8 119 -28q41 47 94 155q25 49 51 115q21 49 52 137h-265l-6 12l4 27l11 10h272 l16 56q117 374 177 491q-54 26 -115 51q-62 22 -117 37q-117 30 -229 30q-199 0 -322 -110q-123 -113 -123 -301q0 -105 54 -191q51 -88 167 -174l5 -16l-11 -17l-12 -2q-160 90 -246 205t-86 244zM283 45l61 -16l72 -6q94 0 170 26q76 27 131 78l-82 17l-88 8 q-76 0 -147.5 -27.5t-116.5 -79.5zM838 133q55 -20 88 -30q31 -11 65 -18q76 -17 138 -17q215 0 346 129q129 127 129 340q0 164 -88 314.5t-244 256.5q-8 -16 -29 -71q-22 -58 -41 -109l-96 -309h219l11 -10l-9 -29l-12 -10h-223q-25 -67 -51 -127q-29 -59 -64 -119 q-59 -105 -139 -191z" />
<glyph unicode="&#xd1;" horiz-adv-x="2104" d="M131 1028q0 156 158 253.5t414 97.5q239 0 374 -84q133 -86 133 -246q0 -51 -18 -146q-21 -94 -55 -221l-78 -268q272 491 447 700q172 207 299 207q73 0 120 -43q45 -43 45 -117q0 -57 -92 -325l-84 -242q-53 -164 -86 -287q-26 -122 -26 -174q0 -61 30 -104 q33 -39 82 -39q78 0 191 121q110 119 319 438l4 -24l2 -19q0 -18 -18 -49q-6 -10 -33 -49q-57 -82 -61 -88q-86 -123 -148 -197q-61 -74 -108 -109q-84 -70 -185 -70q-79 0 -137 62q-59 60 -59 156q0 127 110 457l37 108l25 72q108 330 108 395q0 29 -18 51q-23 19 -53 19 q-76 0 -205 -143q-121 -138 -299 -433q-45 -75 -94 -161q-39 -72 -76 -142q-62 -127 -98 -235l-17 -56q-24 -86 -65 -92l-74 -10l-12 8q-4 6 -4 21l223 862l20 98l8 78q0 135 -94 209q-94 72 -270 72q-213 0 -346 -86q-134 -88 -134 -230q0 -102 83 -166q80 -65 217 -65 q59 0 128.5 16.5t143.5 48.5l14 -4l7 -12l-7 -16q-26 -15 -67 -31q-43 -19 -84 -29q-76 -20 -166 -20q-164 0 -266 80q-105 77 -105 202zM1358 1608q25 90 66 131q39 41 98 41l35 -2l35 -6l139 -39l24 -6h21q37 0 61 20q23 21 31 62h43q-18 -86 -61 -136q-45 -45 -103 -45 l-26 2l-27 9l-139 37l-33 8l-25 2q-37 0 -59 -19q-23 -18 -33 -59h-47z" />
<glyph unicode="&#xd2;" horiz-adv-x="1737" d="M68 787q0 145 144.5 240.5t377.5 95.5l55 -2l64 -4q139 145 282 221q144 75 289 75q137 0 217 -69q78 -72 78 -189l-2 -37l-4 -36q37 -39 55 -105q21 -59 21 -141q0 -103 -37 -215q-37 -115 -107.5 -230.5t-167.5 -207.5q-88 -84 -194 -142q20 -12 53 -18l62 -6 q141 0 282 111q74 57 166 155q90 96 193 231l4 -8l2 -12q0 -25 -25 -66q-28 -41 -106 -131q-80 -92 -146.5 -151t-130.5 -98q-114 -70 -246 -70q-32 0 -53 4q-20 4 -37 8l-32 8q-17 5 -41 17q-15 -6 -52 -17q-36 -12 -63 -16q-29 -6 -47 -6q-21 -2 -33 -2q-194 0 -328 127 q-67 66 -102 147q-37 82 -36 180q-174 62 -265 154q-45 47 -67.5 96t-22.5 109zM166 768q0 -98 63.5 -168.5t192.5 -120.5q19 156 84 312q66 153 168 280l-84 4q-194 0 -309 -84q-115 -83 -115 -223zM551 369q0 -164 96 -260q97 -96 254 -96l68 6q16 4 31 8q12 2 37 14 q-103 60 -154 152q-53 92 -53 215l-70 -10l-98 -2l-62 2l-47 6l-2 -19v-16zM557 447l66 -13l57 -4l72 4q14 0 34.5 4.5t45.5 10.5q16 119 61 227q43 107 111 197q94 135 196 209q101 71 197 71q37 0 68 -9q18 -5 36 -15q19 -12 31 -18l2 14l2 30q0 92 -71 154 q-72 59 -185 59q-116 0 -223 -65q-106 -66 -209 -199l72 -18l41 -15l8 -10l-6 -14l-10 -2l-15 2l-114 16q-103 -141 -168 -293q-68 -153 -99 -323zM940 332q0 -92 39 -162q37 -69 109 -110q73 32 149 102q76 68 135 154q105 151 158 311q53 158 53 305l-6 57q-6 27 -20 50 q-74 -213 -226 -363q-153 -149 -380 -233l-9 -60zM957 490q209 73 358 229q150 156 207 352q-19 23 -41.5 30.5t-60.5 11.5q-109 0 -246 -179q-137 -178 -217 -444zM1223 1837q0 15 14 33q19 14 37 14q14 0 26.5 -8t32.5 -45l117 -221h-55l-143 170q-13 10 -23 31z" />
<glyph unicode="&#xd3;" horiz-adv-x="1737" d="M68 787q0 145 144.5 240.5t377.5 95.5l55 -2l64 -4q139 145 282 221q144 75 289 75q137 0 217 -69q78 -72 78 -189l-2 -37l-4 -36q37 -39 55 -105q21 -59 21 -141q0 -103 -37 -215q-37 -115 -107.5 -230.5t-167.5 -207.5q-88 -84 -194 -142q20 -12 53 -18l62 -6 q141 0 282 111q74 57 166 155q90 96 193 231l4 -8l2 -12q0 -25 -25 -66q-28 -41 -106 -131q-80 -92 -146.5 -151t-130.5 -98q-114 -70 -246 -70q-32 0 -53 4q-20 4 -37 8l-32 8q-17 5 -41 17q-15 -6 -52 -17q-36 -12 -63 -16q-29 -6 -47 -6q-21 -2 -33 -2q-194 0 -328 127 q-67 66 -102 147q-37 82 -36 180q-174 62 -265 154q-45 47 -67.5 96t-22.5 109zM166 768q0 -98 63.5 -168.5t192.5 -120.5q19 156 84 312q66 153 168 280l-84 4q-194 0 -309 -84q-115 -83 -115 -223zM551 369q0 -164 96 -260q97 -96 254 -96l68 6q16 4 31 8q12 2 37 14 q-103 60 -154 152q-53 92 -53 215l-70 -10l-98 -2l-62 2l-47 6l-2 -19v-16zM557 447l66 -13l57 -4l72 4q14 0 34.5 4.5t45.5 10.5q16 119 61 227q43 107 111 197q94 135 196 209q101 71 197 71q37 0 68 -9q18 -5 36 -15q19 -12 31 -18l2 14l2 30q0 92 -71 154 q-72 59 -185 59q-116 0 -223 -65q-106 -66 -209 -199l72 -18l41 -15l8 -10l-6 -14l-10 -2l-15 2l-114 16q-103 -141 -168 -293q-68 -153 -99 -323zM940 332q0 -92 39 -162q37 -69 109 -110q73 32 149 102q76 68 135 154q105 151 158 311q53 158 53 305l-6 57q-6 27 -20 50 q-74 -213 -226 -363q-153 -149 -380 -233l-9 -60zM957 490q209 73 358 229q150 156 207 352q-19 23 -41.5 30.5t-60.5 11.5q-109 0 -246 -179q-137 -178 -217 -444zM1215 1667l272 242l33 23q20 10 29 10q14 0 32 -15q13 -16 13 -36q0 -17 -13 -33l-39 -31l-272 -160h-55z " />
<glyph unicode="&#xd4;" horiz-adv-x="1737" d="M68 787q0 145 144.5 240.5t377.5 95.5l55 -2l64 -4q139 145 282 221q144 75 289 75q137 0 217 -69q78 -72 78 -189l-2 -37l-4 -36q37 -39 55 -105q21 -59 21 -141q0 -103 -37 -215q-37 -115 -107.5 -230.5t-167.5 -207.5q-88 -84 -194 -142q20 -12 53 -18l62 -6 q141 0 282 111q74 57 166 155q90 96 193 231l4 -8l2 -12q0 -25 -25 -66q-28 -41 -106 -131q-80 -92 -146.5 -151t-130.5 -98q-114 -70 -246 -70q-32 0 -53 4q-20 4 -37 8l-32 8q-17 5 -41 17q-15 -6 -52 -17q-36 -12 -63 -16q-29 -6 -47 -6q-21 -2 -33 -2q-194 0 -328 127 q-67 66 -102 147q-37 82 -36 180q-174 62 -265 154q-45 47 -67.5 96t-22.5 109zM166 768q0 -98 63.5 -168.5t192.5 -120.5q19 156 84 312q66 153 168 280l-84 4q-194 0 -309 -84q-115 -83 -115 -223zM551 369q0 -164 96 -260q97 -96 254 -96l68 6q16 4 31 8q12 2 37 14 q-103 60 -154 152q-53 92 -53 215l-70 -10l-98 -2l-62 2l-47 6l-2 -19v-16zM557 447l66 -13l57 -4l72 4q14 0 34.5 4.5t45.5 10.5q16 119 61 227q43 107 111 197q94 135 196 209q101 71 197 71q37 0 68 -9q18 -5 36 -15q19 -12 31 -18l2 14l2 30q0 92 -71 154 q-72 59 -185 59q-116 0 -223 -65q-106 -66 -209 -199l72 -18l41 -15l8 -10l-6 -14l-10 -2l-15 2l-114 16q-103 -141 -168 -293q-68 -153 -99 -323zM940 332q0 -92 39 -162q37 -69 109 -110q73 32 149 102q76 68 135 154q105 151 158 311q53 158 53 305l-6 57q-6 27 -20 50 q-74 -213 -226 -363q-153 -149 -380 -233l-9 -60zM957 490q209 73 358 229q150 156 207 352q-19 23 -41.5 30.5t-60.5 11.5q-109 0 -246 -179q-137 -178 -217 -444zM994 1667l307 267h96l158 -267h-52l-159 178l-287 -178h-63z" />
<glyph unicode="&#xd5;" horiz-adv-x="1737" d="M68 787q0 145 144.5 240.5t377.5 95.5l55 -2l64 -4q139 145 282 221q144 75 289 75q137 0 217 -69q78 -72 78 -189l-2 -37l-4 -36q37 -39 55 -105q21 -59 21 -141q0 -103 -37 -215q-37 -115 -107.5 -230.5t-167.5 -207.5q-88 -84 -194 -142q20 -12 53 -18l62 -6 q141 0 282 111q74 57 166 155q90 96 193 231l4 -8l2 -12q0 -25 -25 -66q-28 -41 -106 -131q-80 -92 -146.5 -151t-130.5 -98q-114 -70 -246 -70q-32 0 -53 4q-20 4 -37 8l-32 8q-17 5 -41 17q-15 -6 -52 -17q-36 -12 -63 -16q-29 -6 -47 -6q-21 -2 -33 -2q-194 0 -328 127 q-67 66 -102 147q-37 82 -36 180q-174 62 -265 154q-45 47 -67.5 96t-22.5 109zM166 768q0 -98 63.5 -168.5t192.5 -120.5q19 156 84 312q66 153 168 280l-84 4q-194 0 -309 -84q-115 -83 -115 -223zM551 369q0 -164 96 -260q97 -96 254 -96l68 6q16 4 31 8q12 2 37 14 q-103 60 -154 152q-53 92 -53 215l-70 -10l-98 -2l-62 2l-47 6l-2 -19v-16zM557 447l66 -13l57 -4l72 4q14 0 34.5 4.5t45.5 10.5q16 119 61 227q43 107 111 197q94 135 196 209q101 71 197 71q37 0 68 -9q18 -5 36 -15q19 -12 31 -18l2 14l2 30q0 92 -71 154 q-72 59 -185 59q-116 0 -223 -65q-106 -66 -209 -199l72 -18l41 -15l8 -10l-6 -14l-10 -2l-15 2l-114 16q-103 -141 -168 -293q-68 -153 -99 -323zM940 332q0 -92 39 -162q37 -69 109 -110q73 32 149 102q76 68 135 154q105 151 158 311q53 158 53 305l-6 57q-6 27 -20 50 q-74 -213 -226 -363q-153 -149 -380 -233l-9 -60zM957 490q209 73 358 229q150 156 207 352q-19 23 -41.5 30.5t-60.5 11.5q-109 0 -246 -179q-137 -178 -217 -444zM981 1680q25 90 66 131q39 41 98 41l35 -2l35 -7l139 -38l25 -7h20q37 0 60.5 20.5t31.5 61.5h43 q-18 -86 -61 -135q-45 -45 -103 -45l-26 2l-27 8l-139 37l-33 8l-24 2q-37 0 -60 -18q-22 -18 -33 -59h-47z" />
<glyph unicode="&#xd6;" horiz-adv-x="1737" d="M68 787q0 145 144.5 240.5t377.5 95.5l55 -2l64 -4q139 145 282 221q144 75 289 75q137 0 217 -69q78 -72 78 -189l-2 -37l-4 -36q37 -39 55 -105q21 -59 21 -141q0 -103 -37 -215q-37 -115 -107.5 -230.5t-167.5 -207.5q-88 -84 -194 -142q20 -12 53 -18l62 -6 q141 0 282 111q74 57 166 155q90 96 193 231l4 -8l2 -12q0 -25 -25 -66q-28 -41 -106 -131q-80 -92 -146.5 -151t-130.5 -98q-114 -70 -246 -70q-32 0 -53 4q-20 4 -37 8l-32 8q-17 5 -41 17q-15 -6 -52 -17q-36 -12 -63 -16q-29 -6 -47 -6q-21 -2 -33 -2q-194 0 -328 127 q-67 66 -102 147q-37 82 -36 180q-174 62 -265 154q-45 47 -67.5 96t-22.5 109zM166 768q0 -98 63.5 -168.5t192.5 -120.5q19 156 84 312q66 153 168 280l-84 4q-194 0 -309 -84q-115 -83 -115 -223zM551 369q0 -164 96 -260q97 -96 254 -96l68 6q16 4 31 8q12 2 37 14 q-103 60 -154 152q-53 92 -53 215l-70 -10l-98 -2l-62 2l-47 6l-2 -19v-16zM557 447l66 -13l57 -4l72 4q14 0 34.5 4.5t45.5 10.5q16 119 61 227q43 107 111 197q94 135 196 209q101 71 197 71q37 0 68 -9q18 -5 36 -15q19 -12 31 -18l2 14l2 30q0 92 -71 154 q-72 59 -185 59q-116 0 -223 -65q-106 -66 -209 -199l72 -18l41 -15l8 -10l-6 -14l-10 -2l-15 2l-114 16q-103 -141 -168 -293q-68 -153 -99 -323zM940 332q0 -92 39 -162q37 -69 109 -110q73 32 149 102q76 68 135 154q105 151 158 311q53 158 53 305l-6 57q-6 27 -20 50 q-74 -213 -226 -363q-153 -149 -380 -233l-9 -60zM957 490q209 73 358 229q150 156 207 352q-19 23 -41.5 30.5t-60.5 11.5q-109 0 -246 -179q-137 -178 -217 -444zM1200 1731q0 53 11 82q8 26 20 26l35 -8l65 -12q15 -4 23 -23q6 -20 10 -59q0 -27 -14 -37q-21 -8 -60 -8 q-40 0 -69 8q-17 8 -21 31zM1516 1731q0 43 10 74q8 30 23 34l34 -8l68 -12l6 -6q10 -11 14 -21l9 -55q0 -27 -15 -35q-16 -10 -55 -10q-47 0 -70 10q-24 8 -24 29z" />
<glyph unicode="&#xd7;" horiz-adv-x="1655" d="M297 127l465 471l-465 473l68 68l465 -473l467 473l69 -68l-469 -473l469 -471l-69 -67l-467 473l-465 -473z" />
<glyph unicode="&#xd8;" horiz-adv-x="1737" d="M66 787q0 143 145 239q146 97 379 97l55 -2l64 -4q72 76 141 131q70 53 146 90q145 73 303 73l67 -6q33 -6 64 -20l196 331h13l41 -24l2 -14l-195 -330q41 -35 66 -82q22 -49 22 -113l-2 -37l-4 -34q37 -39 55 -105q21 -59 21 -141q0 -103 -37 -215 q-37 -115 -107.5 -230.5t-167.5 -207.5q-88 -84 -194 -142l53 -18l60 -6q69 0 143 28q72 27 141 82q154 117 346 373l4 -10l3 -13q0 -26 -27 -61q-23 -37 -98 -125q-78 -90 -144.5 -149.5t-128.5 -96.5q-117 -68 -244 -68q-32 0 -53 4q-20 4 -37 9q-16 4 -32.5 8t-40.5 17 q-15 -7 -52 -17q-36 -13 -63 -17q-29 -6 -49 -6q-21 -2 -33 -2q-25 0 -49 2q-27 2 -51 8q-25 7 -47.5 13t-49.5 21l-204 -343l-17 -2l-33 21v14l195 338q-96 64 -152 160q-24 47 -40 107q-17 57 -16 116q-179 64 -267 154q-45 47 -67.5 96t-22.5 109zM166 768 q0 -100 64 -170q61 -69 190 -119q8 76 31 156q20 78 53 156q66 151 170 280l-55 4h-31q-192 0 -307 -84q-115 -83 -115 -223zM551 369q0 -164 96 -260q97 -96 254 -96l68 6q16 4 31 8q12 2 37 14q-103 60 -154 152q-53 92 -53 215l-70 -10l-98 -2l-62 2l-47 6l-2 -19v-16z M557 447l66 -13l57 -4l72 4q14 0 34.5 4.5t45.5 10.5q16 119 61 227q43 107 111 197q94 135 196 209q101 71 197 71q37 0 66 -10q14 -4 28 -10q12 -6 39 -22l4 24l2 20q0 92 -71 154q-74 59 -185 59q-119 0 -223 -63q-106 -66 -209 -201l88 -24l23 -9l8 -12l-8 -12l-8 -4 l-78 12l-49 8q-103 -141 -168 -293q-68 -153 -99 -323zM940 332q0 -92 39 -162q37 -69 109 -110q73 32 149 102q76 68 135 154q101 143 156 305q53 162 53 311l-6 59l-18 48q-74 -213 -226 -363q-153 -149 -380 -233l-9 -60zM955 490q211 73 360 229q150 156 207 352 q-19 23 -41.5 30.5t-60.5 11.5q-111 0 -248 -179q-138 -178 -217 -444z" />
<glyph unicode="&#xd9;" horiz-adv-x="2132" d="M166 1121q0 139 125 225q123 84 334 84q65 0 127 -6q59 -8 131 -27q123 -31 227 -92q90 -55 137 -127q48 -72 48 -154q0 -37 -11 -86q-10 -49 -24 -96q-21 -53 -29 -82l-156 -469l-22 -78l-6 -69q0 -43 39 -74t92 -31q104 0 235 111q129 108 287 336q88 340 191 563 q102 221 204 315l13 -2l4 -20l2 -19q0 -129 -74 -327.5t-203 -395.5l-57 -254q-18 -98 -18 -163q0 -74 23.5 -115t66.5 -41q59 0 170 117q108 114 299 376l6 -12l2 -12q0 -41 -113 -184l-6 -9q-65 -84 -127.5 -151.5t-105.5 -106.5q-95 -78 -164 -78q-78 0 -119 60 q-41 57 -41 162l6 84q2 24 6 51q4 24 13 59q-154 -205 -293 -305q-142 -103 -283 -103q-80 0 -137 48q-51 47 -51 121q0 24 10 75q8 52 31 117l168 524l28 107q2 20 6 41q2 18 2 43q0 143 -122.5 231t-333.5 88q-197 0 -305 -73q-112 -74 -112 -203q0 -127 120 -203 q63 -39 143 -59q78 -21 178 -21l51 2l58 4l8 -6l2 -14l-6 -14l-64 -9l-81 -2q-236 0 -381 99q-148 96 -148 250zM1608 1938q0 14 14 32q19 15 37 15q14 0 26.5 -8.5t33.5 -44.5l116 -222h-55l-143 170q-13 11 -23 31z" />
<glyph unicode="&#xda;" horiz-adv-x="2132" d="M166 1121q0 139 125 225q123 84 334 84q65 0 127 -6q59 -8 131 -27q123 -31 227 -92q90 -55 137 -127q48 -72 48 -154q0 -37 -11 -86q-10 -49 -24 -96q-21 -53 -29 -82l-156 -469l-22 -78l-6 -69q0 -43 39 -74t92 -31q104 0 235 111q129 108 287 336q88 340 191 563 q102 221 204 315l13 -2l4 -20l2 -19q0 -129 -74 -327.5t-203 -395.5l-57 -254q-18 -98 -18 -163q0 -74 23.5 -115t66.5 -41q59 0 170 117q108 114 299 376l6 -12l2 -12q0 -41 -113 -184l-6 -9q-65 -84 -127.5 -151.5t-105.5 -106.5q-95 -78 -164 -78q-78 0 -119 60 q-41 57 -41 162l6 84q2 24 6 51q4 24 13 59q-154 -205 -293 -305q-142 -103 -283 -103q-80 0 -137 48q-51 47 -51 121q0 24 10 75q8 52 31 117l168 524l28 107q2 20 6 41q2 18 2 43q0 143 -122.5 231t-333.5 88q-197 0 -305 -73q-112 -74 -112 -203q0 -127 120 -203 q63 -39 143 -59q78 -21 178 -21l51 2l58 4l8 -6l2 -14l-6 -14l-64 -9l-81 -2q-236 0 -381 99q-148 96 -148 250zM1514 1682l272 241l33 23q20 10 29 10q14 0 32 -14q13 -17 13 -37q0 -16 -13 -33l-39 -31l-272 -159h-55z" />
<glyph unicode="&#xdb;" horiz-adv-x="2132" d="M166 1121q0 139 125 225q123 84 334 84q65 0 127 -6q59 -8 131 -27q123 -31 227 -92q90 -55 137 -127q48 -72 48 -154q0 -37 -11 -86q-10 -49 -24 -96q-21 -53 -29 -82l-156 -469l-22 -78l-6 -69q0 -43 39 -74t92 -31q104 0 235 111q129 108 287 336q88 340 191 563 q102 221 204 315l13 -2l4 -20l2 -19q0 -129 -74 -327.5t-203 -395.5l-57 -254q-18 -98 -18 -163q0 -74 23.5 -115t66.5 -41q59 0 170 117q108 114 299 376l6 -12l2 -12q0 -41 -113 -184l-6 -9q-65 -84 -127.5 -151.5t-105.5 -106.5q-95 -78 -164 -78q-78 0 -119 60 q-41 57 -41 162l6 84q2 24 6 51q4 24 13 59q-154 -205 -293 -305q-142 -103 -283 -103q-80 0 -137 48q-51 47 -51 121q0 24 10 75q8 52 31 117l168 524l28 107q2 20 6 41q2 18 2 43q0 143 -122.5 231t-333.5 88q-197 0 -305 -73q-112 -74 -112 -203q0 -127 120 -203 q63 -39 143 -59q78 -21 178 -21l51 2l58 4l8 -6l2 -14l-6 -14l-64 -9l-81 -2q-236 0 -381 99q-148 96 -148 250zM1293 1725l307 266h96l158 -266h-52l-159 178l-287 -178h-63z" />
<glyph unicode="&#xdc;" horiz-adv-x="2132" d="M166 1121q0 139 125 225q123 84 334 84q65 0 127 -6q59 -8 131 -27q123 -31 227 -92q90 -55 137 -127q48 -72 48 -154q0 -37 -11 -86q-10 -49 -24 -96q-21 -53 -29 -82l-156 -469l-22 -78l-6 -69q0 -43 39 -74t92 -31q104 0 235 111q129 108 287 336q88 340 191 563 q102 221 204 315l13 -2l4 -20l2 -19q0 -129 -74 -327.5t-203 -395.5l-57 -254q-18 -98 -18 -163q0 -74 23.5 -115t66.5 -41q59 0 170 117q108 114 299 376l6 -12l2 -12q0 -41 -113 -184l-6 -9q-65 -84 -127.5 -151.5t-105.5 -106.5q-95 -78 -164 -78q-78 0 -119 60 q-41 57 -41 162l6 84q2 24 6 51q4 24 13 59q-154 -205 -293 -305q-142 -103 -283 -103q-80 0 -137 48q-51 47 -51 121q0 24 10 75q8 52 31 117l168 524l28 107q2 20 6 41q2 18 2 43q0 143 -122.5 231t-333.5 88q-197 0 -305 -73q-112 -74 -112 -203q0 -127 120 -203 q63 -39 143 -59q78 -21 178 -21l51 2l58 4l8 -6l2 -14l-6 -14l-64 -9l-81 -2q-236 0 -381 99q-148 96 -148 250zM1514 1774q0 53 10 82q8 26 20 26l35 -8l66 -12q14 -4 22 -23q6 -20 11 -59q0 -27 -15 -37q-20 -8 -59 -8q-41 0 -70 8q-16 8 -20 31zM1829 1774q0 43 9.5 73.5 t23.5 34.5l35 -8l67 -12l6 -6q11 -11 15 -21l8 -55q0 -27 -14 -35q-17 -10 -56 -10q-47 0 -69 10q-25 8 -25 29z" />
<glyph unicode="&#xdd;" horiz-adv-x="2130" d="M185 1063q0 148 139 232q139 82 377 82q252 0 411 -107q158 -106 158 -266v-25q-6 -31 -8 -47q-12 -57 -15 -70q-4 -12 -20 -61l-117 -375q-12 -35 -22 -76q-13 -41 -17 -59l-10 -94q0 -55 25 -90q28 -31 73 -31q93 0 228 152q67 77 141 186q72 108 152 248l180 334 q33 59 45 86q22 45 51 108l10 23q25 55 52 61l94 21h8q10 -2 12 -5l6 -16l-2 -8l-159 -715q-134 -607 -293.5 -852.5t-419.5 -282.5l-10 6l-11 33l-4 41q0 84 51 170q52 84 150 154h14l13 -13l-2 -12q-62 -49 -93 -109q-30 -53 -30 -118l2 -43l10 -39q147 37 242 196 q92 158 166 523l176 844q-320 -606 -496 -822q-176 -215 -326 -215q-88 0 -141 56q-53 53 -53 153q0 33 8 74q6 39 25 92l154 490l16 78l8 71q0 138 -115 221q-117 84 -301 84q-172 0 -291 -79q-121 -80 -121 -193q0 -98 93 -164q92 -65 235 -65l88 6q19 2 45 10q27 6 41 10 l17 -2l2 -18l-2 -15q-56 -20 -117 -32q-64 -13 -129 -13q-176 0 -285 78q-108 78 -108 209zM1622 1710l273 242l32 23q21 10 29 10q14 0 33 -15q12 -16 12 -36q0 -17 -12 -33l-39 -31l-272 -160h-56z" />
<glyph unicode="&#xde;" horiz-adv-x="1637" d="M203 850q0 172 199 291q196 117 506 117h73q29 0 109 -8q80 -10 151 -27q66 115 140 203q71 86 129 120l10 3l16 -11l-4 -12q-59 -59 -108 -139q-52 -80 -95 -189q177 -65 263 -168q85 -102 85 -245q0 -125 -63 -234q-65 -110 -188 -184q-64 -42 -138 -62 q-73 -21 -137 -21l-74 2l-40 3q-82 -162 -205 -246q-125 -86 -277 -86q-116 0 -202 58q-87 55 -87 127q0 65 72 102q70 37 189 37l14 2h14h10l17 -4l6 -4v-15l-8 -8q-47 0 -84 -8q-39 -10 -70 -29q-51 -28 -51 -88q0 -57 55 -98q56 -37 140 -37q127 0 219 105q45 55 94 157 q47 101 100 254l49 158q95 321 191 512q-31 8 -68 16q-39 8 -71 8q-33 5 -66 9q-35 2 -92 2q-266 0 -436.5 -105.5t-170.5 -259.5q0 -106 79 -180q77 -74 233 -111l6 -6l-6 -24l-12 -7q-199 25 -310 109q-106 88 -106 221zM1059 340l37 -6h55q176 0 299 127q121 127 121 309 q0 127 -68 228q-69 98 -194 153q-31 -80 -107 -364q-38 -150 -71 -256q-35 -107 -72 -191z" />
<glyph unicode="&#xdf;" horiz-adv-x="963" d="M39 -10q0 37 8 92q9 55 17 96q8 39 20 76l152 543q28 111 67 205q39 92 88 168q97 145 232 227l12 -2q86 -59 137 -145t51 -164q0 -70 -35 -127q-37 -54 -126 -113l-45 -31q-125 -80 -125 -131q0 -57 108 -143l52 -39q75 -59 107.5 -111.5t32.5 -113.5q0 -51 -22 -99 q-8 -18 -24.5 -41.5t-34.5 -44.5q82 21 182 131q49 54 111 140q59 86 127 192l6 -10l2 -14q0 -29 -27 -76q-24 -51 -78 -121q-108 -151 -200 -223q-94 -71 -203 -84q-18 -8 -61 -22q-19 -7 -50 -15q-32 -10 -75 -10q-84 0 -140 30q-55 31 -55 80q0 39 35 66q39 24 88 24 l23 -4l24 -6q-24 -28 -31 -39q-6 -10 -10 -37q0 -26 29 -49q31 -18 78 -18q79 0 135 49q53 49 53 127q0 41 -18 78q-7 12 -15 26q-14 25 -35 41l-77 68q-138 111 -138 201q0 45 23 82q20 34 86 88l16 16q211 174 211 313q0 29 -6 56q-6 24 -24 55q-27 57 -80 106 q-68 -47 -127.5 -169.5t-169.5 -503.5l-234 -810h-10q-8 8 -14 23q-9 14 -13 39q-6 24 -8 36.5t-2 41.5z" />
<glyph unicode="&#xe0;" horiz-adv-x="815" d="M-13 197q0 88 54 186q51 99 146 187q61 57 139 90q76 30 153 30q50 0 77.5 -6t52 -14t45.5 -16l10 -15q0 -28 -25 -102l-18 -64l-90 -307l-2 -6l-11 -66q0 -12 13 -26q10 -15 24 -15q47 0 142 109q41 47 116 145q74 99 166 232l2 -14l2 -13q0 -33 -61 -119l-10 -14 l-13 -14q-280 -382 -395 -382q-45 0 -72 25t-27 74q0 29 15 80q12 55 20 82q16 41 23 63q-50 -88 -91 -147q-42 -61 -79 -100q-76 -77 -141 -77q-76 0 -119 58q-46 53 -46 156zM114 137q0 -36 19 -61q17 -27 43 -27q70 0 174 152q105 152 209 414q-4 6 -14 12q-10 4 -29 12 q-18 6 -47 6q-49 0 -96 -39q-53 -38 -109 -116q-74 -103 -111 -195q-39 -92 -39 -158zM274 991q0 15 15 33q18 15 37 15q14 0 27 -9q12 -8 32 -45l117 -221h-55l-144 170q-12 10 -23 31z" />
<glyph unicode="&#xe1;" horiz-adv-x="815" d="M-13 197q0 88 54 186q51 99 146 187q61 57 139 90q76 30 153 30q50 0 77.5 -6t52 -14t45.5 -16l10 -15q0 -28 -25 -102l-18 -64l-90 -307l-2 -6l-11 -66q0 -12 13 -26q10 -15 24 -15q47 0 142 109q41 47 116 145q74 99 166 232l2 -14l2 -13q0 -33 -61 -119l-10 -14 l-13 -14q-280 -382 -395 -382q-45 0 -72 25t-27 74q0 29 15 80q12 55 20 82q16 41 23 63q-50 -88 -91 -147q-42 -61 -79 -100q-76 -77 -141 -77q-76 0 -119 58q-46 53 -46 156zM114 137q0 -36 19 -61q17 -27 43 -27q70 0 174 152q105 152 209 414q-4 6 -14 12q-10 4 -29 12 q-18 6 -47 6q-49 0 -96 -39q-53 -38 -109 -116q-74 -103 -111 -195q-39 -92 -39 -158zM280 764l273 242l33 22q20 11 29 11q14 0 32 -15q13 -16 13 -37q0 -16 -13 -32l-38 -31l-273 -160h-56z" />
<glyph unicode="&#xe2;" horiz-adv-x="815" d="M-13 197q0 88 54 186q51 99 146 187q61 57 139 90q76 30 153 30q50 0 77.5 -6t52 -14t45.5 -16l10 -15q0 -28 -25 -102l-18 -64l-90 -307l-2 -6l-11 -66q0 -12 13 -26q10 -15 24 -15q47 0 142 109q41 47 116 145q74 99 166 232l2 -14l2 -13q0 -33 -61 -119l-10 -14 l-13 -14q-280 -382 -395 -382q-45 0 -72 25t-27 74q0 29 15 80q12 55 20 82q16 41 23 63q-50 -88 -91 -147q-42 -61 -79 -100q-76 -77 -141 -77q-76 0 -119 58q-46 53 -46 156zM102 764l308 266h96l158 -266h-51l-160 178l-287 -178h-64zM114 137q0 -36 19 -61 q17 -27 43 -27q70 0 174 152q105 152 209 414q-4 6 -14 12q-10 4 -29 12q-18 6 -47 6q-49 0 -96 -39q-53 -38 -109 -116q-74 -103 -111 -195q-39 -92 -39 -158z" />
<glyph unicode="&#xe3;" horiz-adv-x="815" d="M-13 197q0 88 54 186q51 99 146 187q61 57 139 90q76 30 153 30q50 0 77.5 -6t52 -14t45.5 -16l10 -15q0 -28 -25 -102l-18 -64l-90 -307l-2 -6l-11 -66q0 -12 13 -26q10 -15 24 -15q47 0 142 109q41 47 116 145q74 99 166 232l2 -14l2 -13q0 -33 -61 -119l-10 -14 l-13 -14q-280 -382 -395 -382q-45 0 -72 25t-27 74q0 29 15 80q12 55 20 82q16 41 23 63q-50 -88 -91 -147q-42 -61 -79 -100q-76 -77 -141 -77q-76 0 -119 58q-46 53 -46 156zM114 137q0 -36 19 -61q17 -27 43 -27q70 0 174 152q105 152 209 414q-4 6 -14 12q-10 4 -29 12 q-18 6 -47 6q-49 0 -96 -39q-53 -38 -109 -116q-74 -103 -111 -195q-39 -92 -39 -158zM162 791q25 90 66 131q38 41 98 41l35 -2l35 -6l139 -39l24 -6h21q37 0 61 20q23 21 31 61h43q-18 -86 -61 -135q-45 -45 -103 -45l-26 2l-27 8l-139 37l-33 9l-25 2q-37 0 -59 -19 q-23 -18 -33 -59h-47z" />
<glyph unicode="&#xe4;" horiz-adv-x="815" d="M-13 197q0 88 54 186q51 99 146 187q61 57 139 90q76 30 153 30q50 0 77.5 -6t52 -14t45.5 -16l10 -15q0 -28 -25 -102l-18 -64l-90 -307l-2 -6l-11 -66q0 -12 13 -26q10 -15 24 -15q47 0 142 109q41 47 116 145q74 99 166 232l2 -14l2 -13q0 -33 -61 -119l-10 -14 l-13 -14q-280 -382 -395 -382q-45 0 -72 25t-27 74q0 29 15 80q12 55 20 82q16 41 23 63q-50 -88 -91 -147q-42 -61 -79 -100q-76 -77 -141 -77q-76 0 -119 58q-46 53 -46 156zM114 137q0 -36 19 -61q17 -27 43 -27q70 0 174 152q105 152 209 414q-4 6 -14 12q-10 4 -29 12 q-18 6 -47 6q-49 0 -96 -39q-53 -38 -109 -116q-74 -103 -111 -195q-39 -92 -39 -158zM194 842q0 53 11 82q8 27 21 27l34 -9l66 -12q14 -4 22 -22q6 -21 10 -60q0 -27 -14 -37q-20 -8 -59 -8q-41 0 -70 8q-16 8 -21 31zM510 842q0 43 9.5 73.5t23.5 35.5l35 -9l67 -12 q4 -4 7 -6q10 -10 14 -21l8 -55q0 -27 -14 -35q-17 -10 -56 -10q-47 0 -69 10q-25 8 -25 29z" />
<glyph unicode="&#xe5;" horiz-adv-x="815" d="M-13 197q0 88 54 186q51 99 146 187q61 57 139 90q76 30 153 30q50 0 77.5 -6t52 -14t45.5 -16l10 -15q0 -28 -25 -102l-18 -64l-91 -307l-2 -6l-10 -66q0 -12 13 -26q10 -15 24 -15q47 0 142 109q41 47 116 145q74 99 166 232l2 -14l2 -13q0 -33 -61 -119l-10 -14 l-13 -14q-280 -382 -395 -382q-45 0 -72 25t-27 74q0 29 15 80q12 55 20 82q16 41 23 63q-50 -88 -91 -147q-42 -61 -79 -100q-76 -77 -141 -77q-76 0 -119 58q-46 53 -46 156zM115 137q0 -36 18 -61q17 -27 43 -27q70 0 174 152q105 152 209 414q-4 6 -14 12q-10 4 -29 12 q-18 6 -47 6q-49 0 -96 -39q-53 -38 -109 -116q-73 -103 -110 -195q-39 -92 -39 -158zM356 926q0 78 54 131q51 51 127 51q78 0 127 -53q53 -53 53 -129t-53 -129q-47 -54 -127 -54q-78 0 -129 54q-52 51 -52 129zM422 928q0 -51 33 -84q33 -35 82 -35t82 35q33 33 33 84 q0 47 -33 82q-35 33 -82 33t-80 -33q-35 -33 -35 -82z" />
<glyph unicode="&#xe6;" horiz-adv-x="1110" d="M-13 197q0 88 54 186q51 99 146 187q67 61 143 92q72 33 147 33q56 0 101 -19q43 -18 69 -55q27 18 48 33q20 12 45 22q47 19 98 19q70 0 117 -37q45 -41 45 -101q0 -94 -119 -192q-119 -101 -318 -162q0 -80 39 -125t109 -45q123 0 274 135q152 135 295 381l2 -12l2 -17 q0 -28 -20 -69q-12 -23 -25 -45q-18 -31 -37 -58q-131 -180 -270 -277q-139 -96 -270 -96q-107 0 -172 68q-62 68 -62 189v22q-78 -141 -145 -205q-70 -66 -131 -66q-76 0 -119 58q-46 53 -46 156zM115 137q0 -36 18 -61q17 -27 43 -27q70 0 174 152q105 152 209 414 q-18 18 -39 26q-20 6 -51 11q-43 0 -96 -41q-25 -21 -53 -52q-29 -30 -56 -69q-73 -103 -110 -195q-39 -92 -39 -158zM563 250q136 29 230 123q92 94 92 199q0 32 -16 59q-17 21 -43 21q-80 0 -156 -111q-78 -111 -107 -291z" />
<glyph unicode="&#xe7;" horiz-adv-x="707" d="M-105 -307l15 34q30 -16 55 -24q25 -10 70 -23q43 -14 80 -14q55 0 86 22q31 23 31 66q0 39 -31 63q-31 21 -84 21l-37 -2l-38 -6l59 169h51l-32 -108l30 4h18q78 0 121 -37q43 -41 43 -106q0 -61 -47 -98q-49 -39 -133 -39q-72 0 -139 22q-69 21 -118 56zM17 226 q0 69 33 155q35 80 94 148q69 80 149 125q78 43 154 43q73 0 116 -37q46 -33 46 -97q0 -49 -37 -84q-39 -34 -88 -34l-37 6q-15 8 -23 20q33 21 53 51q21 29 21 56q0 33 -16 53q-17 21 -50 23q-34 0 -71 -25t-70 -68q-57 -69 -94 -170.5t-37 -181.5q0 -84 39 -129t117 -45 q123 0 272 135q150 133 297 375v-10l2 -17q0 -26 -12 -53q-15 -29 -54 -90q-131 -190 -276 -295t-283 -105q-102 0 -176 70q-69 74 -69 181z" />
<glyph unicode="&#xe8;" horiz-adv-x="703" d="M23 226q0 81 35 163q34 80 98 158q55 68 133 111q78 39 141 39q72 0 119 -39q45 -41 45 -101q0 -98 -121 -194q-120 -99 -317 -160q0 -80 39 -125t108 -45q125 0 277 135q149 133 295 381l4 -10l2 -14q0 -27 -23 -72q-8 -19 -24 -45q-6 -12 -39 -60q-66 -90 -131 -157 q-68 -70 -139 -118q-140 -98 -271 -98q-104 0 -170 68q-61 68 -61 183zM156 250q139 31 231 125q90 92 90 197q0 34 -16 57q-20 20 -49 20q-78 0 -154 -116q-78 -117 -102 -283zM156 991q0 15 14 33q19 15 37 15q14 0 27 -9q12 -8 32 -45l117 -221h-55l-143 170 q-13 10 -23 31z" />
<glyph unicode="&#xe9;" horiz-adv-x="703" d="M23 226q0 81 35 163q34 80 98 158q55 68 133 111q78 39 141 39q72 0 119 -39q45 -41 45 -101q0 -98 -121 -194q-120 -99 -317 -160q0 -80 39 -125t108 -45q125 0 277 135q149 133 295 381l4 -10l2 -14q0 -27 -23 -72q-8 -19 -24 -45q-6 -12 -39 -60q-66 -90 -131 -157 q-68 -70 -139 -118q-140 -98 -271 -98q-104 0 -170 68q-61 68 -61 183zM156 250q139 31 231 125q90 92 90 197q0 34 -16 57q-20 20 -49 20q-78 0 -154 -116q-78 -117 -102 -283zM162 764l272 242l33 22q21 11 29 11q14 0 33 -15q12 -16 12 -37q0 -16 -12 -32l-39 -31 l-273 -160h-55z" />
<glyph unicode="&#xea;" horiz-adv-x="703" d="M-17 764l308 266h96l158 -266h-51l-160 178l-287 -178h-64zM23 226q0 81 35 163q34 80 98 158q55 68 133 111q78 39 141 39q72 0 119 -39q45 -41 45 -101q0 -98 -121 -194q-120 -99 -317 -160q0 -80 39 -125t108 -45q125 0 277 135q149 133 295 381l4 -10l2 -14 q0 -27 -23 -72q-8 -19 -24 -45q-6 -12 -39 -60q-66 -90 -131 -157q-68 -70 -139 -118q-140 -98 -271 -98q-104 0 -170 68q-61 68 -61 183zM156 250q139 31 231 125q90 92 90 197q0 34 -16 57q-20 20 -49 20q-78 0 -154 -116q-78 -117 -102 -283z" />
<glyph unicode="&#xeb;" horiz-adv-x="703" d="M23 226q0 81 35 163q34 80 98 158q55 68 133 111q78 39 141 39q72 0 119 -39q45 -41 45 -101q0 -98 -121 -194q-120 -99 -317 -160q0 -80 39 -125t108 -45q125 0 277 135q149 133 295 381l4 -10l2 -14q0 -27 -23 -72q-8 -19 -24 -45q-6 -12 -39 -60q-66 -90 -131 -157 q-68 -70 -139 -118q-140 -98 -271 -98q-104 0 -170 68q-61 68 -61 183zM76 842q0 53 10 82q8 27 21 27l35 -9l65 -12q14 -4 23 -22q6 -21 10 -60q0 -27 -14 -37q-21 -8 -60 -8q-41 0 -69 8q-17 8 -21 31zM156 250q139 31 231 125q90 92 90 197q0 34 -16 57q-20 20 -49 20 q-78 0 -154 -116q-78 -117 -102 -283zM391 842q0 43 11 74q8 30 22 35l35 -9l68 -12l6 -6q10 -10 14 -21l8 -55q0 -27 -14 -35q-16 -10 -55 -10q-47 0 -70 10q-25 8 -25 29z" />
<glyph unicode="&#xec;" horiz-adv-x="492" d="M37 111l6 53l21 76l127 395l16 25l23 10l71 14h8l11 -4l4 -10v-8l-137 -426l-23 -84l-8 -47q0 -25 12 -41q12 -19 37 -19q59 0 172 123q111 123 285 383l2 -16l2 -10q0 -46 -88 -166l-20 -29q-134 -182 -230 -262.5t-176 -80.5q-53 0 -84 34q-31 32 -31 90zM160 1077 q0 15 14 33q19 15 37 15q15 0 27 -9q12 -8 33 -45l117 -221h-55l-144 170q-13 10 -23 31z" />
<glyph unicode="&#xed;" horiz-adv-x="492" d="M37 111l6 53l21 76l127 395l16 25l23 10l71 14h8l11 -4l4 -10v-8l-137 -426l-23 -84l-8 -47q0 -25 12 -41q12 -19 37 -19q59 0 172 123q111 123 285 383l2 -16l2 -10q0 -46 -88 -166l-20 -29q-134 -182 -230 -262.5t-176 -80.5q-53 0 -84 34q-31 32 -31 90zM37 836 l272 241l33 23q21 10 29 10q14 0 33 -14q12 -16 12 -37q0 -16 -12 -33l-39 -30l-273 -160h-55z" />
<glyph unicode="&#xee;" horiz-adv-x="492" d="M-55 879l307 266h96l159 -266h-52l-160 178l-287 -178h-63zM38 111l6 53l20 76l127 395l16 25l23 10l71 14h8l11 -4l4 -10v-8l-137 -426l-22 -84l-9 -47q0 -25 12 -41q12 -19 37 -19q59 0 172 123q111 123 285 383l2 -16l2 -10q0 -46 -88 -166l-20 -29 q-134 -182 -230 -262.5t-176 -80.5q-53 0 -84 34q-30 32 -30 90z" />
<glyph unicode="&#xef;" horiz-adv-x="492" d="M37 111l6 53l21 76l127 395l16 25l23 10l71 14h8l11 -4l4 -10v-8l-137 -426l-23 -84l-8 -47q0 -25 12 -41q12 -19 37 -19q59 0 172 123q111 123 285 383l2 -16l2 -10q0 -46 -88 -166l-20 -29q-134 -182 -230 -262.5t-176 -80.5q-53 0 -84 34q-31 32 -31 90zM66 899 q0 54 10 82q8 27 21 27l34 -8l66 -13q14 -4 22 -22q7 -21 11 -60q0 -26 -15 -36q-20 -9 -59 -9q-41 0 -70 9q-16 8 -20 30zM382 899q0 43 9 74t23 35l35 -8l67 -13l6 -6q11 -10 15 -20l9 -56q0 -26 -15 -34q-17 -11 -56 -11q-47 0 -69 11q-24 8 -24 28z" />
<glyph unicode="&#xf0;" horiz-adv-x="832" d="M13 228q0 84 35 159q32 76 104 156q65 72 145 115q82 39 156 39q35 0 65 -13q29 -8 64 -32q0 83 -8 151q0 39 -6 74q-13 51 -17 76l-229 -84l-8 2l-11 24l9 13l229 83q-6 35 -16.5 74t-18.5 74q-8 33 -14 51q-17 43 -23 64l4 14l39 14l15 -10l65 -151l39 -97l229 84l9 -6 l10 -20l-8 -13l-227 -82q14 -41 24 -86q11 -45 23 -104q6 -53 10 -98q4 -47 4 -97q0 -110 -26 -211q-23 -98 -80 -196q6 -21 20 -31t30 -10q43 0 113 78q68 77 244 325l4 -10l2 -12q0 -21 -18 -58l-68 -100q-125 -172 -199 -242q-65 -61 -114 -61q-17 0 -35 8q-19 6 -41 29 q-66 -70 -137 -105q-37 -16 -68 -25q-33 -8 -70 -8q-112 0 -180 70q-69 68 -69 185zM156 193q0 -82 32.5 -127t94.5 -45q29 0 49 8q21 8 39 22q41 27 90 92.5t82 161.5q31 97 31 181q0 77 -37 125q-37 45 -94 45q-21 0 -58 -15q-32 -18 -57 -43q-74 -67 -122 -184 q-50 -119 -50 -221z" />
<glyph unicode="&#xf1;" horiz-adv-x="899" d="M0 8v15l4 12l176 580q9 30 21 39q8 12 25 14l69 16l12 2l13 -4l4 -12v-8l-137 -441q151 238 259.5 352.5t184.5 114.5q43 0 76 -32.5t33 -79.5q0 -25 -13 -68q-10 -49 -16 -72q-16 -38 -23 -59l-16 -43q-66 -190 -66 -229q0 -15 11 -23q10 -10 26 -10q47 0 145.5 110.5 t274.5 356.5l4 -12l2 -13q0 -39 -110 -186l-35 -45q-115 -156 -195 -225q-82 -73 -139 -73q-49 0 -84 38q-35 35 -35 88q0 35 58 203l32 98l37 117l11 47q0 12 -9 22q-10 8 -24 8q-35 0 -111 -79q-78 -82 -168 -209l-84 -127q-20 -37 -30 -58q-13 -22 -25 -53l-12 -29 q-17 -41 -47 -47l-72 -14h-10l-13 6q-4 8 -4 12zM254 791q25 90 66 131q39 41 98 41l35 -2l35 -6l139 -39l25 -6h20q37 0 61 20q23 21 31 61h43q-18 -86 -61 -135q-45 -45 -103 -45l-26 2l-27 8l-139 37l-33 9l-25 2q-36 0 -59 -19q-22 -18 -33 -59h-47z" />
<glyph unicode="&#xf2;" horiz-adv-x="832" d="M13 228q0 88 35 159q32 78 102 154q67 74 147 117q82 39 156 39q96 0 159.5 -74t63.5 -182q0 -58 -18 -119q-11 -35 -23 -62q-12 -26 -37 -65q6 -21 20.5 -31t30.5 -10q43 0 113 78q68 77 244 325l4 -10l2 -12q0 -21 -18 -58l-68 -100q-125 -172 -199 -242 q-65 -61 -114 -61q-17 0 -35 8q-19 6 -41 29q-66 -70 -137 -105q-37 -16 -68 -25q-33 -8 -70 -8q-112 0 -180 70q-69 68 -69 185zM156 193q0 -84 32.5 -129t94.5 -45q49 0 102 41q31 24 56 53q22 27 53 74l-12 32l-3 41q0 58 23 125q12 33 31 64q16 30 41 65q-13 70 -45 107 q-35 35 -86 35q-21 0 -58 -15q-32 -18 -57 -43q-74 -67 -122 -184q-50 -119 -50 -221zM295 991q0 15 14 33q19 15 37 15q15 0 27 -9q12 -8 33 -45l116 -221h-55l-143 170q-12 10 -23 31z" />
<glyph unicode="&#xf3;" horiz-adv-x="832" d="M13 228q0 88 35 159q32 78 102 154q67 74 147 117q82 39 156 39q96 0 159.5 -74t63.5 -182q0 -58 -18 -119q-11 -35 -23 -62q-12 -26 -37 -65q6 -21 20.5 -31t30.5 -10q43 0 113 78q68 77 244 325l4 -10l2 -12q0 -21 -18 -58l-68 -100q-125 -172 -199 -242 q-65 -61 -114 -61q-17 0 -35 8q-19 6 -41 29q-66 -70 -137 -105q-37 -16 -68 -25q-33 -8 -70 -8q-112 0 -180 70q-69 68 -69 185zM156 193q0 -84 32.5 -129t94.5 -45q49 0 102 41q31 24 56 53q22 27 53 74l-12 32l-3 41q0 58 23 125q12 33 31 64q16 30 41 65q-13 70 -45 107 q-35 35 -86 35q-21 0 -58 -15q-32 -18 -57 -43q-74 -67 -122 -184q-50 -119 -50 -221zM301 764l273 242l32 22q21 11 29 11q14 0 33 -15q12 -16 12 -37q0 -16 -12 -32l-39 -31l-272 -160h-56z" />
<glyph unicode="&#xf4;" horiz-adv-x="832" d="M13 228q0 88 35 159q32 78 102 154q67 74 147 117q82 39 156 39q96 0 159.5 -74t63.5 -182q0 -58 -18 -119q-11 -35 -23 -62q-12 -26 -37 -65q6 -21 20.5 -31t30.5 -10q43 0 113 78q68 77 244 325l4 -10l2 -12q0 -21 -18 -58l-68 -100q-125 -172 -199 -242 q-65 -61 -114 -61q-17 0 -35 8q-19 6 -41 29q-66 -70 -137 -105q-37 -16 -68 -25q-33 -8 -70 -8q-112 0 -180 70q-69 68 -69 185zM124 764l306 266h97l157 -266h-51l-160 178l-286 -178h-63zM156 193q0 -84 32.5 -129t94.5 -45q49 0 102 41q31 24 56 53q22 27 53 74l-12 32 l-3 41q0 58 23 125q12 33 31 64q16 30 41 65q-13 70 -45 107q-35 35 -86 35q-21 0 -58 -15q-32 -18 -57 -43q-74 -67 -122 -184q-50 -119 -50 -221z" />
<glyph unicode="&#xf5;" horiz-adv-x="832" d="M13 228q0 88 35 159q32 78 102 154q67 74 147 117q82 39 156 39q96 0 159.5 -74t63.5 -182q0 -58 -18 -119q-11 -35 -23 -62q-12 -26 -37 -65q6 -21 20.5 -31t30.5 -10q43 0 113 78q68 77 244 325l4 -10l2 -12q0 -21 -18 -58l-68 -100q-125 -172 -199 -242 q-65 -61 -114 -61q-17 0 -35 8q-19 6 -41 29q-66 -70 -137 -105q-37 -16 -68 -25q-33 -8 -70 -8q-112 0 -180 70q-69 68 -69 185zM156 193q0 -84 32.5 -129t94.5 -45q49 0 102 41q31 24 56 53q22 27 53 74l-12 32l-3 41q0 58 23 125q12 33 31 64q16 30 41 65q-13 70 -45 107 q-35 35 -86 35q-21 0 -58 -15q-32 -18 -57 -43q-74 -67 -122 -184q-50 -119 -50 -221zM183 791q24 90 65 131q39 41 98 41l35 -2l35 -6l139 -39l25 -6h20q37 0 62 20q22 21 30 61h43q-18 -86 -61 -135q-45 -45 -102 -45l-27 2l-27 8l-139 37l-33 9l-24 2q-37 0 -60 -19 q-22 -18 -32 -59h-47z" />
<glyph unicode="&#xf6;" horiz-adv-x="832" d="M13 228q0 88 35 159q32 78 102 154q67 74 147 117q82 39 156 39q96 0 159.5 -74t63.5 -182q0 -58 -18 -119q-11 -35 -23 -62q-12 -26 -37 -65q6 -21 20.5 -31t30.5 -10q43 0 113 78q68 77 244 325l4 -10l2 -12q0 -21 -18 -58l-68 -100q-125 -172 -199 -242 q-65 -61 -114 -61q-17 0 -35 8q-19 6 -41 29q-66 -70 -137 -105q-37 -16 -68 -25q-33 -8 -70 -8q-112 0 -180 70q-69 68 -69 185zM156 193q0 -84 32.5 -129t94.5 -45q49 0 102 41q31 24 56 53q22 27 53 74l-12 32l-3 41q0 58 23 125q12 33 31 64q16 30 41 65q-13 70 -45 107 q-35 35 -86 35q-21 0 -58 -15q-32 -18 -57 -43q-74 -67 -122 -184q-50 -119 -50 -221zM215 842q0 53 11 82q8 27 20 27l35 -9l65 -12q15 -4 23 -22q6 -21 10 -60q0 -27 -14 -37q-21 -8 -60 -8q-41 0 -69 8q-17 8 -21 31zM531 842q0 43 10 74q8 30 22 35l35 -9l68 -12l6 -6 q10 -10 14 -21l9 -55q0 -27 -15 -35q-16 -10 -55 -10q-47 0 -70 10q-24 8 -24 29z" />
<glyph unicode="&#xf7;" horiz-adv-x="1655" d="M246 551v94h1163v-94h-1163zM725 254q0 41 31 74q29 31 72 31q45 0 74.5 -31t29.5 -74q0 -41 -29 -71q-30 -33 -75 -33q-43 0 -72 30q-31 29 -31 74zM725 944q0 43 33 76q31 31 70 31q43 0 73 -31q31 -33 31 -76q0 -41 -29 -71q-30 -33 -75 -33q-43 0 -72 31 q-31 28 -31 73z" />
<glyph unicode="&#xf8;" horiz-adv-x="832" d="M6 -158l111 173q-53 34 -77 90q-27 51 -27 123q0 84 35 159q32 76 102 154q69 76 147 117q78 39 152 39l55 -7q27 -6 51 -20l103 160l14 2l23 -19l4 -12l-105 -160q41 -32 62 -88q20 -55 20 -112q0 -58 -20 -119q-11 -37 -15 -45q-16 -43 -43 -82q6 -21 20.5 -31 t30.5 -10q43 0 113 78q68 77 244 325l4 -10l2 -12q0 -21 -18 -58l-68 -100q-125 -172 -199 -242q-65 -61 -114 -61q-17 0 -35 8q-19 6 -41 29q-68 -70 -139 -105q-74 -35 -150 -35l-37 6l-45 17l-123 -181l-10 -4l-27 19v14zM156 193q0 -39 4 -56l10 -45l355 533l-37 22 l-43 9q-21 0 -60 -15q-32 -18 -57 -43q-74 -67 -122 -184q-50 -119 -50 -221zM201 51q16 -16 35 -24q16 -8 43 -8q51 0 104 41q25 18 53 51q29 33 58 76l-12 32l-3 41q0 58 23 125q12 33 31 64q16 30 41 65l-9 33l-12 33z" />
<glyph unicode="&#xf9;" horiz-adv-x="895" d="M18 90l6 50l21 71l138 420q10 33 34 37l82 16h8l13 -2l3 -12l-2 -12l-157 -469l-15 -49l-4 -39q0 -21 11 -29q6 -8 27 -12q43 0 151 118q107 119 231 314l54 106q28 66 57 72l76 16l16 -4l4 -12l-4 -16l-153 -461l-15 -49l-4 -39q0 -19 10 -29q11 -12 29 -16 q51 0 152 118q53 62 118 154q54 74 156 229l6 -14l2 -12q0 -41 -104 -193l-12 -18q-125 -172 -218 -256q-92 -87 -155 -87q-45 0 -76 34q-31 30 -31 86q0 34 24 114q23 84 75 219q-78 -118 -144 -202q-65 -86 -123 -146q-108 -105 -184 -105q-47 0 -74 29q-29 27 -29 80z M358 991q0 15 15 33q18 15 37 15q14 0 26 -9q13 -8 33 -45l117 -221h-55l-144 170q-12 10 -23 31z" />
<glyph unicode="&#xfa;" horiz-adv-x="895" d="M18 90l6 50l21 71l138 420q10 33 34 37l82 16h8l13 -2l3 -12l-2 -12l-157 -469l-15 -49l-4 -39q0 -21 11 -29q6 -8 27 -12q43 0 151 118q107 119 231 314l54 106q28 66 57 72l76 16l16 -4l4 -12l-4 -16l-153 -461l-15 -49l-4 -39q0 -19 10 -29q11 -12 29 -16 q51 0 152 118q53 62 118 154q54 74 156 229l6 -14l2 -12q0 -41 -104 -193l-12 -18q-125 -172 -218 -256q-92 -87 -155 -87q-45 0 -76 34q-31 30 -31 86q0 34 24 114q23 84 75 219q-78 -118 -144 -202q-65 -86 -123 -146q-108 -105 -184 -105q-47 0 -74 29q-29 27 -29 80z M364 764l273 242l33 22q20 11 29 11q14 0 32 -15q13 -16 13 -37q0 -16 -13 -32l-39 -31l-272 -160h-56z" />
<glyph unicode="&#xfb;" horiz-adv-x="895" d="M18 90l6 50l21 71l138 420q10 33 34 37l82 16h8l13 -2l3 -12l-2 -12l-157 -469l-15 -49l-4 -39q0 -21 11 -29q6 -8 27 -12q43 0 151 118q107 119 231 314l54 106q28 66 57 72l76 16l16 -4l4 -12l-4 -16l-153 -461l-15 -49l-4 -39q0 -19 10 -29q11 -12 29 -16 q51 0 152 118q53 62 118 154q54 74 156 229l6 -14l2 -12q0 -41 -104 -193l-12 -18q-125 -172 -218 -256q-92 -87 -155 -87q-45 0 -76 34q-31 30 -31 86q0 34 24 114q23 84 75 219q-78 -118 -144 -202q-65 -86 -123 -146q-108 -105 -184 -105q-47 0 -74 29q-29 27 -29 80z M186 764l308 266h96l158 -266h-51l-160 178l-287 -178h-64z" />
<glyph unicode="&#xfc;" horiz-adv-x="895" d="M18 90l6 50l21 71l138 420q10 33 34 37l82 16h8l13 -2l3 -12l-2 -12l-157 -469l-15 -49l-4 -39q0 -21 11 -29q6 -8 27 -12q43 0 151 118q107 119 231 314l54 106q28 66 57 72l76 16l16 -4l4 -12l-4 -16l-153 -461l-15 -49l-4 -39q0 -19 10 -29q11 -12 29 -16 q51 0 152 118q53 62 118 154q54 74 156 229l6 -14l2 -12q0 -41 -104 -193l-12 -18q-125 -172 -218 -256q-92 -87 -155 -87q-45 0 -76 34q-31 30 -31 86q0 34 24 114q23 84 75 219q-78 -118 -144 -202q-65 -86 -123 -146q-108 -105 -184 -105q-47 0 -74 29q-29 27 -29 80z M278 842q0 53 11 82q8 27 20 27l35 -9l66 -12q14 -4 22 -22q6 -21 10 -60q0 -27 -14 -37q-20 -8 -59 -8q-41 0 -70 8q-16 8 -21 31zM594 842q0 43 9.5 73.5t23.5 35.5l35 -9l67 -12l6 -6q11 -10 15 -21l8 -55q0 -27 -14 -35q-17 -10 -56 -10q-47 0 -69 10q-25 8 -25 29z" />
<glyph unicode="&#xfd;" horiz-adv-x="895" d="M33 117l6 47q4 14 6 31q2 14 13 41l129 403q2 13 14 21l25 8l75 10l15 -2l4 -8l-2 -6l-2 -8l-142 -459l-10 -43l-2 -41q0 -12 10 -25q11 -12 29 -12q55 0 137 88q80 86 184 252q46 68 91 164q18 41 39 65q18 25 26 27l82 10l12 -2l4 -8l-24 -78q-57 -149 -105 -301 q-47 -154 -90 -328q49 41 107 101q57 57 121 127q120 141 272 346l4 -12l2 -13q0 -26 -18.5 -57t-98.5 -131q-79 -103 -133 -164q-53 -61 -104 -117q-92 -92 -168 -148q-49 -190 -141 -311q-95 -123 -230 -172l-10 2l-12 39l-2 45q0 111 72.5 218.5t222.5 213.5q2 25 10 62 q6 35 18 82q21 82 43 166q33 98 49 156q-118 -195 -227 -295q-108 -101 -201 -101q-43 0 -73 33q-27 33 -27 84zM234 -430l2 -35l10 -39q76 39 125 137q47 96 65 240q-108 -76 -155 -150q-47 -73 -47 -153zM365 764l272 242l33 22q20 11 29 11q14 0 32 -15q13 -16 13 -37 q0 -16 -13 -32l-39 -31l-272 -160h-55z" />
<glyph unicode="&#xfe;" horiz-adv-x="860" d="M-72 -348q0 139 37 274q20 70 50 138q28 65 71 141l223 1016q7 24 15 29q10 10 24 12l82 18l17 -6l4 -18l-197 -826q103 144 182 205q78 62 154 62q74 0 117 -50q41 -51 41 -122q0 -111 -82 -213q-41 -52 -98 -97q-58 -47 -140 -90q19 -26 47 -41q29 -16 68 -16 q94 0 209 115q113 112 287 382l6 -14v-14q0 -31 -25 -74q-22 -49 -88 -129q-143 -190 -244 -264q-100 -76 -198 -76q-80 0 -146.5 37t-66.5 72q0 16 53 41l57 30q103 66 160 148t57 168q0 47 -26 75q-29 29 -68 29q-53 0 -129 -76q-37 -36 -74 -88q-38 -51 -77 -116 q-47 -209 -82 -349q-41 -166 -70 -262q-63 -219 -113 -291h-8l-21 109q-8 51 -8 131zM-29 -328l4 -49l12 -49q21 35 44 174q22 137 31 203q6 66 6 125q-45 -72 -70 -181q-27 -108 -27 -223z" />
<glyph unicode="&#xff;" horiz-adv-x="895" d="M33 117l6 47q4 14 6 31q2 14 13 41l129 403q2 13 14 21l25 8l75 10l15 -2l4 -8l-2 -6l-2 -8l-142 -459l-10 -43l-2 -41q0 -12 10 -25q11 -12 29 -12q55 0 137 88q80 86 184 252q46 68 91 164q18 41 39 65q18 25 26 27l82 10l12 -2l4 -8l-24 -78q-57 -149 -105 -301 q-47 -154 -90 -328q49 41 107 101q57 57 121 127q120 141 272 346l4 -12l2 -13q0 -26 -18.5 -57t-98.5 -131q-79 -103 -133 -164q-53 -61 -104 -117q-92 -92 -168 -148q-49 -190 -141 -311q-95 -123 -230 -172l-10 2l-12 39l-2 45q0 111 72.5 218.5t222.5 213.5q2 25 10 62 q6 35 18 82q21 82 43 166q33 98 49 156q-118 -195 -227 -295q-108 -101 -201 -101q-43 0 -73 33q-27 33 -27 84zM234 -430l2 -35l10 -39q76 39 125 137q47 96 65 240q-108 -76 -155 -150q-47 -73 -47 -153zM279 842q0 53 10 82q8 27 20 27l35 -9l66 -12q14 -4 22 -22 q7 -21 11 -60q0 -27 -15 -37q-20 -8 -59 -8q-41 0 -70 8q-16 8 -20 31zM594 842q0 43 9.5 73.5t23.5 35.5l35 -9l67 -12l6 -6q11 -10 15 -21l8 -55q0 -27 -14 -35q-17 -10 -56 -10q-47 0 -69 10q-25 8 -25 29z" />
<glyph unicode="&#x152;" horiz-adv-x="2538" d="M66 787q0 143 145 239q146 97 379 97l55 -2l64 -4q139 145 282 221q144 75 289 75q137 0 217 -71q78 -72 78 -191l-2 -35l-4 -34q39 -54 57 -111q19 -57 19 -133q0 -78 -15 -146q-16 -67 -45 -129q88 82 220 138q129 55 307 82q-152 18 -240 87.5t-88 176.5q0 65 35 121 q16 26 43 53q24 24 63 53q74 53 179 87q104 30 208 30q101 0 160 -39q58 -41 58 -102q0 -93 -91 -148q-90 -57 -243 -57h-39l-25 4l-10 4l2 24l10 7l33 -4l43 -3q94 0 158 41q59 43 59 111q0 49 -39 84q-39 33 -100 33q-146 0 -252 -88q-109 -88 -109 -207q0 -92 76 -156.5 t223 -93.5l11 -10l-2 -21l-11 -6q-297 -39 -479 -182q-184 -143 -184 -322q0 -114 84 -182q84 -67 233 -67q170 0 291 81q121 82 121 191q0 65 -45 104q-47 39 -125 39q-66 0 -150 -37q-71 -30 -208 -125l-13 2l-8 15l4 12q135 107 246 156q110 47 207 47q94 0 156.5 -49 t62.5 -123q0 -62 -36 -113q-17 -28 -41 -53q-26 -25 -66 -55q-95 -70 -211 -107q-56 -17 -117 -27q-64 -10 -121 -10q-188 0 -297 86q-108 86 -108 236q-115 -144 -252.5 -225.5t-278.5 -81.5q-194 0 -328 127q-67 66 -102 147q-37 82 -36 180q-179 64 -267 154 q-45 47 -67.5 96t-22.5 109zM164 768q0 -94 64 -170q63 -69 192 -118q8 76 31 156q20 77 53 155q66 151 170 280l-55 4h-31q-195 0 -309 -84q-115 -83 -115 -223zM549 367q0 -160 94 -254q95 -96 250 -96q117 0 215 51q96 52 201 166q123 143 199 331q73 189 73 367l-6 59 l-18 48q-37 -109 -94 -201q-60 -92 -140 -168q-153 -150 -381 -231l-4 -46l-2 -40q0 -66 10 -115q11 -51 37 -109l-2 -10l-12 -8l-14 4q-47 51 -76 129q-12 35 -23 82q-10 45 -10 88l-84 -14l-98 -4l-64 2l-49 6l-2 -15v-22zM557 447l66 -13l61 -4l84 6q47 7 80 21 q10 117 47 213q21 55 47 104q25 50 62 99q96 135 196 209q99 71 197 71q37 0 66 -10q14 -4 28 -10q12 -6 39 -22l5 24l2 20q0 92 -72 154q-74 60 -185 60q-119 0 -227 -68q-111 -68 -209 -197l76 -18l41 -15l4 -12l-4 -10l-10 -2l-76 10l-51 6q-103 -141 -168 -293 q-68 -153 -99 -323zM953 488q206 74 358 228.5t211 354.5q-19 23 -35 29q-18 5 -35 9q-16 2 -35 4q-51 0 -116.5 -49t-145.5 -148q-71 -96 -129 -207q-22 -49 -41.5 -108.5t-31.5 -112.5z" />
<glyph unicode="&#x153;" horiz-adv-x="1196" d="M13 228q0 88 35 159q32 78 102 154q67 74 147 117q82 39 156 39q65 0 119 -37q53 -39 84 -105q65 70 135 107q69 35 133 35q70 0 115 -39t45 -101q0 -96 -117 -194q-119 -99 -320 -160q0 -78 41 -123q39 -47 109 -47q121 0 272 135q152 133 297 381l2 -12l2 -12 q0 -31 -20 -72q-6 -10 -27 -43q-20 -35 -39 -62q-131 -184 -268 -279q-139 -96 -268 -96q-78 0 -131 35q-54 33 -82 101q-33 -35 -62.5 -58.5t-68.5 -42.5q-70 -35 -140 -35q-114 0 -182.5 70t-68.5 185zM156 195q0 -84 32.5 -129t96.5 -45q47 0 102 37q56 43 103 112 q43 72 67 148q23 73 23 147q0 84 -35 137q-39 52 -96 52q-23 0 -62 -15q-30 -14 -59 -41q-74 -67 -122 -182q-50 -117 -50 -221zM647 250q138 29 230 121q90 90 90 201q0 39 -14 59q-15 18 -45 23q-80 0 -156 -115q-78 -117 -105 -289z" />
<glyph unicode="&#x178;" horiz-adv-x="2130" d="M185 1063q0 148 139 232q139 82 377 82q252 0 411 -107q158 -106 158 -266v-25q-6 -31 -8 -47q-12 -57 -15 -70q-4 -12 -20 -61l-117 -375q-12 -35 -22 -76q-13 -41 -17 -59l-10 -94q0 -55 25 -90q28 -31 73 -31q93 0 228 152q67 77 141 186q72 108 152 248l180 334 q33 59 45 86q22 45 51 108l10 23q25 55 52 61l94 21h8q10 -2 12 -5l6 -16l-2 -8l-159 -715q-134 -607 -293.5 -852.5t-419.5 -282.5l-10 6l-11 33l-4 41q0 84 51 170q52 84 150 154h14l13 -13l-2 -12q-62 -49 -93 -109q-30 -53 -30 -118l2 -43l10 -39q147 37 242 196 q92 158 166 523l176 844q-320 -606 -496 -822q-176 -215 -326 -215q-88 0 -141 56q-53 53 -53 153q0 33 8 74q6 39 25 92l154 490l16 78l8 71q0 138 -115 221q-117 84 -301 84q-172 0 -291 -79q-121 -80 -121 -193q0 -98 93 -164q92 -65 235 -65l88 6q19 2 45 10q27 6 41 10 l17 -2l2 -18l-2 -15q-56 -20 -117 -32q-64 -13 -129 -13q-176 0 -285 78q-108 78 -108 209zM1213 1741q0 51 10 80q8 27 20 27l33 -9l64 -12q14 -4 22 -22q6 -19 10 -58q0 -26 -14 -37q-10 -4 -20 -6q-13 -2 -37 -2q-39 0 -68 8q-16 9 -20 31zM1520 1741q0 45 8 73.5 t23 33.5l34 -9l66 -12q14 -14 18 -27l9 -53q0 -24 -13 -37q-16 -8 -55 -8q-45 0 -70 8q-20 11 -20 31z" />
<glyph unicode="&#x2c6;" horiz-adv-x="994" d="M291 764l307 266h97l157 -266h-51l-160 178l-286 -178h-64z" />
<glyph unicode="&#x2dc;" horiz-adv-x="994" d="M350 791q25 90 66 131q39 41 98 41l35 -2l35 -6l139 -39l25 -6h20q37 0 62 20q22 21 30 61h43q-18 -86 -61 -135q-45 -45 -102 -45l-27 2l-27 8l-139 37l-33 9l-24 2q-37 0 -60 -19q-22 -18 -32 -59h-48z" />
<glyph unicode="&#x2000;" horiz-adv-x="999" />
<glyph unicode="&#x2001;" horiz-adv-x="1999" />
<glyph unicode="&#x2002;" horiz-adv-x="999" />
<glyph unicode="&#x2003;" horiz-adv-x="1999" />
<glyph unicode="&#x2004;" horiz-adv-x="666" />
<glyph unicode="&#x2005;" horiz-adv-x="499" />
<glyph unicode="&#x2006;" horiz-adv-x="333" />
<glyph unicode="&#x2007;" horiz-adv-x="333" />
<glyph unicode="&#x2008;" horiz-adv-x="249" />
<glyph unicode="&#x2009;" horiz-adv-x="399" />
<glyph unicode="&#x200a;" horiz-adv-x="111" />
<glyph unicode="&#x2010;" horiz-adv-x="856" d="M258 363l29 84l12 8h447l10 -12l-25 -90l-12 -7h-455z" />
<glyph unicode="&#x2011;" horiz-adv-x="856" d="M258 363l29 84l12 8h447l10 -12l-25 -90l-12 -7h-455z" />
<glyph unicode="&#x2012;" horiz-adv-x="856" d="M258 363l29 84l12 8h447l10 -12l-25 -90l-12 -7h-455z" />
<glyph unicode="&#x2013;" horiz-adv-x="994" d="M-71 371l22 62l12 8h949l10 -11l-21 -63l-8 -4h-959z" />
<glyph unicode="&#x2014;" horiz-adv-x="1987" d="M45 363l25 78h1984l-22 -78h-1987z" />
<glyph unicode="&#x2018;" horiz-adv-x="459" d="M213 1147q0 70 70 141q68 72 203 142l-14 -47q-66 -37 -117 -88q-46 -50 -46 -80q0 -17 10.5 -27t35.5 -14l18 4l33 10l6 -8l-25 -86q-6 -21 -26 -35q-25 -10 -54 -10q-43 0 -67 26q-27 25 -27 72z" />
<glyph unicode="&#x2019;" horiz-adv-x="459" d="M213 1037l13 45q73 43 118.5 90t45.5 78q0 18 -11 30q-12 10 -33 10l-41 -10l-8 -2l-8 6l23 86q6 23 26 33q21 10 53 14q41 0 70 -26q27 -31 27 -72q0 -72 -70 -143q-72 -72 -205 -139z" />
<glyph unicode="&#x201a;" horiz-adv-x="459" d="M56 -205l14 47q35 21 66 43q29 23 51 45q45 49 45 80q0 17 -13 29q-14 10 -30 10q-9 -2 -19 -2q-10 -2 -24 -8l-9 -2l-7 6l24 88q6 23 24 35q25 10 56 10q41 0 67 -28q27 -29 27 -70q0 -70 -71 -142q-68 -73 -201 -141z" />
<glyph unicode="&#x201c;" horiz-adv-x="760" d="M213 1147q0 70 70 141q67 72 203 142l-15 -47q-65 -37 -116 -88q-46 -50 -46 -80q0 -17 10.5 -27t35.5 -14l18 4l33 10l6 -8l-25 -86q-6 -21 -26 -35q-25 -10 -54 -10q-43 0 -67 26q-27 25 -27 72zM513 1147q0 70 69 141q68 72 203 142l-14 -47q-66 -37 -117 -88 q-43 -48 -43 -80q0 -19 10 -27q10 -10 31 -14l18 4l33 10l8 -8l-23 -86q-6 -21 -28 -35q-25 -10 -51 -10q-41 0 -68.5 25.5t-27.5 72.5z" />
<glyph unicode="&#x201d;" horiz-adv-x="760" d="M213 1037l13 45q73 43 118 90t45 78q0 18 -10 30q-12 10 -33 10l-41 -10l-8 -2l-8 6l23 86q6 23 26 33q21 10 53 14q41 0 70 -26q27 -31 27 -72q0 -72 -70 -143q-72 -72 -205 -139zM515 1037l12 45q35 20 66 43q28 22 51 45q45 49 45 80q0 18 -13 30q-14 10 -31 10 l-43 -10l-8 -2l-8 6l25 86q6 23 28 35q21 10 51 12q41 0 68 -28.5t27 -69.5q0 -72 -69 -143q-64 -70 -201 -139z" />
<glyph unicode="&#x201e;" horiz-adv-x="760" d="M56 -205l14 47q35 21 66 43q29 23 51 45q45 49 45 80q0 17 -13 29q-14 10 -30 10q-9 -2 -19 -2q-10 -2 -24 -8l-9 -2l-7 6l24 88q6 23 24 35q25 10 56 10q41 0 67 -28q27 -29 27 -70q0 -70 -71 -142q-68 -73 -201 -141zM357 -205l12 47q74 45 119 92q43 45 43 76 q0 17 -13 29q-14 10 -30 10q-15 0 -43 -10l-9 -2l-7 6l24 88q6 21 26 35q25 10 54 10q41 0 69 -26q27 -29 27 -72q0 -65 -69.5 -140t-202.5 -143z" />
<glyph unicode="&#x2022;" horiz-adv-x="1172" d="M299 748q0 121 84 205t203 84q117 0 203 -84q84 -86 84 -205q0 -121 -84 -205q-86 -86 -205 -86q-121 0 -203 84t-82 207z" />
<glyph unicode="&#x2026;" horiz-adv-x="1987" d="M316 29q0 51 8 77.5t22 26.5l33 -6l64 -12q12 0 20 -21q7 -20 11 -59q0 -25 -13 -35q-16 -8 -53 -8q-55 0 -72 8q-16 6 -20 29zM1713 29q0 51 8 77.5t22 26.5l33 -6l63 -12q13 0 21 -21q6 -20 11 -59q0 -25 -13 -35q-17 -8 -53 -8q-56 0 -72 8q-17 6 -20 29zM3114 29 q0 51 7 78q9 26 23 26l33 -6l63 -12q12 0 21 -21q6 -20 10 -59q0 -25 -12 -35q-17 -8 -54 -8q-55 0 -71 8q-17 6 -20 29z" />
<glyph unicode="&#x202f;" horiz-adv-x="399" />
<glyph unicode="&#x2039;" horiz-adv-x="629" d="M223 367l332 246l21 12l16 4l17 -6l6 -14q0 -11 -18 -29l-8 -8l-241 -224l62 -249l4 -21l2 -8l-6 -21l-12 -6q-15 2 -19 6l-16 29z" />
<glyph unicode="&#x203a;" horiz-adv-x="629" d="M125 66q0 10 25 33l241 225l-61 250l-4 18l-2 10q0 9 6 19l12 8q15 -4 23 -8q6 -6 14 -27l135 -287l-329 -247l-23 -15l-14 -2q-15 2 -19 6t-4 17z" />
<glyph unicode="&#x205f;" horiz-adv-x="499" />
<glyph unicode="&#x2122;" horiz-adv-x="1633" d="M244 1235l8 170h426l10 -170h-24q0 35 -10 66q-13 28 -31 47q-35 35 -94 35h-23v-418q0 -21 12 -37q13 -16 35 -16l31 -2v-25h-240v25l33 2q19 0 31 14q10 14 14 39v418h-22q-60 0 -97 -39t-37 -109h-22zM770 885v25h33q18 0 33 16q12 14 12 37v364q0 25 -14 39 q-15 15 -33 15l-31 2v22h172l140 -397l149 397h162v-22l-29 -2q-20 0 -35 -15q-10 -16 -12 -39v-362q0 -21 12 -37q13 -16 35 -16l29 -2v-25h-227v25l32 2q21 0 33 16q12 14 12 37v391l-176 -475h-12l-168 475v-391q0 -23 12 -37q11 -16 33 -16l31 -2v-25h-193z" />
<glyph unicode="&#xe000;" horiz-adv-x="680" d="M0 680h680v-680h-680v680z" />
<glyph unicode="&#xfb01;" horiz-adv-x="1070" d="M615 111l6 53l21 76l127 395l16 25l23 10l71 14h8l11 -4l4 -10v-8l-137 -426l-23 -84l-8 -47q0 -25 12 -41q12 -19 37 -19q59 0 172 123q111 123 285 383l2 -16l2 -10q0 -46 -88 -166l-20 -29q-134 -182 -230 -262.5t-176 -80.5q-53 0 -84 34q-31 32 -31 90zM826 916 q0 12 23 57q10 18 20 31l10 10q8 0 33 -14l29 -19l15 -8q24 -10 28 -29q0 -51 -8 -69q-11 -21 -33 -21q-19 0 -39.5 5.5t-38.5 15.5q-39 20 -39 41zM-37 238l4 8l6 12l29 39l8 8l7 4l12 -2l10 -6l55 -32q56 247 103 415q45 168 100 320q56 151 107 252q49 98 96 147 q25 -18 35 -82q12 -55 12 -139q0 -201 -76 -389q-78 -189 -227 -346q-4 -39 -8 -62.5t-10 -56.5q-9 -33 -13 -57q-6 -25 -22 -66q39 -29 72.5 -39t76.5 -10t82 16q37 17 80 56q76 69 254 340l2 -17l2 -10q0 -43 -65 -137l-19 -25q-139 -188 -215 -239q-76 -54 -166 -54 q-43 0 -76 11q-32 10 -61 30q35 -110 47 -174q12 -66 12 -125q0 -137 -51 -242q-51 -104 -143 -166l-10 2q-11 13 -21 68q-7 53 -7 145q0 43 6.5 102.5t16.5 122.5q11 64 27 144q16 78 39 158q-61 31 -87 49q-24 12 -24 27zM33 -430v-27l2 -12q31 22 59 59q27 35 46 72 q34 80 34 176l-6 90l-24 95q-25 -64 -47 -132q-15 -43 -37 -121q-27 -129 -27 -200zM269 541q94 100 147 227q53 125 53 256v27q0 39 -6 76l-27 100q-36 -90 -83 -319q-17 -80 -33 -160q-25 -109 -51 -207z" />
<glyph unicode="&#xfb02;" horiz-adv-x="1205" d="M686 223q0 54 4 78q2 23 13 84l51 250q14 64 33 121q17 55 39 115q35 102 102 243q56 113 103 183q47 67 90 98l12 2q17 -14 27 -49q8 -35 8 -98q0 -207 -84 -426q-86 -220 -250 -428l-15 -95l-4 -75q0 -89 23 -129q23 -44 74 -44q70 0 174 113q53 55 127 154 q72 98 160 231l4 -18l2 -19q0 -20 -29 -65q-8 -17 -43 -66q-22 -35 -34 -53q-64 -88 -119 -154q-58 -67 -109 -112q-98 -87 -178 -87q-84 0 -131 66q-50 66 -50 180zM844 475q106 144 162 285t56 277l-7 84l-12 100q-76 -148 -125 -336q-51 -190 -74 -410zM-37 238l4 8l6 12 l29 39l8 8l7 4l12 -2l10 -6l55 -32q56 247 103 415q45 168 100 320q56 151 107 252q49 98 96 147q25 -18 35 -82q12 -55 12 -139q0 -201 -76 -389q-78 -189 -227 -346q-4 -39 -8 -62.5t-10 -56.5q-9 -33 -13 -57q-6 -25 -22 -66q39 -29 72.5 -39t76.5 -10t82 16q37 17 80 56 q76 69 254 340l2 -17l2 -10q0 -43 -65 -137l-19 -25q-139 -188 -215 -239q-76 -54 -166 -54q-43 0 -76 11q-32 10 -61 30q35 -110 47 -174q12 -66 12 -125q0 -137 -51 -242q-51 -104 -143 -166l-10 2q-11 13 -21 68q-7 53 -7 145q0 43 6.5 102.5t16.5 122.5q11 64 27 144 q16 78 39 158q-61 31 -87 49q-24 12 -24 27zM33 -430v-27l2 -12q31 22 59 59q27 35 46 72q34 80 34 176l-6 90l-24 95q-25 -64 -47 -132q-15 -43 -37 -121q-27 -129 -27 -200zM269 541q94 100 147 227q53 125 53 256v27q0 39 -6 76l-27 100q-36 -90 -83 -319 q-17 -80 -33 -160q-25 -109 -51 -207z" />
<glyph unicode="&#xfb03;" horiz-adv-x="1648" d="M1193 111l6 53l21 76l127 395l16 25l23 10l71 14h8l11 -4l4 -10v-8l-137 -426l-23 -84l-8 -47q0 -25 12 -41q12 -19 37 -19q59 0 172 123q111 123 285 383l2 -16l2 -10q0 -46 -88 -166l-20 -29q-134 -182 -230 -262.5t-176 -80.5q-53 0 -84 34q-31 32 -31 90zM1404 916 q0 12 23 57q10 18 20 31l10 10q8 0 33 -14l29 -19l15 -8q24 -10 28 -29q0 -51 -8 -69q-11 -21 -33 -21q-19 0 -39.5 5.5t-38.5 15.5q-39 20 -39 41zM541 238l4 8l6 12l29 39l8 8l7 4l12 -2l10 -6l55 -32q56 247 103 415q45 168 100 320q56 151 107 252q49 98 96 147 q25 -18 35 -82q12 -55 12 -139q0 -201 -76 -389q-78 -189 -227 -346q-4 -39 -8 -62.5t-10 -56.5q-9 -33 -13 -57q-6 -25 -22 -66q39 -29 72.5 -39t76.5 -10t82 16q37 17 80 56q76 69 254 340l2 -17l2 -10q0 -43 -65 -137l-19 -25q-139 -188 -215 -239q-76 -54 -166 -54 q-43 0 -76 11q-32 10 -61 30q35 -110 47 -174q12 -66 12 -125q0 -137 -51 -242q-51 -104 -143 -166l-10 2q-11 13 -21 68q-7 53 -7 145q0 43 6.5 102.5t16.5 122.5q11 64 27 144q16 78 39 158q-61 31 -87 49q-24 12 -24 27zM611 -430v-27l2 -12q31 22 59 59q27 35 46 72 q34 80 34 176l-6 90l-24 95q-25 -64 -47 -132q-15 -43 -37 -121q-27 -129 -27 -200zM847 541q94 100 147 227q53 125 53 256v27q0 39 -6 76l-27 100q-36 -90 -83 -319q-17 -80 -33 -160q-25 -109 -51 -207zM-37 238l4 8l6 12l29 39l8 8l7 4l12 -2l10 -6l55 -32 q56 247 103 415q45 168 100 320q56 151 107 252q49 98 96 147q25 -18 35 -82q12 -55 12 -139q0 -201 -76 -389q-78 -189 -227 -346q-4 -39 -8 -62.5t-10 -56.5q-9 -33 -13 -57q-6 -25 -22 -66q39 -29 72.5 -39t76.5 -10t82 16q37 17 80 56q76 69 254 340l2 -17l2 -10 q0 -43 -65 -137l-19 -25q-139 -188 -215 -239q-76 -54 -166 -54q-43 0 -76 11q-32 10 -61 30q35 -110 47 -174q12 -66 12 -125q0 -137 -51 -242q-51 -104 -143 -166l-10 2q-11 13 -21 68q-7 53 -7 145q0 43 6.5 102.5t16.5 122.5q11 64 27 144q16 78 39 158q-61 31 -87 49 q-24 12 -24 27zM33 -430v-27l2 -12q31 22 59 59q27 35 46 72q34 80 34 176l-6 90l-24 95q-25 -64 -47 -132q-15 -43 -37 -121q-27 -129 -27 -200zM269 541q94 100 147 227q53 125 53 256v27q0 39 -6 76l-27 100q-36 -90 -83 -319q-17 -80 -33 -160q-25 -109 -51 -207z" />
<glyph unicode="&#xfb04;" horiz-adv-x="1783" d="M1264 223q0 54 4 78q2 23 13 84l51 250q14 64 33 121q17 55 39 115q35 102 102 243q56 113 103 183q47 67 90 98l12 2q17 -14 27 -49q8 -35 8 -98q0 -207 -84 -426q-86 -220 -250 -428l-15 -95l-4 -75q0 -89 23 -129q23 -44 74 -44q70 0 174 113q53 55 127 154 q72 98 160 231l4 -18l2 -19q0 -20 -29 -65q-8 -17 -43 -66q-22 -35 -34 -53q-64 -88 -119 -154q-58 -67 -109 -112q-98 -87 -178 -87q-84 0 -131 66q-50 66 -50 180zM1422 475q106 144 162 285t56 277l-7 84l-12 100q-76 -148 -125 -336q-51 -190 -74 -410zM541 238l4 8 l6 12l29 39l8 8l7 4l12 -2l10 -6l55 -32q56 247 103 415q45 168 100 320q56 151 107 252q49 98 96 147q25 -18 35 -82q12 -55 12 -139q0 -201 -76 -389q-78 -189 -227 -346q-4 -39 -8 -62.5t-10 -56.5q-9 -33 -13 -57q-6 -25 -22 -66q39 -29 72.5 -39t76.5 -10t82 16 q37 17 80 56q76 69 254 340l2 -17l2 -10q0 -43 -65 -137l-19 -25q-139 -188 -215 -239q-76 -54 -166 -54q-43 0 -76 11q-32 10 -61 30q35 -110 47 -174q12 -66 12 -125q0 -137 -51 -242q-51 -104 -143 -166l-10 2q-11 13 -21 68q-7 53 -7 145q0 43 6.5 102.5t16.5 122.5 q11 64 27 144q16 78 39 158q-61 31 -87 49q-24 12 -24 27zM611 -430v-27l2 -12q31 22 59 59q27 35 46 72q34 80 34 176l-6 90l-24 95q-25 -64 -47 -132q-15 -43 -37 -121q-27 -129 -27 -200zM847 541q94 100 147 227q53 125 53 256v27q0 39 -6 76l-27 100q-36 -90 -83 -319 q-17 -80 -33 -160q-25 -109 -51 -207zM-37 238l4 8l6 12l29 39l8 8l7 4l12 -2l10 -6l55 -32q56 247 103 415q45 168 100 320q56 151 107 252q49 98 96 147q25 -18 35 -82q12 -55 12 -139q0 -201 -76 -389q-78 -189 -227 -346q-4 -39 -8 -62.5t-10 -56.5q-9 -33 -13 -57 q-6 -25 -22 -66q39 -29 72.5 -39t76.5 -10t82 16q37 17 80 56q76 69 254 340l2 -17l2 -10q0 -43 -65 -137l-19 -25q-139 -188 -215 -239q-76 -54 -166 -54q-43 0 -76 11q-32 10 -61 30q35 -110 47 -174q12 -66 12 -125q0 -137 -51 -242q-51 -104 -143 -166l-10 2 q-11 13 -21 68q-7 53 -7 145q0 43 6.5 102.5t16.5 122.5q11 64 27 144q16 78 39 158q-61 31 -87 49q-24 12 -24 27zM33 -430v-27l2 -12q31 22 59 59q27 35 46 72q34 80 34 176l-6 90l-24 95q-25 -64 -47 -132q-15 -43 -37 -121q-27 -129 -27 -200zM269 541q94 100 147 227 q53 125 53 256v27q0 39 -6 76l-27 100q-36 -90 -83 -319q-17 -80 -33 -160q-25 -109 -51 -207z" />
</font>
</defs>
</svg>
